<svg width="280" height="420" viewBox="0 0 280 420" fill="none" xmlns="http://www.w3.org/2000/svg">
<path d="M134.234 414.885L134.22 414.864L134.207 414.844C119.696 393.895 86.5968 344.842 57.1326 292.212C42.3997 265.895 28.5963 238.721 18.4815 213.742C8.34579 188.712 2 166.09 2 148.81C2 67.6707 63.8686 2 140 2C216.131 2 278 67.6707 278 148.81C278 166.09 271.654 188.712 261.518 213.742C251.404 238.721 237.6 265.895 222.867 292.212C193.403 344.842 160.304 393.895 145.793 414.844L145.78 414.864L145.766 414.885C145.136 415.843 144.28 416.629 143.273 417.172C142.267 417.716 141.142 418 140 418C138.858 418 137.733 417.716 136.727 417.172C135.72 416.629 134.864 415.843 134.234 414.885Z" fill="white" stroke="#B59700" stroke-width="4"/>
<mask id="path-2-inside-1_0_4" fill="white">
<path fill-rule="evenodd" clip-rule="evenodd" d="M0 148.81C0 66.6836 62.65 0 140 0C217.35 0 280 66.6836 280 148.81C280 219.53 176.488 374.043 147.438 415.983C146.626 417.218 145.522 418.231 144.224 418.932C142.926 419.633 141.474 420 140 420C138.526 420 137.074 419.633 135.776 418.932C134.478 418.231 133.374 417.218 132.562 415.983C103.512 374.043 0 219.53 0 148.81ZM151.703 56.5838L228.788 186.832C229.581 188.167 229.999 189.682 230 191.224C230.001 192.766 229.585 194.282 228.793 195.617C228.002 196.952 226.864 198.061 225.493 198.83C224.122 199.6 222.568 200.003 220.986 200H59.0139C57.4322 200.003 55.8777 199.6 54.5069 198.83C53.1362 198.061 51.9978 196.952 51.2066 195.617C50.4153 194.282 49.9991 192.766 50 191.224C50.0009 189.682 50.4188 188.167 51.2116 186.832L128.297 56.5838C129.484 54.5818 131.19 52.9196 133.244 51.764C135.299 50.6083 137.628 50 140 50C142.372 50 144.701 50.6083 146.756 51.764C148.81 52.9196 150.516 54.5818 151.703 56.5838ZM135.832 173.164C137.066 173.967 138.516 174.396 140 174.396C141.988 174.391 143.893 173.618 145.298 172.247C146.704 170.877 147.496 169.02 147.502 167.081C147.502 165.634 147.062 164.22 146.238 163.017C145.413 161.814 144.242 160.876 142.871 160.323C141.5 159.769 139.992 159.624 138.536 159.906C137.081 160.189 135.744 160.885 134.695 161.909C133.646 162.932 132.931 164.235 132.642 165.654C132.352 167.073 132.501 168.544 133.069 169.881C133.637 171.217 134.598 172.36 135.832 173.164ZM145.305 146.65C146.712 145.278 147.502 143.418 147.502 141.478V101.244C147.502 99.3035 146.712 97.4428 145.305 96.0709C143.898 94.699 141.99 93.9283 140 93.9283C138.01 93.9283 136.102 94.699 134.695 96.0709C133.288 97.4428 132.498 99.3035 132.498 101.244V141.478C132.498 143.418 133.288 145.278 134.695 146.65C136.102 148.022 138.01 148.793 140 148.793C141.99 148.793 143.898 148.022 145.305 146.65Z"/>
</mask>
<path fill-rule="evenodd" clip-rule="evenodd" d="M0 148.81C0 66.6836 62.65 0 140 0C217.35 0 280 66.6836 280 148.81C280 219.53 176.488 374.043 147.438 415.983C146.626 417.218 145.522 418.231 144.224 418.932C142.926 419.633 141.474 420 140 420C138.526 420 137.074 419.633 135.776 418.932C134.478 418.231 133.374 417.218 132.562 415.983C103.512 374.043 0 219.53 0 148.81ZM151.703 56.5838L228.788 186.832C229.581 188.167 229.999 189.682 230 191.224C230.001 192.766 229.585 194.282 228.793 195.617C228.002 196.952 226.864 198.061 225.493 198.83C224.122 199.6 222.568 200.003 220.986 200H59.0139C57.4322 200.003 55.8777 199.6 54.5069 198.83C53.1362 198.061 51.9978 196.952 51.2066 195.617C50.4153 194.282 49.9991 192.766 50 191.224C50.0009 189.682 50.4188 188.167 51.2116 186.832L128.297 56.5838C129.484 54.5818 131.19 52.9196 133.244 51.764C135.299 50.6083 137.628 50 140 50C142.372 50 144.701 50.6083 146.756 51.764C148.81 52.9196 150.516 54.5818 151.703 56.5838ZM135.832 173.164C137.066 173.967 138.516 174.396 140 174.396C141.988 174.391 143.893 173.618 145.298 172.247C146.704 170.877 147.496 169.02 147.502 167.081C147.502 165.634 147.062 164.22 146.238 163.017C145.413 161.814 144.242 160.876 142.871 160.323C141.5 159.769 139.992 159.624 138.536 159.906C137.081 160.189 135.744 160.885 134.695 161.909C133.646 162.932 132.931 164.235 132.642 165.654C132.352 167.073 132.501 168.544 133.069 169.881C133.637 171.217 134.598 172.36 135.832 173.164ZM145.305 146.65C146.712 145.278 147.502 143.418 147.502 141.478V101.244C147.502 99.3035 146.712 97.4428 145.305 96.0709C143.898 94.699 141.99 93.9283 140 93.9283C138.01 93.9283 136.102 94.699 134.695 96.0709C133.288 97.4428 132.498 99.3035 132.498 101.244V141.478C132.498 143.418 133.288 145.278 134.695 146.65C136.102 148.022 138.01 148.793 140 148.793C141.99 148.793 143.898 148.022 145.305 146.65Z" fill="#FFFF01"/>
<path d="M147.438 415.983L144.149 413.706L144.122 413.746L144.095 413.786L147.438 415.983ZM144.224 418.932L146.125 422.451L146.125 422.451L144.224 418.932ZM135.776 418.932L133.875 422.451L133.875 422.451L135.776 418.932ZM132.562 415.983L135.905 413.786L135.878 413.746L135.851 413.706L132.562 415.983ZM228.788 186.832L225.346 188.87L225.349 188.875L228.788 186.832ZM151.703 56.5838L155.146 54.5465L155.144 54.5436L151.703 56.5838ZM220.986 200L220.994 196H220.986V200ZM59.0139 200L59.0139 196L59.0058 196L59.0139 200ZM54.5069 198.83L52.5488 202.318L52.5488 202.318L54.5069 198.83ZM51.2066 195.617L47.7653 197.656L47.7653 197.656L51.2066 195.617ZM50 191.224L46 191.222L46 191.222L50 191.224ZM51.2116 186.832L54.6506 188.875L54.654 188.87L51.2116 186.832ZM128.297 56.5838L124.856 54.5436L124.854 54.5465L128.297 56.5838ZM133.244 51.764L135.205 55.2502L135.205 55.2502L133.244 51.764ZM146.756 51.764L144.795 55.2502L144.795 55.2502L146.756 51.764ZM140 174.396L140 178.397L140.012 178.396L140 174.396ZM135.832 173.164L133.648 176.515L133.648 176.515L135.832 173.164ZM145.298 172.247L148.091 175.111L148.091 175.111L145.298 172.247ZM147.502 167.081L151.502 167.093V167.081H147.502ZM146.238 163.017L149.537 160.756L149.537 160.756L146.238 163.017ZM142.871 160.323L141.373 164.032L141.373 164.032L142.871 160.323ZM134.695 161.909L137.488 164.772L137.488 164.772L134.695 161.909ZM133.069 169.881L129.387 171.445L129.387 171.445L133.069 169.881ZM145.305 146.65L142.512 143.787L142.512 143.787L145.305 146.65ZM145.305 96.0709L142.512 98.9348L142.512 98.9348L145.305 96.0709ZM134.695 96.0709L137.488 98.9348L137.488 98.9348L134.695 96.0709ZM134.695 146.65L137.488 143.787L137.488 143.787L134.695 146.65ZM140 -4C60.2128 -4 -4 64.7096 -4 148.81H4C4 68.6577 65.0871 4 140 4V-4ZM284 148.81C284 64.7096 219.787 -4 140 -4V4C214.913 4 276 68.6577 276 148.81H284ZM150.726 418.261C165.28 397.248 198.503 348.015 228.103 295.143C242.901 268.71 256.835 241.294 267.08 215.994C277.283 190.797 284 167.29 284 148.81H276C276 165.69 269.778 188.016 259.665 212.991C249.593 237.863 235.833 264.957 221.122 291.235C191.703 343.784 158.645 392.778 144.149 413.706L150.726 418.261ZM146.125 422.451C148.006 421.435 149.606 419.967 150.78 418.18L144.095 413.786C143.647 414.468 143.038 415.026 142.323 415.412L146.125 422.451ZM140 424C142.139 424 144.243 423.468 146.125 422.451L142.323 415.412C141.608 415.798 140.81 416 140 416V424ZM133.875 422.451C135.757 423.468 137.861 424 140 424V416C139.19 416 138.392 415.798 137.677 415.412L133.875 422.451ZM129.22 418.18C130.394 419.967 131.994 421.435 133.875 422.451L137.677 415.412C136.962 415.026 136.353 414.468 135.905 413.786L129.22 418.18ZM-4 148.81C-4 167.29 2.71702 190.797 12.9202 215.994C23.1651 241.294 37.0991 268.71 51.8972 295.143C81.497 348.015 114.72 397.248 129.274 418.261L135.851 413.706C121.355 392.778 88.2967 343.784 58.8778 291.235C44.1665 264.957 30.4068 237.863 20.3353 212.991C10.222 188.016 4 165.69 4 148.81H-4ZM232.231 184.795L155.146 54.5465L148.261 58.621L225.346 188.87L232.231 184.795ZM234 191.222C233.999 188.956 233.384 186.737 232.227 184.789L225.349 188.875C225.778 189.597 226 190.407 226 191.226L234 191.222ZM232.235 197.656C233.39 195.707 234.001 193.487 234 191.222L226 191.226C226 192.045 225.78 192.856 225.352 193.578L232.235 197.656ZM227.451 202.318C229.427 201.209 231.08 199.604 232.235 197.656L225.352 193.578C224.924 194.3 224.301 194.912 223.535 195.342L227.451 202.318ZM220.978 204C223.244 204.005 225.476 203.427 227.451 202.318L223.535 195.342C222.769 195.773 221.892 196.002 220.994 196L220.978 204ZM59.0139 204H220.986V196H59.0139V204ZM52.5488 202.318C54.5239 203.427 56.7563 204.005 59.0221 204L59.0058 196C58.1082 196.002 57.2315 195.773 56.4651 195.342L52.5488 202.318ZM47.7653 197.656C48.9198 199.604 50.5731 201.209 52.5488 202.318L56.4651 195.342C55.6993 194.912 55.0759 194.3 54.6478 193.578L47.7653 197.656ZM46 191.222C45.9987 193.487 46.6104 195.707 47.7653 197.656L54.6478 193.578C54.2202 192.856 53.9995 192.045 54 191.226L46 191.222ZM47.7727 184.789C46.6156 186.737 46.0013 188.956 46 191.222L54 191.226C54.0005 190.407 54.2221 189.597 54.6506 188.875L47.7727 184.789ZM124.854 54.5465L47.7693 184.795L54.654 188.87L131.739 58.621L124.854 54.5465ZM131.283 48.2777C128.626 49.7727 126.406 51.9302 124.856 54.5436L131.737 58.6239C132.562 57.2334 133.754 56.0664 135.205 55.2502L131.283 48.2777ZM140 46C136.946 46 133.94 46.7831 131.283 48.2777L135.205 55.2502C136.657 54.4336 138.311 54 140 54V46ZM148.717 48.2777C146.06 46.7831 143.054 46 140 46V54C141.689 54 143.343 54.4336 144.795 55.2502L148.717 48.2777ZM155.144 54.5436C153.594 51.9302 151.374 49.7727 148.717 48.2777L144.795 55.2502C146.246 56.0664 147.438 57.2334 148.263 58.6239L155.144 54.5436ZM140 170.396C139.285 170.396 138.594 170.189 138.016 169.812L133.648 176.515C135.537 177.746 137.747 178.396 140 178.396V170.396ZM142.506 169.384C141.855 170.019 140.951 170.394 139.988 170.397L140.012 178.396C143.024 178.388 145.931 177.218 148.091 175.111L142.506 169.384ZM143.502 167.069C143.5 167.918 143.154 168.752 142.506 169.384L148.091 175.111C150.254 173.002 151.493 170.121 151.502 167.093L143.502 167.069ZM142.938 165.278C143.31 165.821 143.502 166.448 143.502 167.081H151.502C151.502 164.82 150.814 162.619 149.537 160.756L142.938 165.278ZM141.373 164.032C142.025 164.295 142.565 164.734 142.938 165.278L149.537 160.756C148.262 158.894 146.459 157.458 144.369 156.614L141.373 164.032ZM139.298 163.833C139.997 163.698 140.721 163.768 141.373 164.032L144.369 156.614C142.28 155.77 139.986 155.551 137.775 155.98L139.298 163.833ZM137.488 164.772C137.971 164.301 138.6 163.969 139.298 163.833L137.775 155.98C135.563 156.409 133.517 157.47 131.903 159.045L137.488 164.772ZM136.561 166.454C136.688 165.83 137.005 165.243 137.488 164.772L131.903 159.045C130.287 160.62 129.174 162.64 128.723 164.855L136.561 166.454ZM136.75 168.317C136.498 167.723 136.434 167.076 136.561 166.454L128.723 164.855C128.271 167.07 128.504 169.365 129.387 171.445L136.75 168.317ZM138.016 169.812C137.438 169.436 137.003 168.911 136.75 168.317L129.387 171.445C130.27 173.523 131.759 175.284 133.648 176.515L138.016 169.812ZM143.502 141.478C143.502 142.324 143.158 143.157 142.512 143.787L148.097 149.514C150.265 147.4 151.502 144.512 151.502 141.478H143.502ZM143.502 101.244V141.478H151.502V101.244H143.502ZM142.512 98.9348C143.158 99.5647 143.502 100.397 143.502 101.244H151.502C151.502 98.2096 150.265 95.3208 148.097 93.207L142.512 98.9348ZM140 97.9283C140.961 97.9283 141.863 98.3015 142.512 98.9348L148.097 93.207C145.933 91.0966 143.018 89.9283 140 89.9283V97.9283ZM137.488 98.9348C138.137 98.3015 139.039 97.9283 140 97.9283V89.9283C136.982 89.9283 134.067 91.0966 131.903 93.207L137.488 98.9348ZM136.498 101.244C136.498 100.397 136.842 99.5648 137.488 98.9348L131.903 93.207C129.735 95.3208 128.498 98.2096 128.498 101.244H136.498ZM136.498 141.478V101.244H128.498V141.478H136.498ZM137.488 143.787C136.842 143.157 136.498 142.324 136.498 141.478H128.498C128.498 144.512 129.735 147.4 131.903 149.514L137.488 143.787ZM140 144.793C139.039 144.793 138.137 144.42 137.488 143.787L131.903 149.514C134.067 151.625 136.982 152.793 140 152.793V144.793ZM142.512 143.787C141.863 144.42 140.961 144.793 140 144.793V152.793C143.018 152.793 145.933 151.625 148.097 149.514L142.512 143.787Z" fill="#B59700" mask="url(#path-2-inside-1_0_4)"/>
</svg>
