<svg width="12" height="12" viewBox="0 0 12 12" fill="none" xmlns="http://www.w3.org/2000/svg">
<path d="M11.9192 10.2273L6.78023 1.3222C6.70109 1.18533 6.58733 1.07168 6.45038 0.992672C6.31343 0.913663 6.15811 0.87207 6 0.87207C5.84189 0.87207 5.68657 0.913663 5.54962 0.992672C5.41267 1.07168 5.29891 1.18533 5.21977 1.3222L0.0807758 10.2273C0.0279213 10.3185 5.95203e-05 10.4221 9.5258e-08 10.5275C-5.93298e-05 10.633 0.0276857 10.7366 0.0804373 10.8279C0.133189 10.9192 0.209082 10.995 0.300463 11.0476C0.391844 11.1002 0.495483 11.1278 0.600927 11.1276H11.3991C11.5045 11.1278 11.6082 11.1002 11.6995 11.0476C11.7909 10.995 11.8668 10.9192 11.9196 10.8279C11.9723 10.7366 12.0001 10.633 12 10.5275C11.9999 10.4221 11.9721 10.3185 11.9192 10.2273V10.2273ZM6 9.37705C5.90108 9.37705 5.80438 9.34771 5.72213 9.29276C5.63989 9.2378 5.57578 9.15969 5.53793 9.0683C5.50007 8.97691 5.49017 8.87635 5.50946 8.77933C5.52876 8.68231 5.5764 8.59319 5.64634 8.52324C5.71629 8.4533 5.80541 8.40566 5.90243 8.38637C5.99944 8.36707 6.10001 8.37697 6.1914 8.41483C6.28279 8.45268 6.3609 8.51679 6.41586 8.59903C6.47081 8.68128 6.50015 8.77798 6.50015 8.8769C6.49975 9.00943 6.44693 9.13641 6.35322 9.23012C6.25951 9.32383 6.13252 9.37665 6 9.37705V9.37705ZM6.50015 7.12639C6.50015 7.25904 6.44745 7.38625 6.35366 7.48005C6.25986 7.57384 6.13265 7.62654 6 7.62654C5.86735 7.62654 5.74014 7.57384 5.64634 7.48005C5.55255 7.38625 5.49985 7.25904 5.49985 7.12639V4.37559C5.49985 4.24294 5.55255 4.11573 5.64634 4.02193C5.74014 3.92814 5.86735 3.87544 6 3.87544C6.13265 3.87544 6.25986 3.92814 6.35366 4.02193C6.44745 4.11573 6.50015 4.24294 6.50015 4.37559V7.12639Z" fill="#00214D"/>
</svg>
