<svg width="32" height="32" viewBox="0 0 32 32" fill="none" xmlns="http://www.w3.org/2000/svg">
<rect x="1" y="1" width="30" height="30" rx="3" fill="white" stroke="#E5E5E5" stroke-width="2"/>
<g clip-path="url(#clip0)">
<path d="M24.9062 24.8125H20.3125V14.7299C20.3221 14.2671 20.513 13.8266 20.844 13.5031C21.175 13.1796 21.6198 12.999 22.0826 13C22.5413 13.0005 22.981 13.1829 23.3053 13.5072C23.6296 13.8315 23.812 14.2712 23.8125 14.7299C23.8125 14.7369 23.8143 14.743 23.8147 14.75H23.8125V15.051C23.5512 15.1744 23.3303 15.3694 23.1754 15.6134C23.0205 15.8573 22.938 16.1402 22.9375 16.4291C22.9375 17.1947 24.1918 18.8069 24.4302 19.1062C24.4348 19.1121 24.4407 19.1169 24.4474 19.1202C24.4541 19.1234 24.4615 19.1252 24.469 19.1252C24.4764 19.1252 24.4838 19.1234 24.4905 19.1202C24.4972 19.1169 24.5031 19.1121 24.5077 19.1062C24.7457 18.8069 26 17.1948 26 16.4296C25.9995 16.1406 25.917 15.8577 25.7621 15.6138C25.6072 15.3698 25.3863 15.1748 25.125 15.0514V14.75H25.1228C25.1228 14.743 25.125 14.7369 25.125 14.7299C25.1241 13.9233 24.8032 13.15 24.2329 12.5796C23.6625 12.0093 22.8892 11.6884 22.0826 11.6875C21.2718 11.6867 20.4933 12.0058 19.9162 12.5753C19.3391 13.1449 19.0099 13.9191 19 14.7299V16.9375H17.9062C17.8331 16.9374 17.7601 16.9418 17.6875 16.9506C17.1293 17.0051 16.6074 17.2517 16.2108 17.6483C15.8142 18.0449 15.5676 18.5668 15.5131 19.125C15.5043 19.1976 15.4999 19.2706 15.5 19.3438V19.8635C15.2387 19.9869 15.0178 20.1819 14.8629 20.4259C14.708 20.6698 14.6255 20.9527 14.625 21.2416C14.625 22.0073 15.8793 23.6194 16.1178 23.9187C16.1223 23.9246 16.1282 23.9294 16.1349 23.9327C16.1416 23.9359 16.149 23.9377 16.1565 23.9377C16.1639 23.9377 16.1713 23.9359 16.178 23.9327C16.1847 23.9294 16.1906 23.9246 16.1952 23.9187C16.4332 23.6194 17.6875 22.0073 17.6875 21.2421C17.687 20.9531 17.6045 20.6702 17.4496 20.4263C17.2947 20.1824 17.0738 19.9873 16.8125 19.8639V19.3438C16.8125 19.0537 16.9277 18.7755 17.1329 18.5704C17.338 18.3652 17.6162 18.25 17.9062 18.25H19V24.8125H6.09375C5.80367 24.8125 5.52547 24.9277 5.32035 25.1329C5.11523 25.338 5 25.6162 5 25.9062C5 26.1963 5.11523 26.4745 5.32035 26.6796C5.52547 26.8848 5.80367 27 6.09375 27H24.9062C25.1963 27 25.4745 26.8848 25.6796 26.6796C25.8848 26.4745 26 26.1963 26 25.9062C26 25.6162 25.8848 25.338 25.6796 25.1329C25.4745 24.9277 25.1963 24.8125 24.9062 24.8125V24.8125ZM10.4688 8.625C10.6428 8.625 10.8097 8.55586 10.9328 8.43279C11.0559 8.30972 11.125 8.1428 11.125 7.96875V6.65625C11.125 6.4822 11.0559 6.31528 10.9328 6.19221C10.8097 6.06914 10.6428 6 10.4688 6C10.2947 6 10.1278 6.06914 10.0047 6.19221C9.88164 6.31528 9.8125 6.4822 9.8125 6.65625V7.96875C9.8125 8.1428 9.88164 8.30972 10.0047 8.43279C10.1278 8.55586 10.2947 8.625 10.4688 8.625V8.625ZM9.8125 14.9688V16.2812C9.8125 16.4553 9.88164 16.6222 10.0047 16.7453C10.1278 16.8684 10.2947 16.9375 10.4688 16.9375C10.6428 16.9375 10.8097 16.8684 10.9328 16.7453C11.0559 16.6222 11.125 16.4553 11.125 16.2812V14.9688C11.125 14.7947 11.0559 14.6278 10.9328 14.5047C10.8097 14.3816 10.6428 14.3125 10.4688 14.3125C10.2947 14.3125 10.1278 14.3816 10.0047 14.5047C9.88164 14.6278 9.8125 14.7947 9.8125 14.9688V14.9688ZM13.4079 9.458L14.3354 8.52963C14.3999 8.46955 14.4516 8.3971 14.4874 8.3166C14.5233 8.2361 14.5426 8.1492 14.5441 8.06108C14.5457 7.97297 14.5295 7.88544 14.4965 7.80373C14.4635 7.72201 14.4144 7.64778 14.352 7.58547C14.2897 7.52315 14.2155 7.47402 14.1338 7.44102C14.0521 7.40801 13.9645 7.3918 13.8764 7.39336C13.7883 7.39491 13.7014 7.4142 13.6209 7.45007C13.5404 7.48593 13.468 7.53765 13.4079 7.60212L12.4795 8.52963C12.3564 8.65274 12.2872 8.81971 12.2872 8.99381C12.2872 9.16792 12.3564 9.33489 12.4795 9.458C12.6026 9.58111 12.7696 9.65027 12.9437 9.65027C13.1178 9.65027 13.2848 9.58111 13.4079 9.458V9.458ZM7.52963 13.4795L6.60212 14.4079C6.4862 14.5323 6.4231 14.6968 6.4261 14.8668C6.4291 15.0368 6.49797 15.1991 6.61821 15.3193C6.73844 15.4395 6.90065 15.5084 7.07067 15.5114C7.24068 15.5144 7.40522 15.4513 7.52963 15.3354L8.458 14.4079C8.58111 14.2848 8.65027 14.1178 8.65027 13.9437C8.65027 13.7696 8.58111 13.6026 8.458 13.4795C8.33489 13.3564 8.16792 13.2872 7.99381 13.2872C7.81971 13.2872 7.65274 13.3564 7.52963 13.4795ZM13.3125 11.4688C13.3125 11.6428 13.3816 11.8097 13.5047 11.9328C13.6278 12.0559 13.7947 12.125 13.9688 12.125H15.2812C15.4553 12.125 15.6222 12.0559 15.7453 11.9328C15.8684 11.8097 15.9375 11.6428 15.9375 11.4688C15.9375 11.2947 15.8684 11.1278 15.7453 11.0047C15.6222 10.8816 15.4553 10.8125 15.2812 10.8125H13.9688C13.7947 10.8125 13.6278 10.8816 13.5047 11.0047C13.3816 11.1278 13.3125 11.2947 13.3125 11.4688V11.4688ZM5.65625 12.125H6.96875C7.1428 12.125 7.30972 12.0559 7.43279 11.9328C7.55586 11.8097 7.625 11.6428 7.625 11.4688C7.625 11.2947 7.55586 11.1278 7.43279 11.0047C7.30972 10.8816 7.1428 10.8125 6.96875 10.8125H5.65625C5.4822 10.8125 5.31528 10.8816 5.19221 11.0047C5.06914 11.1278 5 11.2947 5 11.4688C5 11.6428 5.06914 11.8097 5.19221 11.9328C5.31528 12.0559 5.4822 12.125 5.65625 12.125V12.125ZM12.4795 13.4795C12.4185 13.5404 12.3701 13.6128 12.3371 13.6925C12.3041 13.7721 12.2871 13.8575 12.2871 13.9437C12.2871 14.0299 12.3041 14.1153 12.3371 14.1949C12.3701 14.2746 12.4185 14.3469 12.4795 14.4079L13.4079 15.3354C13.5323 15.4513 13.6968 15.5144 13.8668 15.5114C14.0368 15.5084 14.1991 15.4395 14.3193 15.3193C14.4395 15.1991 14.5084 15.0368 14.5114 14.8668C14.5144 14.6968 14.4513 14.5323 14.3354 14.4079L13.4079 13.4795C13.3469 13.4185 13.2746 13.3701 13.1949 13.3371C13.1153 13.3041 13.0299 13.2871 12.9437 13.2871C12.8575 13.2871 12.7721 13.3041 12.6925 13.3371C12.6128 13.3701 12.5404 13.4185 12.4795 13.4795ZM7.52963 9.458C7.65274 9.58111 7.81971 9.65027 7.99381 9.65027C8.16792 9.65027 8.33489 9.58111 8.458 9.458C8.58111 9.33489 8.65027 9.16792 8.65027 8.99381C8.65027 8.81971 8.58111 8.65274 8.458 8.52963L7.52963 7.60212C7.40522 7.4862 7.24068 7.4231 7.07067 7.4261C6.90065 7.4291 6.73844 7.49797 6.61821 7.61821C6.49797 7.73844 6.4291 7.90065 6.4261 8.07067C6.4231 8.24068 6.4862 8.40522 6.60212 8.52963L7.52963 9.458Z" fill="#E5E5E5"/>
<path d="M10.4688 13.4375C11.5561 13.4375 12.4375 12.5561 12.4375 11.4688C12.4375 10.3814 11.5561 9.5 10.4688 9.5C9.38144 9.5 8.5 10.3814 8.5 11.4688C8.5 12.5561 9.38144 13.4375 10.4688 13.4375Z" fill="#E5E5E5"/>
</g>
<defs>
<clipPath id="clip0">
<rect width="21" height="21" fill="white" transform="translate(5 6)"/>
</clipPath>
</defs>
</svg>
