<svg width="12" height="12" viewBox="0 0 12 12" fill="none" xmlns="http://www.w3.org/2000/svg">
<g clip-path="url(#clip0_959_970)">
<path fill-rule="evenodd" clip-rule="evenodd" d="M11.0968 4.11892C11.1345 4.14929 11.1649 4.18763 11.1858 4.23113C11.2067 4.2747 11.2175 4.32235 11.2175 4.37059V12H0.75V4.37059C0.750052 4.32236 0.760942 4.27475 0.781878 4.23122C0.802814 4.18768 0.833269 4.14932 0.871031 4.11892L5.98375 0L11.0968 4.11892ZM6.78745 8.43624C6.81812 8.51479 6.83345 8.60347 6.83345 8.70229C6.83345 8.82644 6.80151 8.93793 6.73762 9.03675C6.67629 9.13556 6.58045 9.21284 6.45012 9.26859C6.32235 9.32433 6.15879 9.3522 5.95946 9.3522C5.7959 9.3522 5.64513 9.33573 5.50713 9.30279C5.37168 9.26985 5.25413 9.21664 5.15446 9.14317C5.05735 9.06968 4.98196 8.9734 4.9283 8.85431C4.87463 8.73523 4.8478 8.58953 4.8478 8.41724H3.69397C3.69397 8.72889 3.75914 8.99874 3.88947 9.22678C4.0198 9.45482 4.19358 9.64232 4.4108 9.78928C4.63058 9.93624 4.87463 10.0465 5.14296 10.1199C5.41129 10.1909 5.68346 10.2264 5.95946 10.2264C6.26612 10.2264 6.5434 10.1922 6.79129 10.1237C7.03918 10.0553 7.25256 9.95524 7.43145 9.82349C7.61034 9.69173 7.74706 9.53083 7.84161 9.3408C7.93617 9.15077 7.98345 8.93539 7.98345 8.69468C7.98345 8.46664 7.94384 8.26267 7.86461 8.08278C7.78539 7.90288 7.66784 7.74198 7.51195 7.60009C7.35606 7.4582 7.16184 7.33024 6.92929 7.21622C6.69929 7.1022 6.43223 6.99958 6.12812 6.90837C5.94668 6.85262 5.78696 6.79561 5.64896 6.73734C5.51096 6.67906 5.39468 6.61698 5.30013 6.5511C5.20557 6.48523 5.13402 6.41428 5.08546 6.33827C5.03946 6.26225 5.01646 6.17737 5.01646 6.08362C5.01646 5.95947 5.04968 5.84798 5.11613 5.74916C5.18257 5.64781 5.28224 5.568 5.41513 5.50972C5.54802 5.44891 5.71413 5.4185 5.91346 5.4185C6.12046 5.4185 6.29168 5.45398 6.42712 5.52492C6.56512 5.59587 6.66734 5.69342 6.73379 5.81757C6.80279 5.9392 6.83729 6.08109 6.83729 6.24325H7.97961C7.97961 5.91386 7.894 5.6212 7.72278 5.36529C7.55412 5.10938 7.31645 4.90795 7.00978 4.76099C6.70312 4.61403 6.34407 4.54055 5.93262 4.54055C5.63107 4.54055 5.35379 4.57729 5.1008 4.65077C4.85035 4.72425 4.63313 4.8294 4.44913 4.96622C4.26513 5.10051 4.12202 5.26267 4.0198 5.45271C3.91758 5.64021 3.86647 5.84925 3.86647 6.07982C3.86647 6.318 3.91502 6.52703 4.01213 6.70693C4.1118 6.88683 4.24724 7.04519 4.41847 7.18202C4.59224 7.31631 4.79157 7.43413 5.01646 7.53548C5.24391 7.63683 5.48413 7.72805 5.73713 7.80913C5.96457 7.88007 6.14985 7.94849 6.29296 8.01436C6.43607 8.08024 6.54723 8.14739 6.62645 8.2158C6.70568 8.28168 6.75934 8.35516 6.78745 8.43624Z" fill="#0F1218"/>
</g>
<defs>
<clipPath id="clip0_959_970">
<rect width="12" height="12" fill="white"/>
</clipPath>
</defs>
</svg>
