<svg width="28" height="42" viewBox="0 0 28 42" fill="none" xmlns="http://www.w3.org/2000/svg">
<path d="M13.6741 41.3237L13.6742 41.3236L13.6673 41.3136C12.2185 39.2219 8.91467 34.3255 5.97503 29.0746C4.505 26.4488 3.1312 23.7434 2.12622 21.2616C1.11602 18.7669 0.5 16.549 0.5 14.881C0.5 6.91512 6.56964 0.5 14 0.5C21.4304 0.5 27.5 6.91512 27.5 14.881C27.5 16.549 26.884 18.7669 25.8738 21.2616C24.8688 23.7434 23.495 26.4488 22.025 29.0746C19.0853 34.3255 15.7815 39.2219 14.3327 41.3136L14.3326 41.3135L14.3259 41.3237C14.2902 41.3781 14.2417 41.4225 14.1848 41.4533C14.1279 41.484 14.0644 41.5 14 41.5C13.9356 41.5 13.8721 41.484 13.8152 41.4533C13.7583 41.4225 13.7098 41.3781 13.6741 41.3237Z" fill="#00214D" stroke="#001229"/>
<path d="M20.5156 16.3012L20.4408 16.1712C20.1571 16.3345 19.8313 16.4211 19.4988 16.4211C19.1663 16.4211 18.8406 16.3345 18.5569 16.1713C18.0115 15.8562 17.384 15.6954 16.7472 15.707C16.1108 15.6954 15.4836 15.8563 14.9385 16.1714L14.9385 16.1713L14.9347 16.1737C14.6585 16.3447 14.3332 16.4313 14.0027 16.4212L14.0027 16.421L13.9936 16.4212C13.6629 16.4313 13.3375 16.3446 13.0612 16.1737L13.0612 16.1736L13.0573 16.1714C12.512 15.8563 11.8845 15.6955 11.2479 15.707C10.6114 15.6955 9.98403 15.8563 9.43883 16.1714L9.43879 16.1713L9.43492 16.1737C9.15887 16.3446 8.8337 16.4313 8.5033 16.4212L8.50331 16.421L8.49421 16.4212C8.16393 16.4312 7.8389 16.3446 7.56297 16.1737L7.56301 16.1736L7.55904 16.1714C7.01341 15.8561 6.38555 15.6953 5.74854 15.7071C5.51268 15.7074 5.28517 15.7967 5.11623 15.9576C4.9467 16.119 4.85 16.3396 4.85 16.5712C4.85 16.8028 4.9467 17.0233 5.11623 17.1848C5.28552 17.3459 5.51361 17.4353 5.75 17.4353V17.4354L5.75456 17.4352C6.08496 17.4252 6.41012 17.5118 6.68616 17.6827L6.68612 17.6828L6.69008 17.6851C7.23507 18 7.86211 18.1608 8.49836 18.1494C9.13488 18.1609 9.76221 18.0001 10.3074 17.6851L10.3075 17.6852L10.3113 17.6828C10.5875 17.5118 10.9128 17.4251 11.2433 17.4352L11.2433 17.4355L11.2525 17.4352C11.5832 17.4251 11.9088 17.5117 12.1852 17.6828L12.1852 17.6828L12.1891 17.6851C12.7342 18.0001 13.3614 18.1609 13.9978 18.1494C14.6342 18.1608 15.2614 18 15.8066 17.6852C16.0901 17.5219 16.4157 17.4352 16.748 17.4352C17.0803 17.4352 17.4059 17.5219 17.6894 17.6852L17.6893 17.6852L17.6917 17.6865C18.2412 17.9899 18.8645 18.1494 19.4986 18.1494C20.1328 18.1494 20.7561 17.9899 21.3055 17.6865L21.3056 17.6867L21.3119 17.6828C21.5886 17.5117 21.9144 17.4251 22.2454 17.4352L22.2454 17.4353H22.25C22.4864 17.4353 22.7145 17.3459 22.8838 17.1848C23.0533 17.0233 23.15 16.8028 23.15 16.5712C23.15 16.3396 23.0533 16.119 22.8838 15.9576C22.7148 15.7967 22.4873 15.7074 22.2515 15.7071C21.6143 15.6952 20.9863 15.856 20.4406 16.1714L20.5156 16.3012ZM20.5156 16.3012C20.2089 16.4778 19.8573 16.5711 19.4988 16.5711C19.1404 16.5711 18.7887 16.4778 18.482 16.3012C17.9597 15.9995 17.358 15.8454 16.7473 15.8571L20.5156 16.3012Z" fill="white" stroke="#001229" stroke-width="0.3"/>
<path d="M20.5156 13.4448L20.4408 13.3148C20.1571 13.4781 19.8313 13.5647 19.4988 13.5647C19.1663 13.5647 18.8406 13.4781 18.5569 13.3148C18.0115 12.9997 17.384 12.839 16.7472 12.8506C16.1108 12.839 15.4836 12.9998 14.9385 13.3149L14.9385 13.3149L14.9347 13.3173C14.6585 13.4882 14.3332 13.5749 14.0027 13.5648L14.0027 13.5645L13.9936 13.5648C13.6629 13.5749 13.3375 13.4882 13.0612 13.3172L13.0612 13.3172L13.0573 13.3149C12.512 12.9998 11.8845 12.839 11.2479 12.8506C10.6114 12.8391 9.98403 12.9999 9.43883 13.3149L9.43879 13.3149L9.43492 13.3173C9.15887 13.4882 8.8337 13.5748 8.5033 13.5648L8.50331 13.5645L8.49421 13.5648C8.16393 13.5748 7.8389 13.4881 7.56297 13.3173L7.56301 13.3172L7.55904 13.3149C7.01341 12.9997 6.38555 12.8389 5.74854 12.8506C5.51268 12.851 5.28517 12.9403 5.11623 13.1011C4.9467 13.2626 4.85 13.4831 4.85 13.7147C4.85 13.9463 4.9467 14.1669 5.11623 14.3283C5.28552 14.4895 5.51361 14.5788 5.75 14.5788V14.5789L5.75456 14.5788C6.08496 14.5687 6.41012 14.6554 6.68616 14.8263L6.68612 14.8264L6.69008 14.8287C7.23507 15.1435 7.86211 15.3043 8.49836 15.293C9.13488 15.3045 9.76221 15.1437 10.3074 14.8286L10.3075 14.8287L10.3113 14.8263C10.5875 14.6553 10.9128 14.5687 11.2433 14.5788L11.2433 14.579L11.2525 14.5788C11.5832 14.5686 11.9088 14.6553 12.1852 14.8263L12.1852 14.8264L12.1891 14.8286C12.7342 15.1436 13.3614 15.3044 13.9978 15.293C14.6342 15.3043 15.2614 15.1436 15.8066 14.8287C16.0901 14.6654 16.4157 14.5788 16.748 14.5788C17.0803 14.5788 17.4059 14.6654 17.6894 14.8287L17.6893 14.8288L17.6917 14.8301C18.2412 15.1334 18.8645 15.2929 19.4986 15.2929C20.1328 15.2929 20.7561 15.1334 21.3055 14.8301L21.3056 14.8302L21.3119 14.8264C21.5886 14.6553 21.9144 14.5686 22.2454 14.5788L22.2454 14.5788H22.25C22.4864 14.5788 22.7145 14.4895 22.8838 14.3283C23.0533 14.1669 23.15 13.9463 23.15 13.7147C23.15 13.4831 23.0533 13.2626 22.8838 13.1011C22.7148 12.9403 22.4873 12.851 22.2515 12.8506C21.6143 12.8388 20.9863 12.9996 20.4406 13.3149L20.5156 13.4448ZM20.5156 13.4448C20.2089 13.6214 19.8573 13.7147 19.4988 13.7147C19.1404 13.7147 18.7887 13.6214 18.482 13.4448C17.9597 13.143 17.358 12.989 16.7473 13.0006L20.5156 13.4448Z" fill="white" stroke="#001229" stroke-width="0.3"/>
<path d="M20.5156 10.5883L20.4408 10.4583C20.1571 10.6216 19.8313 10.7083 19.4988 10.7083C19.1663 10.7083 18.8406 10.6217 18.5569 10.4584C18.0115 10.1433 17.384 9.98252 16.7472 9.99414C16.1108 9.98255 15.4836 10.1434 14.9385 10.4585L14.9385 10.4584L14.9347 10.4608C14.6585 10.6318 14.3332 10.7184 14.0027 10.7083L14.0027 10.7081L13.9936 10.7083C13.6629 10.7184 13.3375 10.6318 13.0612 10.4608L13.0612 10.4607L13.0573 10.4585C12.512 10.1434 11.8845 9.98257 11.2479 9.99414C10.6114 9.98262 9.98403 10.1434 9.43883 10.4585L9.43879 10.4584L9.43492 10.4608C9.15887 10.6317 8.8337 10.7184 8.5033 10.7083L8.50331 10.7081L8.49421 10.7083C8.16393 10.7183 7.8389 10.6317 7.56297 10.4608L7.56301 10.4608L7.55904 10.4585C7.01341 10.1432 6.38555 9.98241 5.74854 9.99417C5.51268 9.99454 5.28517 10.0838 5.11623 10.2447C4.9467 10.4061 4.85 10.6267 4.85 10.8583C4.85 11.0899 4.9467 11.3104 5.11623 11.4719C5.28552 11.6331 5.51361 11.7224 5.75 11.7224V11.7225L5.75456 11.7223C6.08496 11.7123 6.41012 11.7989 6.68616 11.9699L6.68612 11.9699L6.69008 11.9722C7.23507 12.2871 7.86211 12.4479 8.49836 12.4365C9.13488 12.4481 9.76221 12.2873 10.3074 11.9722L10.3075 11.9723L10.3113 11.9699C10.5875 11.7989 10.9128 11.7122 11.2433 11.7223L11.2433 11.7226L11.2525 11.7223C11.5832 11.7122 11.9088 11.7989 12.1852 11.9699L12.1852 11.9699L12.1891 11.9722C12.7342 12.2872 13.3614 12.448 13.9978 12.4365C14.6342 12.4479 15.2614 12.2871 15.8066 11.9723C16.0901 11.809 16.4157 11.7223 16.748 11.7223C17.0803 11.7223 17.4059 11.809 17.6894 11.9723L17.6893 11.9723L17.6917 11.9736C18.2412 12.277 18.8645 12.4365 19.4986 12.4365C20.1328 12.4365 20.7561 12.277 21.3055 11.9736L21.3056 11.9738L21.3119 11.9699C21.5886 11.7988 21.9144 11.7122 22.2454 11.7223L22.2454 11.7224H22.25C22.4864 11.7224 22.7145 11.6331 22.8838 11.4719C23.0533 11.3104 23.15 11.0899 23.15 10.8583C23.15 10.6267 23.0533 10.4061 22.8838 10.2447C22.7148 10.0838 22.4873 9.99454 22.2515 9.99417C21.6143 9.98232 20.9863 10.1431 20.4406 10.4585L20.5156 10.5883ZM20.5156 10.5883C20.2089 10.7649 19.8573 10.8583 19.4988 10.8583C19.1404 10.8583 18.7887 10.7649 18.482 10.5883C17.9597 10.2866 17.358 10.1325 16.7473 10.1442L20.5156 10.5883Z" fill="white" stroke="#001229" stroke-width="0.3"/>
</svg>
