<svg id="Capa_1" data-name="Capa 1" xmlns="http://www.w3.org/2000/svg" xmlns:xlink="http://www.w3.org/1999/xlink" viewBox="0 0 595.28 841.89"><defs><style>.cls-1{fill:#de9584;}.cls-2{clip-path:url(#clip-path);}.cls-3{fill:#de9584;}.cls-4{fill:#de9584;}.cls-5{fill:#9ab5e0;}.cls-6{fill:#fff;}.cls-7{fill:#fbfcfe;}.cls-8{clip-path:url(#clip-path-2);}</style><clipPath id="clip-path"><rect class="cls-1" x="47.96" y="65.47" width="474" height="711"/></clipPath><clipPath id="clip-path-2"><rect class="cls-1" x="163.49" y="187.63" width="252.68" height="215.87"/></clipPath></defs><g class="cls-2"><path class="cls-3" d="M521.88,296.19v7a10.48,10.48,0,0,0,0,7v14a7.87,7.87,0,0,0,0,6v3c-1.37,14.34-3.1,28.59-7.18,42.51a616.5,616.5,0,0,1-23.44,64.66c-8.42,20.09-17.69,39.81-27.56,59.21C441.08,544,416.46,587.3,390.48,629.86Q354.63,688.6,316,745.53c-5.4,8-10.71,16-16.46,23.77-6.25,8.4-22.18,8.44-28.16-.08C241.76,727,213.76,683.81,186.7,640c-22.69-36.78-44.58-74-64.8-112.21-24.29-45.87-46.61-92.62-62.75-142.14-9.14-28.07-11.76-56.68-10.29-86,.8-16,1.74-31.78,5.79-47.32,9.89-37.87,26.77-72.12,51.89-102.28,29.57-35.5,66.09-60.65,110-75a177,177,0,0,1,50.32-8.54c17.45-.51,34.86-.39,52.23.84C337,68.53,354,74.12,370.46,80.77a232.63,232.63,0,0,1,65.6,40.14,248.28,248.28,0,0,1,51.72,62.14,253.89,253.89,0,0,1,31.5,83.53c1.6,8.66,1.37,17.51,2.1,26.26C521.48,294,521,295.18,521.88,296.19Z"/><path class="cls-4" d="M521.88,310.17c-1.36-2.33-1.57-4.66,0-7Z"/><path class="cls-5" d="M521.88,330.13c-1.7-2-1.14-4,0-6Z"/><path class="cls-6" d="M285.56,419.57c-65.06.12-117.9-52.61-118.22-118a118.12,118.12,0,1,1,118.22,118Z"/></g><circle class="cls-7" cx="285.74" cy="321.09" r="170.81"/><g class="cls-8"><path class="cls-3" d="M163.92,394.18v-6.91c2-11.34,9.19-20.21,14.66-29.83,15.5-27.3,31.32-54.44,47-81.62,14.73-25.48,29.61-50.88,44.11-76.48,7.29-12.88,19-12.62,30.44-9.37,4.2,1.2,6.6,5.36,8.75,9.05q11.41,19.6,22.75,39.27,19.5,33.73,39,67.48c13.93,24,27.69,48.18,41.72,72.17a25.42,25.42,0,0,1,3.14,11.31c.6,9-1.07,11.3-9.35,13.82H172.81Q164.86,402.13,163.92,394.18Z"/><path class="cls-6" d="M300,291.13c0,9.2.05,18.39,0,27.59,0,4.63-2,8.24-6.37,10.25a9.77,9.77,0,0,1-10.25-1.15,10.42,10.42,0,0,1-4.37-8.95c-.06-18.72-.14-37.44,0-56.16.06-6.83,4.54-11.16,10.64-11.07s10.2,4.46,10.33,11.41C300.14,272.41,300,281.77,300,291.13Z"/><path class="cls-6" d="M299.93,356.06a10.45,10.45,0,1,1-20.89-.3,10.45,10.45,0,0,1,20.89.3Z"/></g></svg>