<svg width="92" height="138" viewBox="0 0 92 138" fill="none" xmlns="http://www.w3.org/2000/svg">
<path d="M46 0C20.585 0 0 21.9103 0 48.8947C0 72.1312 34.0112 122.9 43.5563 136.68C43.8228 137.086 44.1857 137.419 44.6122 137.649C45.0387 137.879 45.5156 138 46 138C46.4844 138 46.9613 137.879 47.3878 137.649C47.8143 137.419 48.1772 137.086 48.4438 136.68C57.9888 122.9 92 72.1312 92 48.8947C92 21.9103 71.415 0 46 0Z" fill="#4F22D7"/>
<g clip-path="url(#clip0_409_6530)">
<g clip-path="url(#clip1_409_6530)">
<path d="M73.5272 64.4862C69.41 59.4799 66.5032 56.9313 66.5032 43.1294C66.5032 30.4903 60.0068 25.9874 54.6599 23.8004C53.9496 23.5105 53.281 22.8447 53.0646 22.1199C52.1267 18.9486 49.4973 16.1548 46.0022 16.1548C42.5071 16.1548 39.8761 18.9502 38.9478 22.1231C38.7314 22.8558 38.0628 23.5105 37.3526 23.8004C31.9992 25.9905 25.5092 30.4776 25.5092 43.1294C25.5012 56.9313 22.5944 59.4799 18.4772 64.4862C16.7714 66.56 18.2656 69.674 21.2493 69.674H70.7711C73.7388 69.674 75.2234 66.5505 73.5272 64.4862ZM56.2631 69.674V72.2225C56.2631 74.9262 55.1821 77.5191 53.2578 79.4309C51.3335 81.3427 48.7236 82.4167 46.0022 82.4167C43.2808 82.4167 40.6709 81.3427 38.7466 79.4309C36.8223 77.5191 35.7413 74.9262 35.7413 72.2225V69.674" fill="white"/>
<path d="M56.2631 69.674V72.2225C56.2631 74.9262 55.1821 77.5191 53.2578 79.4309C51.3335 81.3427 48.7236 82.4167 46.0022 82.4167C43.2808 82.4167 40.6709 81.3427 38.7466 79.4309C36.8223 77.5191 35.7413 74.9262 35.7413 72.2225V69.674M73.5272 64.4862C69.41 59.4799 66.5032 56.9313 66.5032 43.1294C66.5032 30.4903 60.0068 25.9874 54.6599 23.8004C53.9496 23.5105 53.281 22.8447 53.0646 22.1199C52.1267 18.9486 49.4973 16.1548 46.0022 16.1548C42.5071 16.1548 39.8761 18.9502 38.9478 22.1231C38.7314 22.8558 38.0628 23.5105 37.3526 23.8004C31.9992 25.9905 25.5092 30.4776 25.5092 43.1294C25.5012 56.9313 22.5944 59.4799 18.4772 64.4862C16.7714 66.56 18.2656 69.674 21.2493 69.674H70.7711C73.7388 69.674 75.2234 66.5505 73.5272 64.4862Z" stroke="#4F22D7" stroke-linecap="round" stroke-linejoin="round"/>
</g>
</g>
<defs>
<clipPath id="clip0_409_6530">
<rect width="56.483" height="66.2619" fill="white" transform="translate(17.7588 16.1548)"/>
</clipPath>
<clipPath id="clip1_409_6530">
<rect width="59.4558" height="66.9312" fill="white" transform="translate(14.7861 15.8203)"/>
</clipPath>
</defs>
</svg>
