<svg width="51" height="61" viewBox="0 0 51 61" fill="none" xmlns="http://www.w3.org/2000/svg">
<path d="M50.3547 43.8318C46.6372 39.2916 44.0127 36.9804 44.0127 24.4634C44.0127 13.0009 38.1468 8.91718 33.319 6.93382C32.6777 6.67091 32.074 6.06709 31.8786 5.40982C31.0317 2.53373 28.6576 0 25.5017 0C22.3459 0 19.9703 2.53518 19.1321 5.41271C18.9367 6.0772 18.333 6.67091 17.6917 6.93382C12.8581 8.92007 6.99804 12.9894 6.99804 24.4634C6.99081 36.9804 4.36624 39.2916 0.648713 43.8318C-0.891571 45.7126 0.457626 48.5367 3.15168 48.5367H47.8663C50.5458 48.5367 51.8863 45.704 50.3547 43.8318ZM34.7666 49.4436V51.7549C34.7666 54.2069 33.7905 56.5584 32.053 58.2922C30.3155 60.026 27.9589 61 25.5017 61C23.0445 61 20.688 60.026 18.9505 58.2922C17.213 56.5584 16.2369 54.2069 16.2369 51.7549V49.4436" fill="#00214d"/>
</svg>
