<svg width="14" height="18" viewBox="0 0 14 18" fill="none" xmlns="http://www.w3.org/2000/svg">
<path d="M5.23828 17.0625H1.52344L1.54688 14.3203H5.23828C6.16016 14.3203 6.9375 14.1133 7.57031 13.6992C8.20312 13.2773 8.67969 12.6641 9 11.8594C9.32812 11.0547 9.49219 10.082 9.49219 8.94141V8.10938C9.49219 7.23438 9.39844 6.46484 9.21094 5.80078C9.03125 5.13672 8.76172 4.57812 8.40234 4.125C8.04297 3.67188 7.60156 3.33203 7.07812 3.10547C6.55469 2.87109 5.95312 2.75391 5.27344 2.75391H1.45312V0H5.27344C6.41406 0 7.45703 0.195312 8.40234 0.585938C9.35547 0.96875 10.1797 1.51953 10.875 2.23828C11.5703 2.95703 12.1055 3.81641 12.4805 4.81641C12.8633 5.80859 13.0547 6.91406 13.0547 8.13281V8.94141C13.0547 10.1523 12.8633 11.2578 12.4805 12.2578C12.1055 13.2578 11.5703 14.1172 10.875 14.8359C10.1875 15.5469 9.36328 16.0977 8.40234 16.4883C7.44922 16.8711 6.39453 17.0625 5.23828 17.0625ZM3.51562 0V17.0625H0V0H3.51562Z" fill="#fff"/>
</svg>
