<svg width="28" height="42" viewBox="0 0 28 42" fill="none" xmlns="http://www.w3.org/2000/svg">
<path d="M14 0C6.265 0 0 6.66836 0 14.881C0 21.953 10.3512 37.4043 13.2562 41.5983C13.3374 41.7218 13.4478 41.8231 13.5776 41.8932C13.7074 41.9633 13.8526 42 14 42C14.1474 42 14.2926 41.9633 14.4224 41.8932C14.5522 41.8231 14.6626 41.7218 14.7438 41.5983C17.6488 37.4043 28 21.953 28 14.881C28 6.66836 21.735 0 14 0Z" fill="var(--ion-color-ibf-no-alert-primary)"/>
<path d="M13.2383 24.0625H9.52344L9.54688 21.3203H13.2383C14.1602 21.3203 14.9375 21.1133 15.5703 20.6992C16.2031 20.2773 16.6797 19.6641 17 18.8594C17.3281 18.0547 17.4922 17.082 17.4922 15.9414V15.1094C17.4922 14.2344 17.3984 13.4648 17.2109 12.8008C17.0312 12.1367 16.7617 11.5781 16.4023 11.125C16.043 10.6719 15.6016 10.332 15.0781 10.1055C14.5547 9.87109 13.9531 9.75391 13.2734 9.75391H9.45312V7H13.2734C14.4141 7 15.457 7.19531 16.4023 7.58594C17.3555 7.96875 18.1797 8.51953 18.875 9.23828C19.5703 9.95703 20.1055 10.8164 20.4805 11.8164C20.8633 12.8086 21.0547 13.9141 21.0547 15.1328V15.9414C21.0547 17.1523 20.8633 18.2578 20.4805 19.2578C20.1055 20.2578 19.5703 21.1172 18.875 21.8359C18.1875 22.5469 17.3633 23.0977 16.4023 23.4883C15.4492 23.8711 14.3945 24.0625 13.2383 24.0625ZM11.5156 7V24.0625H8V7H11.5156Z" fill="white"/>
</svg>
