<svg width="32" height="49" viewBox="0 0 32 49" fill="none" xmlns="http://www.w3.org/2000/svg">
<path d="M16 0.132809C7.16 0.132809 0 7.7538 0 17.1396C0 25.2219 11.83 42.8805 15.15 47.6737C15.2427 47.8148 15.3689 47.9306 15.5173 48.0107C15.6656 48.0909 15.8315 48.1328 16 48.1328C16.1685 48.1328 16.3344 48.0909 16.4827 48.0107C16.6311 47.9306 16.7573 47.8148 16.85 47.6737C20.17 42.8805 32 25.2219 32 17.1396C32 7.7538 24.84 0.132809 16 0.132809ZM16 24.0687C14.4177 24.0687 12.871 23.5982 11.5554 22.7168C10.2398 21.8353 9.21447 20.5824 8.60896 19.1166C8.00346 17.6507 7.84504 16.0377 8.15372 14.4816C8.4624 12.9255 9.22433 11.4961 10.3431 10.3742C11.462 9.25225 12.8874 8.48822 14.4393 8.17869C15.9911 7.86915 17.5997 8.02802 19.0615 8.63519C20.5233 9.24236 21.7727 10.2706 22.6518 11.5898C23.5308 12.909 24 14.46 24 16.0466C24.0003 17.1002 23.7935 18.1435 23.3916 19.1169C22.9896 20.0903 22.4004 20.9747 21.6574 21.7197C20.9145 22.4647 20.0325 23.0556 19.0618 23.4586C18.0911 23.8617 17.0506 24.069 16 24.0687Z" fill="#96ADB3"/>
<circle cx="16" cy="16" r="12" fill="url(#paint0_linear)"/>
<path d="M12.7632 20.2197C13.1792 19.9672 13.6585 19.8383 14.1451 19.848C14.3036 19.848 14.4556 19.911 14.5677 20.023C14.6798 20.1351 14.7428 20.2871 14.7428 20.4456C14.7428 20.6041 14.6798 20.7561 14.5677 20.8682C14.4556 20.9803 14.3036 21.0432 14.1451 21.0432C13.8583 21.034 13.5755 21.1128 13.3348 21.2691C12.9149 21.5126 12.4382 21.6408 11.9528 21.6408C11.4674 21.6408 10.9907 21.5126 10.5708 21.2691C10.3266 21.1213 10.0465 21.0432 9.76105 21.0432C9.47556 21.0432 9.19552 21.1213 8.95128 21.2691C8.53525 21.5214 8.05608 21.6504 7.5696 21.6408C7.08321 21.6504 6.60412 21.5215 6.18822 21.2691C5.95923 20.8637 5.7531 20.0862 6.76043 20.2197C7.00084 20.3759 7.28334 20.4548 7.5699 20.4456C7.85637 20.4548 8.13878 20.376 8.37907 20.2197C8.79492 19.9672 9.27404 19.8383 9.76045 19.848C10.2471 19.8383 10.7266 19.9672 11.1427 20.2197C11.3872 20.3675 11.6673 20.4456 11.9529 20.4456C12.2386 20.4456 12.5187 20.3675 12.7632 20.2197Z" fill="#96ADB3"/>
<path d="M12.7632 17.8293C13.1792 17.5768 13.6585 17.4478 14.1451 17.4575C14.3036 17.4575 14.4556 17.5205 14.5677 17.6326C14.6798 17.7447 14.7428 17.8967 14.7428 18.0552C14.7428 18.2137 14.6798 18.3657 14.5677 18.4777C14.4556 18.5898 14.3036 18.6528 14.1451 18.6528C13.8583 18.6435 13.5755 18.7224 13.3348 18.8787C12.9149 19.1221 12.4382 19.2504 11.9528 19.2504C11.4674 19.2504 10.9907 19.1221 10.5708 18.8787C10.3266 18.7309 10.0465 18.6527 9.76105 18.6527C9.47556 18.6527 9.19552 18.7309 8.95128 18.8787C8.53525 19.131 8.05608 19.2599 7.5696 19.2504C7.08321 19.26 6.18822 18.8787 6.18822 18.8787C5.95923 18.5944 5.7531 17.9866 6.76043 17.8293C7.00084 17.9855 7.28334 18.0643 7.5699 18.0552C7.85637 18.0643 8.13878 17.9855 8.37907 17.8293C8.79492 17.5768 9.27404 17.4478 9.76045 17.4575C10.2471 17.4478 10.7266 17.5767 11.1427 17.8293C11.3872 17.977 11.6673 18.0551 11.9529 18.0551C12.2386 18.0551 12.5187 17.977 12.7632 17.8293Z" fill="#96ADB3"/>
<path d="M12.7632 15.4404C13.1792 15.1879 13.6585 15.059 14.1451 15.0687C14.3036 15.0687 14.4556 15.1317 14.5677 15.2437C14.6798 15.3558 14.7428 15.5078 14.7428 15.6663C14.7428 15.8248 14.6798 15.9768 14.5677 16.0889C14.4556 16.201 14.3036 16.2639 14.1451 16.2639C13.8583 16.2547 13.5755 16.3335 13.3348 16.4898C12.9149 16.7333 12.4382 16.8615 11.9528 16.8615C11.4674 16.8615 10.9907 16.7333 10.5708 16.4898C10.3266 16.342 10.0465 16.2639 9.76105 16.2639C9.47556 16.2639 9.19552 16.342 8.95128 16.4898C8.53525 16.7421 8.05608 16.8711 7.5696 16.8615C7.08321 16.8711 6.60412 16.7422 6.18822 16.4898C5.95923 16.0844 5.7531 15.3069 6.76043 15.4404C7.00084 15.5966 7.28334 15.6755 7.5699 15.6663C7.85637 15.6755 8.13878 15.5967 8.37907 15.4404C8.79492 15.1879 9.27404 15.059 9.76045 15.0687C10.2471 15.059 10.7266 15.1879 11.1427 15.4404C11.3872 15.5882 11.6673 15.6663 11.9529 15.6663C12.2386 15.6663 12.5187 15.5882 12.7632 15.4404Z" fill="#96ADB3"/>
<path d="M12.7632 13.05C13.1792 12.7975 13.6585 12.6685 14.1451 12.6782C14.3036 12.6782 14.4556 12.7412 14.5677 12.8533C14.6798 12.9654 14.7428 13.1174 14.7428 13.2759C14.7428 13.4344 14.6798 13.5864 14.5677 13.6984C14.4556 13.8105 14.3036 13.8735 14.1451 13.8735C13.8583 13.8642 13.5755 13.9431 13.3348 14.0994C12.9149 14.3428 12.4382 14.4711 11.9528 14.4711C11.4674 14.4711 10.9907 14.3428 10.5708 14.0994C10.3266 13.9516 10.0465 13.8734 9.76105 13.8734C9.47556 13.8734 9.19552 13.9516 8.95128 14.0994C8.53525 14.3517 8.05608 14.4806 7.5696 14.4711C7.08321 14.4807 6.18822 14.0994 6.18822 14.0994C5.95923 13.8151 5.7531 13.2073 6.76043 13.05C7.00084 13.2062 7.28334 13.285 7.5699 13.2759C7.85637 13.285 8.13878 13.2062 8.37907 13.05C8.79492 12.7975 9.27404 12.6685 9.76045 12.6782C10.2471 12.6685 10.7266 12.7974 11.1427 13.05C11.3872 13.1977 11.6673 13.2758 11.9529 13.2758C12.2386 13.2758 12.5187 13.1977 12.7632 13.05Z" fill="#96ADB3"/>
<path d="M24.0204 20.2197C24.4365 19.9672 24.9158 19.8383 25.4024 19.848C25.5609 19.848 25.7129 19.911 25.825 20.023C25.937 20.1351 26 20.2871 26 20.4456C26 20.6041 25.937 20.7561 25.825 20.8682C25.7129 20.9803 25.5609 21.0432 25.4024 21.0432C25.1155 21.034 24.8327 21.1128 24.592 21.2691C24.1721 21.5126 23.6954 21.6408 23.21 21.6408C22.7247 21.6408 22.2479 21.5126 21.8281 21.2691C21.5838 21.1213 21.3038 21.0432 21.0183 21.0432C20.5707 21.0432 20.5695 20.2957 21.0183 19.9969C21.3773 19.7578 22.089 20.0458 22.4 20.2197C22.6444 20.3675 22.9246 20.4456 23.2102 20.4456C23.4958 20.4456 23.776 20.3675 24.0204 20.2197Z" fill="#96ADB3"/>
<path d="M24.0204 17.8293C24.4365 17.5768 24.9158 17.4478 25.4024 17.4575C25.5609 17.4575 25.7129 17.5205 25.825 17.6326C25.937 17.7447 26 17.8967 26 18.0552C26 18.2137 25.937 18.3657 25.825 18.4777C25.7129 18.5898 25.5609 18.6528 25.4024 18.6528C25.1155 18.6435 24.8327 18.7224 24.592 18.8787C24.1721 19.1221 23.6954 19.2504 23.21 19.2504C22.7247 19.2504 22.2479 19.1221 21.8281 18.8787C21.5838 18.7309 21.3038 18.6527 21.0183 18.6527C20.4213 18.6532 20.5695 17.8293 21.0183 17.6064C21.3773 17.4282 22.089 17.6807 22.4 17.8293C22.6444 17.977 22.9246 18.0551 23.2102 18.0551C23.4958 18.0551 23.776 17.977 24.0204 17.8293Z" fill="#96ADB3"/>
<path d="M15.6392 21.6415V7H18.6396L19.8225 21.6415H15.6392Z" fill="#96ADB3"/>
<defs>
<linearGradient id="paint0_linear" x1="16" y1="4" x2="16" y2="28" gradientUnits="userSpaceOnUse">
<stop offset="0.9995" stop-color="white"/>
<stop offset="0.9996" stop-color="white" stop-opacity="0.814583"/>
<stop offset="0.9997" stop-color="white" stop-opacity="0.992595"/>
<stop offset="0.9998" stop-color="white" stop-opacity="0.996734"/>
<stop offset="0.9999" stop-color="white"/>
<stop offset="1" stop-color="white" stop-opacity="0"/>
<stop offset="1" stop-color="white" stop-opacity="0"/>
<stop offset="1" stop-color="white" stop-opacity="0"/>
</linearGradient>
</defs>
</svg>
