<svg width="20" height="22" viewBox="0 0 20 22" fill="none" xmlns="http://www.w3.org/2000/svg">
<path fill-rule="evenodd" clip-rule="evenodd" d="M10.3322 1.1204C10.2407 1.04284 10.1225 1 10.0001 1C9.87777 1 9.75965 1.04284 9.66814 1.1204L1.164 8.49391C1.11239 8.53862 1.07113 8.59313 1.04289 8.65396C1.01465 8.71478 1.00004 8.78057 1 8.8471V22H19.0003V8.84758C19.0003 8.78105 18.9856 8.71526 18.9574 8.65443C18.9292 8.59361 18.8879 8.5391 18.8363 8.49439L10.3322 1.1204ZM6.97102 13.4483L8.77629 15.1715L8.77629 6.42656C8.78187 6.12028 8.91325 5.82834 9.14213 5.61363C9.37101 5.39891 9.67909 5.2786 10 5.2786C10.3209 5.2786 10.629 5.39891 10.8579 5.61363C11.0868 5.82834 11.2181 6.12028 11.2237 6.42656L11.2237 15.1715L13.029 13.4483C13.2585 13.2292 13.5698 13.1061 13.8944 13.1061C14.219 13.1061 14.5303 13.2292 14.7598 13.4483C14.9894 13.6674 15.1183 13.9645 15.1183 14.2744C15.1183 14.5842 14.9894 14.8814 14.7598 15.1005L10.8654 18.8178C10.6359 19.0369 10.3246 19.16 10 19.16C9.6754 19.16 9.3641 19.0369 9.13458 18.8178L5.24017 15.1005C5.01065 14.8814 4.8817 14.5842 4.8817 14.2744C4.8817 13.9645 5.01065 13.6674 5.24017 13.4483C5.4697 13.2292 5.781 13.1061 6.1056 13.1061C6.43019 13.1061 6.74149 13.2292 6.97102 13.4483Z" fill="#00214d"/>
</svg>
