<svg width="29" height="44" viewBox="-1 -1 31 46" fill="none" xmlns="http://www.w3.org/2000/svg">
  <path d="M14 0C6.265 0 0 6.66836 0 14.881C0 21.953 10.3512 37.4043 13.2562 41.5983C13.3374 41.7218 13.4478 41.8231 13.5776 41.8932C13.7074 41.9633 13.8526 42 14 42C14.1474 42 14.2926 41.9633 14.4224 41.8932C14.5522 41.8231 14.6626 41.7218 14.7438 41.5983C17.6488 37.4043 28 21.953 28 14.881C28 6.66836 21.735 0 14 0Z" stroke-width="1" stroke-linejoin="round" stroke="#00214d" fill="#0e357b"></path>
  <path fill-rule="evenodd" clip-rule="evenodd" d="M 14.277 4.032 C 14.201 3.967 14.102 3.931 14.001 3.931 C 13.899 3.931 13.801 3.967 13.724 4.032 L 6.644 10.171 C 6.6 10.208 6.566 10.254 6.543 10.304 C 6.519 10.355 6.507 10.41 6.507 10.465 L 6.507 21.416 L 21.494 21.416 L 21.494 10.465 C 21.494 10.41 21.482 10.355 21.458 10.305 C 21.435 10.254 21.401 10.209 21.358 10.171 L 14.277 4.032 Z M 11.479 14.296 L 12.981 15.731 L 12.981 8.45 C 12.986 8.195 13.095 7.952 13.286 7.773 C 13.477 7.594 13.733 7.494 14.001 7.494 C 14.268 7.494 14.524 7.594 14.715 7.773 C 14.906 7.952 15.015 8.195 15.02 8.45 L 15.02 15.731 L 16.523 14.296 C 16.713 14.114 16.973 14.011 17.243 14.011 C 17.513 14.011 17.772 14.114 17.964 14.296 C 18.154 14.479 18.262 14.726 18.262 14.984 C 18.262 15.242 18.154 15.489 17.964 15.672 L 14.721 18.767 C 14.53 18.949 14.271 19.051 14.001 19.051 C 13.73 19.051 13.471 18.949 13.28 18.767 L 10.037 15.672 C 9.847 15.489 9.739 15.242 9.739 14.984 C 9.739 14.726 9.847 14.479 10.037 14.296 C 10.229 14.114 10.488 14.011 10.758 14.011 C 11.028 14.011 11.287 14.114 11.479 14.296 Z" fill="#fff" style=""></path>
</svg>

