<svg id="Capa_1" data-name="Capa 1" xmlns="http://www.w3.org/2000/svg" xmlns:xlink="http://www.w3.org/1999/xlink" viewBox="0 0 595.28 841.89"><defs><style>.cls-1{fill:none;}.cls-2{clip-path:url(#clip-path);}.cls-3{fill:#13181d;}.cls-4{fill:#13181d;}.cls-5{fill:#13181d;}.cls-6{fill:#fff;}</style><clipPath id="clip-path"><rect class="cls-1" x="60.7" y="65.47" width="474" height="711"/></clipPath></defs><g class="cls-2"><path class="cls-3" d="M534.61,296.19v7a10.6,10.6,0,0,0,0,7v14a7.87,7.87,0,0,0,0,6v3c-1.36,14.34-3.09,28.59-7.17,42.51A618.77,618.77,0,0,1,504,440.3c-8.42,20.09-17.69,39.81-27.56,59.21C453.82,544,429.2,587.3,403.22,629.86q-35.85,58.74-74.49,115.67c-5.41,8-10.71,16-16.46,23.77-6.25,8.4-22.18,8.44-28.17-.08C254.5,727,226.5,683.81,199.44,640c-22.69-36.78-44.58-74-64.8-112.21C110.35,481.88,88,435.13,71.89,385.61c-9.15-28.07-11.76-56.68-10.29-86,.8-16,1.74-31.78,5.79-47.32,9.89-37.87,26.76-72.12,51.89-102.28,29.57-35.5,66.09-60.65,110-75a177,177,0,0,1,50.32-8.54c17.45-.51,34.86-.39,52.23.84,17.89,1.27,34.84,6.86,51.35,13.51a232.91,232.91,0,0,1,65.6,40.14,248.49,248.49,0,0,1,51.72,62.14A253.89,253.89,0,0,1,532,266.58c1.6,8.66,1.37,17.51,2.1,26.26C534.22,294,533.76,295.18,534.61,296.19Z"/><path class="cls-4" d="M534.61,310.17c-1.35-2.33-1.56-4.66,0-7Z"/><path class="cls-5" d="M534.61,330.13c-1.69-2-1.13-4,0-6Z"/><path class="cls-6" d="M298.3,419.57c-65.06.12-117.9-52.61-118.22-118a118.12,118.12,0,1,1,118.22,118Z"/></g></svg>