<svg width="28" height="43" viewBox="0 0 28 43" fill="none" xmlns="http://www.w3.org/2000/svg">
<path d="M13.4234 42.4885L13.4234 42.4884L13.4207 42.4844C11.9696 40.3895 8.65968 35.4842 5.71326 30.2212C4.23997 27.5895 2.85963 24.8721 1.84815 22.3742C0.834579 19.8712 0.2 17.609 0.2 15.881C0.2 7.76707 6.38686 1.2 14 1.2C21.6131 1.2 27.8 7.76707 27.8 15.881C27.8 17.609 27.1654 19.8712 26.1518 22.3742C25.1404 24.8721 23.76 27.5895 22.2867 30.2212C19.3403 35.4842 16.0304 40.3895 14.5793 42.4844L14.5793 42.4844L14.5766 42.4885C14.5136 42.5843 14.428 42.6629 14.3273 42.7172C14.2267 42.7716 14.1142 42.8 14 42.8C13.8858 42.8 13.7733 42.7716 13.6727 42.7172C13.572 42.6629 13.4864 42.5843 13.4234 42.4885Z" fill="#FFFF01" stroke="#B59700" stroke-width="0.4"/>
<path d="M5.29328 18.7851L5.29311 18.7854C5.23205 18.8882 5.20007 19.0045 5.2 19.1225C5.19993 19.2406 5.23177 19.3569 5.29272 19.4597C5.35369 19.5626 5.44178 19.6487 5.5486 19.7086C5.65546 19.7686 5.77702 19.8003 5.90098 19.8L5.90139 19.8L22.0986 19.8H22.099C22.223 19.8003 22.3445 19.7686 22.4514 19.7086C22.5582 19.6487 22.6463 19.5626 22.7073 19.4597C22.7682 19.3569 22.8001 19.2406 22.8 19.1225C22.7999 19.0045 22.768 18.8882 22.7069 18.7854L22.8786 18.6834L22.7067 18.7851L14.9983 5.76039L5.29328 18.7851ZM5.29328 18.7851L13.0017 5.76039C13.0017 5.76034 13.0017 5.76029 13.0018 5.76024C13.1024 5.59068 13.2473 5.44927 13.4225 5.35071C13.5978 5.2521 13.797 5.2 14 5.2C14.203 5.2 14.4022 5.2521 14.5775 5.35071C14.7527 5.44927 14.8976 5.59068 14.9982 5.76024L5.29328 18.7851ZM14.9502 16.7087V16.7081C14.9502 16.5227 14.8938 16.342 14.7888 16.1887C14.6838 16.0354 14.535 15.9167 14.362 15.8468C14.189 15.777 13.9989 15.7587 13.8156 15.7943C13.6322 15.8299 13.4631 15.9178 13.3299 16.0477C13.1966 16.1776 13.1053 16.3438 13.0682 16.5254C13.0312 16.7071 13.0502 16.8954 13.1228 17.0663C13.1954 17.237 13.3179 17.3822 13.474 17.4839C13.6301 17.5857 13.8132 17.6396 14 17.6396V17.4396L14.0006 17.6396C14.2506 17.6389 14.4912 17.5418 14.6695 17.3679C14.8479 17.1939 14.9495 16.957 14.9502 16.7087ZM14.6701 14.8082C14.8488 14.6339 14.9502 14.3965 14.9502 14.1478V10.1244C14.9502 9.87565 14.8488 9.63818 14.6701 9.4639C14.4915 9.28978 14.2504 9.19283 14 9.19283C13.7496 9.19283 13.5085 9.28978 13.3299 9.4639C13.1512 9.63818 13.0498 9.87565 13.0498 10.1244V14.1478C13.0498 14.3965 13.1512 14.6339 13.3299 14.8082C13.5085 14.9823 13.7496 15.0793 14 15.0793C14.2504 15.0793 14.4915 14.9823 14.6701 14.8082Z" fill="white" stroke="#B59700" stroke-width="0.4"/>
</svg>
