<svg width="28" height="43" viewBox="0 0 28 43" fill="none" xmlns="http://www.w3.org/2000/svg">
<path d="M14 1C6.265 1 0 7.66836 0 15.881C0 22.953 10.3512 38.4043 13.2562 42.5983C13.3374 42.7218 13.4478 42.8231 13.5776 42.8932C13.7074 42.9633 13.8526 43 14 43C14.1474 43 14.2926 42.9633 14.4224 42.8932C14.5522 42.8231 14.6626 42.7218 14.7438 42.5983C17.6488 38.4043 28 22.953 28 15.881C28 7.66836 21.735 1 14 1Z" fill="var(--ion-color-ibf-trigger-alert-primary)"/>
<path d="M22.8788 18.6832L15.1703 5.65838C15.0516 5.45818 14.881 5.29196 14.6756 5.1764C14.4701 5.06083 14.2372 5 14 5C13.7628 5 13.5299 5.06083 13.3244 5.1764C13.119 5.29196 12.9484 5.45818 12.8297 5.65838L5.12116 18.6832C5.04188 18.8167 5.00009 18.9682 5 19.1224C4.99991 19.2766 5.04153 19.4282 5.12066 19.5617C5.19978 19.6952 5.31362 19.8061 5.45069 19.883C5.58777 19.96 5.74322 20.0003 5.90139 20H22.0986C22.2568 20.0003 22.4122 19.96 22.5493 19.883C22.6864 19.8061 22.8002 19.6952 22.8793 19.5617C22.9585 19.4282 23.0001 19.2766 23 19.1224C22.9999 18.9682 22.9581 18.8167 22.8788 18.6832V18.6832ZM14 17.4396C13.8516 17.4396 13.7066 17.3967 13.5832 17.3164C13.4598 17.236 13.3637 17.1217 13.3069 16.9881C13.2501 16.8544 13.2352 16.7073 13.2642 16.5654C13.2931 16.4235 13.3646 16.2932 13.4695 16.1909C13.5744 16.0885 13.7081 16.0189 13.8536 15.9906C13.9992 15.9624 14.15 15.9769 14.2871 16.0323C14.4242 16.0876 14.5413 16.1814 14.6238 16.3017C14.7062 16.422 14.7502 16.5634 14.7502 16.7081C14.7496 16.902 14.6704 17.0877 14.5298 17.2247C14.3893 17.3618 14.1988 17.4391 14 17.4396V17.4396ZM14.7502 14.1478C14.7502 14.3418 14.6712 14.5278 14.5305 14.665C14.3898 14.8022 14.199 14.8793 14 14.8793C13.801 14.8793 13.6102 14.8022 13.4695 14.665C13.3288 14.5278 13.2498 14.3418 13.2498 14.1478V10.1244C13.2498 9.93035 13.3288 9.74428 13.4695 9.60709C13.6102 9.4699 13.801 9.39283 14 9.39283C14.199 9.39283 14.3898 9.4699 14.5305 9.60709C14.6712 9.74428 14.7502 9.93035 14.7502 10.1244V14.1478Z" fill="white"/>
</svg>
