<svg width="28" height="42" viewBox="0 0 28 42" fill="none" xmlns="http://www.w3.org/2000/svg">
<path d="M14 0C6.265 0 0 6.66836 0 14.881C0 21.953 10.3512 37.4043 13.2562 41.5983C13.3374 41.7218 13.4478 41.8231 13.5776 41.8932C13.7074 41.9633 13.8526 42 14 42C14.1474 42 14.2926 41.9633 14.4224 41.8932C14.5522 41.8231 14.6626 41.7218 14.7438 41.5983C17.6488 37.4043 28 21.953 28 14.881C28 6.66836 21.735 0 14 0Z" fill="#00214d"/>
<path d="M18.3789 13.9492V16.6914H9.47266V13.9492H18.3789ZM10.5156 7V24.0625H7V7H10.5156ZM20.8867 7V24.0625H17.3828V7H20.8867Z" fill="white"/>
</svg>
