<svg width="28" height="42" viewBox="0 0 28 42" fill="none" xmlns="http://www.w3.org/2000/svg">
<path d="M14 0C6.265 0 0 6.66836 0 14.881C0 21.953 10.3512 37.4043 13.2562 41.5983C13.3374 41.7218 13.4478 41.8231 13.5776 41.8932C13.7074 41.9633 13.8526 42 14 42C14.1474 42 14.2926 41.9633 14.4224 41.8932C14.5522 41.8231 14.6626 41.7218 14.7438 41.5983C17.6488 37.4043 28 21.953 28 14.881C28 6.66836 21.735 0 14 0ZM14 20.9439C12.6155 20.9439 11.2622 20.5323 10.111 19.761C8.95986 18.9897 8.06266 17.8934 7.53284 16.6108C7.00303 15.3282 6.86441 13.9168 7.1345 12.5552C7.4046 11.1936 8.07128 9.94285 9.05025 8.96118C10.0292 7.97951 11.2765 7.31098 12.6344 7.04014C13.9922 6.7693 15.3997 6.90831 16.6788 7.43958C17.9579 7.97086 19.0511 8.87054 19.8203 10.0249C20.5895 11.1792 21 12.5363 21 13.9246C21.0002 14.8465 20.8193 15.7593 20.4676 16.6111C20.1159 17.4628 19.6003 18.2367 18.9503 18.8885C18.3002 19.5404 17.5284 20.0574 16.6791 20.4101C15.8297 20.7628 14.9193 20.9442 14 20.9439V20.9439Z" fill="var(--ion-color-ibf-no-alert-primary)"/>
<circle cx="14" cy="14" r="11" fill="white"/>
<rect x="11.7142" y="6" width="4.57143" height="16" rx="1" fill="#F5333F"/>
<rect x="6" y="16.2856" width="4.57143" height="16" rx="1" transform="rotate(-90 6 16.2856)" fill="#F5333F"/>
</svg>
