<svg width="14" height="18" viewBox="0 0 14 18" fill="none" xmlns="http://www.w3.org/2000/svg">
<path d="M9.59766 12.832C9.59766 12.5273 9.55078 12.2539 9.45703 12.0117C9.37109 11.7617 9.20703 11.5352 8.96484 11.332C8.72266 11.1211 8.38281 10.9141 7.94531 10.7109C7.50781 10.5078 6.94141 10.2969 6.24609 10.0781C5.47266 9.82812 4.73828 9.54688 4.04297 9.23438C3.35547 8.92188 2.74609 8.55859 2.21484 8.14453C1.69141 7.72266 1.27734 7.23438 0.972656 6.67969C0.675781 6.125 0.527344 5.48047 0.527344 4.74609C0.527344 4.03516 0.683594 3.39062 0.996094 2.8125C1.30859 2.22656 1.74609 1.72656 2.30859 1.3125C2.87109 0.890625 3.53516 0.566406 4.30078 0.339844C5.07422 0.113281 5.92188 0 6.84375 0C8.10156 0 9.19922 0.226562 10.1367 0.679688C11.0742 1.13281 11.8008 1.75391 12.3164 2.54297C12.8398 3.33203 13.1016 4.23438 13.1016 5.25H9.60938C9.60938 4.75 9.50391 4.3125 9.29297 3.9375C9.08984 3.55469 8.77734 3.25391 8.35547 3.03516C7.94141 2.81641 7.41797 2.70703 6.78516 2.70703C6.17578 2.70703 5.66797 2.80078 5.26172 2.98828C4.85547 3.16797 4.55078 3.41406 4.34766 3.72656C4.14453 4.03125 4.04297 4.375 4.04297 4.75781C4.04297 5.04688 4.11328 5.30859 4.25391 5.54297C4.40234 5.77734 4.62109 5.99609 4.91016 6.19922C5.19922 6.40234 5.55469 6.59375 5.97656 6.77344C6.39844 6.95312 6.88672 7.12891 7.44141 7.30078C8.37109 7.58203 9.1875 7.89844 9.89062 8.25C10.6016 8.60156 11.1953 8.99609 11.6719 9.43359C12.1484 9.87109 12.5078 10.3672 12.75 10.9219C12.9922 11.4766 13.1133 12.1055 13.1133 12.8086C13.1133 13.5508 12.9688 14.2148 12.6797 14.8008C12.3906 15.3867 11.9727 15.8828 11.4258 16.2891C10.8789 16.6953 10.2266 17.0039 9.46875 17.2148C8.71094 17.4258 7.86328 17.5312 6.92578 17.5312C6.08203 17.5312 5.25 17.4219 4.42969 17.2031C3.60938 16.9766 2.86328 16.6367 2.19141 16.1836C1.52734 15.7305 0.996094 15.1523 0.597656 14.4492C0.199219 13.7461 0 12.9141 0 11.9531H3.52734C3.52734 12.4844 3.60938 12.9336 3.77344 13.3008C3.9375 13.668 4.16797 13.9648 4.46484 14.1914C4.76953 14.418 5.12891 14.582 5.54297 14.6836C5.96484 14.7852 6.42578 14.8359 6.92578 14.8359C7.53516 14.8359 8.03516 14.75 8.42578 14.5781C8.82422 14.4062 9.11719 14.168 9.30469 13.8633C9.5 13.5586 9.59766 13.2148 9.59766 12.832Z" fill="#fff"/>
</svg>
