<svg width="29" height="42" viewBox="-1 -1 31 44" fill="none" xmlns="http://www.w3.org/2000/svg">
<path d="M14 0C6.265 0 0 6.66836 0 14.881C0 21.953 10.3512 37.4043 13.2562 41.5983C13.3374 41.7218 13.4478 41.8231 13.5776 41.8932C13.7074 41.9633 13.8526 42 14 42C14.1474 42 14.2926 41.9633 14.4224 41.8932C14.5522 41.8231 14.6626 41.7218 14.7438 41.5983C17.6488 37.4043 28 21.953 28 14.881C28 6.66836 21.735 0 14 0Z" stroke-width="1" stroke-linejoin="round" stroke="#410a1a" fill="#c21e4d"/>
<path d="M16.5977 19.832C16.5977 19.5273 16.5508 19.2539 16.457 19.0117C16.3711 18.7617 16.207 18.5352 15.9648 18.332C15.7227 18.1211 15.3828 17.9141 14.9453 17.7109C14.5078 17.5078 13.9414 17.2969 13.2461 17.0781C12.4727 16.8281 11.7383 16.5469 11.043 16.2344C10.3555 15.9219 9.74609 15.5586 9.21484 15.1445C8.69141 14.7227 8.27734 14.2344 7.97266 13.6797C7.67578 13.125 7.52734 12.4805 7.52734 11.7461C7.52734 11.0352 7.68359 10.3906 7.99609 9.8125C8.30859 9.22656 8.74609 8.72656 9.30859 8.3125C9.87109 7.89062 10.5352 7.56641 11.3008 7.33984C12.0742 7.11328 12.9219 7 13.8438 7C15.1016 7 16.1992 7.22656 17.1367 7.67969C18.0742 8.13281 18.8008 8.75391 19.3164 9.54297C19.8398 10.332 20.1016 11.2344 20.1016 12.25H16.6094C16.6094 11.75 16.5039 11.3125 16.293 10.9375C16.0898 10.5547 15.7773 10.2539 15.3555 10.0352C14.9414 9.81641 14.418 9.70703 13.7852 9.70703C13.1758 9.70703 12.668 9.80078 12.2617 9.98828C11.8555 10.168 11.5508 10.4141 11.3477 10.7266C11.1445 11.0312 11.043 11.375 11.043 11.7578C11.043 12.0469 11.1133 12.3086 11.2539 12.543C11.4023 12.7773 11.6211 12.9961 11.9102 13.1992C12.1992 13.4023 12.5547 13.5938 12.9766 13.7734C13.3984 13.9531 13.8867 14.1289 14.4414 14.3008C15.3711 14.582 16.1875 14.8984 16.8906 15.25C17.6016 15.6016 18.1953 15.9961 18.6719 16.4336C19.1484 16.8711 19.5078 17.3672 19.75 17.9219C19.9922 18.4766 20.1133 19.1055 20.1133 19.8086C20.1133 20.5508 19.9688 21.2148 19.6797 21.8008C19.3906 22.3867 18.9727 22.8828 18.4258 23.2891C17.8789 23.6953 17.2266 24.0039 16.4688 24.2148C15.7109 24.4258 14.8633 24.5312 13.9258 24.5312C13.082 24.5312 12.25 24.4219 11.4297 24.2031C10.6094 23.9766 9.86328 23.6367 9.19141 23.1836C8.52734 22.7305 7.99609 22.1523 7.59766 21.4492C7.19922 20.7461 7 19.9141 7 18.9531H10.5273C10.5273 19.4844 10.6094 19.9336 10.7734 20.3008C10.9375 20.668 11.168 20.9648 11.4648 21.1914C11.7695 21.418 12.1289 21.582 12.543 21.6836C12.9648 21.7852 13.4258 21.8359 13.9258 21.8359C14.5352 21.8359 15.0352 21.75 15.4258 21.5781C15.8242 21.4062 16.1172 21.168 16.3047 20.8633C16.5 20.5586 16.5977 20.2148 16.5977 19.832Z" fill="white"/>
</svg>
