<svg width="24" height="20" viewBox="0 0 24 20" fill="none" xmlns="http://www.w3.org/2000/svg">
<path d="M23.8384 18.2443L13.5605 0.877835C13.4022 0.610907 13.1747 0.389277 12.9008 0.235195C12.6269 0.0811126 12.3162 0 12 0C11.6838 0 11.3731 0.0811126 11.0992 0.235195C10.8253 0.389277 10.5978 0.610907 10.4395 0.877835L0.161552 18.2443C0.0558426 18.4223 0.000119041 18.6242 1.90516e-07 18.8299C-0.00011866 19.0355 0.0553714 19.2375 0.160875 19.4156C0.266378 19.5936 0.418164 19.7414 0.600926 19.844C0.783689 19.9466 0.990966 20.0004 1.20185 20H22.7981C23.009 20.0004 23.2163 19.9466 23.3991 19.844C23.5818 19.7414 23.7336 19.5936 23.8391 19.4156C23.9446 19.2375 24.0001 19.0355 24 18.8299C23.9999 18.6242 23.9442 18.4223 23.8384 18.2443ZM12 16.5862C11.8022 16.5862 11.6088 16.529 11.4443 16.4218C11.2798 16.3146 11.1516 16.1623 11.0759 15.9841C11.0001 15.8059 10.9803 15.6097 11.0189 15.4205C11.0575 15.2313 11.1528 15.0575 11.2927 14.9211C11.4326 14.7847 11.6108 14.6918 11.8049 14.6542C11.9989 14.6166 12.2 14.6359 12.3828 14.7097C12.5656 14.7835 12.7218 14.9085 12.8317 15.0689C12.9416 15.2293 13.0003 15.4179 13.0003 15.6108C12.9995 15.8693 12.8939 16.1169 12.7064 16.2997C12.519 16.4824 12.265 16.5854 12 16.5862ZM13.0003 12.197C13.0003 12.4557 12.8949 12.7038 12.7073 12.8867C12.5197 13.0696 12.2653 13.1724 12 13.1724C11.7347 13.1724 11.4803 13.0696 11.2927 12.8867C11.1051 12.7038 10.9997 12.4557 10.9997 12.197V6.83248C10.9997 6.5738 11.1051 6.32571 11.2927 6.14279C11.4803 5.95987 11.7347 5.85711 12 5.85711C12.2653 5.85711 12.5197 5.95987 12.7073 6.14279C12.8949 6.32571 13.0003 6.5738 13.0003 6.83248V12.197Z" fill="#fff"/>
</svg>
