<svg width="28" height="43" viewBox="0 0 28 43" fill="none" xmlns="http://www.w3.org/2000/svg">
<path d="M14 1C6.265 1 0 7.66836 0 15.881C0 22.953 10.3512 38.4043 13.2562 42.5983C13.3374 42.7218 13.4478 42.8231 13.5776 42.8932C13.7074 42.9633 13.8526 43 14 43C14.1474 43 14.2926 42.9633 14.4224 42.8932C14.5522 42.8231 14.6626 42.7218 14.7438 42.5983C17.6488 38.4043 28 22.953 28 15.881C28 7.66836 21.735 1 14 1Z" fill="#4f22d7"/>
<path d="M14 25C17.315 25 20 22.1421 20 18.6224C20 15.5916 15.5638 8.9696 14.3188 7.17215C14.284 7.11924 14.2367 7.07582 14.181 7.04578C14.1254 7.01573 14.0632 7 14 7C13.9368 7 13.8746 7.01573 13.819 7.04578C13.7633 7.07582 13.716 7.11924 13.6813 7.17215C12.4363 8.9696 8 15.5916 8 18.6224C8 22.1421 10.685 25 14 25Z" fill="white"/>
</svg>
