<svg width="36" height="30" xmlns="http://www.w3.org/2000/svg" xmlns:xlink="http://www.w3.org/1999/xlink" overflow="hidden"><defs><clipPath id="clip0"><rect x="169" y="129" width="36" height="30"/></clipPath></defs><g clip-path="url(#clip0)" transform="translate(-169 -129)"><path d="M34.8704 27.3664 19.8375 1.31675C19.1086 0.0562337 17.4959-0.374778 16.2354 0.35406 15.8358 0.585138 15.5038 0.917103 15.2727 1.31675L0.239817 27.3664C-0.2459 28.2046 0.0398557 29.2779 0.878069 29.7636 1.14642 29.9191 1.45121 30.0007 1.76136 30L33.3488 30C34.3176 30.0021 35.1047 29.2185 35.1067 28.2497 35.1075 27.9396 35.0259 27.6347 34.8704 27.3664ZM17.5551 24.8793C16.747 24.8793 16.092 24.2242 16.092 23.4162 16.092 22.6082 16.747 21.9532 17.5551 21.9532 18.3631 21.9532 19.0181 22.6082 19.0181 23.4162 19.0158 24.2233 18.3621 24.8769 17.5551 24.8793ZM19.0181 18.2955C19.0181 19.1035 18.3631 19.7586 17.5551 19.7586 16.747 19.7586 16.092 19.1035 16.092 18.2955L16.092 10.2487C16.092 9.44067 16.747 8.78566 17.5551 8.78566 18.3631 8.78566 19.0181 9.44067 19.0181 10.2487Z" fill="#6200EE" transform="matrix(1.025 0 0 1 169.006 129)"/></g></svg>