<svg width="32" height="32" viewBox="0 0 32 32" fill="none" xmlns="http://www.w3.org/2000/svg">
<path d="M31.7846 27.2734L18.0806 3.52652C17.8696 3.16152 17.5662 2.85847 17.201 2.64778C16.8358 2.43709 16.4216 2.32617 16 2.32617C15.5784 2.32617 15.1642 2.43709 14.799 2.64778C14.4338 2.85847 14.1304 3.16152 13.9194 3.52652L0.215402 27.2734C0.0744568 27.5167 0.000158721 27.7929 2.54021e-07 28.0741C-0.000158213 28.3553 0.0738285 28.6315 0.2145 28.875C0.35517 29.1185 0.557552 29.3206 0.801235 29.4609C1.04492 29.6012 1.32129 29.6747 1.60247 29.6741H30.3975C30.6787 29.6747 30.9551 29.6012 31.1988 29.4609C31.4424 29.3206 31.6448 29.1185 31.7855 28.875C31.9262 28.6315 32.0002 28.3553 32 28.0741C31.9998 27.7929 31.9255 27.5167 31.7846 27.2734V27.2734ZM16 25.0061C15.7362 25.0061 15.4784 24.9279 15.259 24.7813C15.0397 24.6348 14.8687 24.4265 14.7678 24.1828C14.6669 23.9391 14.6404 23.6709 14.6919 23.4122C14.7434 23.1535 14.8704 22.9158 15.0569 22.7293C15.2434 22.5428 15.4811 22.4158 15.7398 22.3643C15.9985 22.3128 16.2667 22.3392 16.5104 22.4402C16.7541 22.5411 16.9624 22.7121 17.1089 22.9314C17.2555 23.1507 17.3337 23.4086 17.3337 23.6724C17.3327 24.0258 17.1918 24.3644 16.9419 24.6143C16.692 24.8642 16.3534 25.0051 16 25.0061V25.0061ZM17.3337 19.0044C17.3337 19.3581 17.1932 19.6973 16.9431 19.9474C16.693 20.1976 16.3537 20.3381 16 20.3381C15.6463 20.3381 15.307 20.1976 15.0569 19.9474C14.8068 19.6973 14.6663 19.3581 14.6663 19.0044V11.6689C14.6663 11.3152 14.8068 10.9759 15.0569 10.7258C15.307 10.4757 15.6463 10.3352 16 10.3352C16.3537 10.3352 16.693 10.4757 16.9431 10.7258C17.1932 10.9759 17.3337 11.3152 17.3337 11.6689V19.0044Z" fill="var(--ion-color-ibf-trigger-alert-primary)"/>
</svg>
