<svg width="48" height="48" viewBox="0 0 48 48" fill="6200EE" xmlns="http://www.w3.org/2000/svg">
<path d="M47.6769 40.9102L27.1209 5.28978C26.8043 4.74229 26.3493 4.2877 25.8015 3.97167C25.2537 3.65563 24.6324 3.48926 24 3.48926C23.3676 3.48926 22.7463 3.65563 22.1985 3.97167C21.6507 4.2877 21.1957 4.74229 20.8791 5.28978L0.323103 40.9102C0.111685 41.2751 0.000238081 41.6894 3.81032e-07 42.1112C-0.000237319 42.5329 0.110743 42.9473 0.321749 43.3125C0.532756 43.6777 0.836328 43.9808 1.20185 44.1913C1.56738 44.4017 1.98193 44.5121 2.40371 44.5112H45.5963C46.0181 44.5121 46.4326 44.4017 46.7981 44.1913C47.1637 43.9808 47.4672 43.6777 47.6783 43.3125C47.8893 42.9473 48.0002 42.5329 48 42.1112C47.9998 41.6894 47.8883 41.2751 47.6769 40.9102V40.9102ZM24 37.5092C23.6043 37.5092 23.2175 37.3918 22.8885 37.172C22.5595 36.9522 22.3031 36.6397 22.1517 36.2742C22.0003 35.9086 21.9607 35.5064 22.0379 35.1183C22.1151 34.7302 22.3056 34.3737 22.5854 34.094C22.8652 33.8142 23.2216 33.6236 23.6097 33.5464C23.9978 33.4692 24.4 33.5089 24.7656 33.6603C25.1311 33.8117 25.4436 34.0681 25.6634 34.3971C25.8833 34.7261 26.0006 35.1129 26.0006 35.5086C25.999 36.0387 25.7877 36.5466 25.4129 36.9215C25.038 37.2963 24.5301 37.5076 24 37.5092V37.5092ZM26.0006 28.5065C26.0006 29.0371 25.7898 29.546 25.4146 29.9212C25.0394 30.2964 24.5306 30.5071 24 30.5071C23.4694 30.5071 22.9606 30.2964 22.5854 29.9212C22.2102 29.546 21.9994 29.0371 21.9994 28.5065V17.5033C21.9994 16.9728 22.2102 16.4639 22.5854 16.0887C22.9606 15.7135 23.4694 15.5028 24 15.5028C24.5306 15.5028 25.0394 15.7135 25.4146 16.0887C25.7898 16.4639 26.0006 16.9728 26.0006 17.5033V28.5065Z" fill="#011E41"/>
</svg>
