<svg width="36" height="36" viewBox="0 0 36 36" fill="none" xmlns="http://www.w3.org/2000/svg">
<rect width="36" height="36" fill="#6200EE"/>
<path d="M30.825 26.0688L19.6905 6.96562C19.519 6.672 19.2725 6.4282 18.9758 6.25871C18.6791 6.08922 18.3426 6 18 6C17.6574 6 17.3209 6.08922 17.0242 6.25871C16.7274 6.4282 16.481 6.672 16.3095 6.96562L5.17501 26.0688C5.0605 26.2645 5.00013 26.4867 5 26.7129C4.99987 26.9391 5.05999 27.1613 5.17428 27.3572C5.28858 27.553 5.45301 27.7156 5.651 27.8284C5.849 27.9413 6.07355 28.0005 6.30201 28H29.698C29.9265 28.0005 30.151 27.9413 30.349 27.8284C30.547 27.7156 30.7114 27.553 30.8257 27.3572C30.94 27.1613 31.0001 26.9391 31 26.7129C30.9999 26.4867 30.9395 26.2645 30.825 26.0688ZM18 24.2448C17.7857 24.2448 17.5762 24.1819 17.398 24.064C17.2198 23.9461 17.0809 23.7785 16.9988 23.5825C16.9168 23.3864 16.8954 23.1707 16.9372 22.9626C16.979 22.7545 17.0822 22.5633 17.2337 22.4132C17.3853 22.2632 17.5784 22.161 17.7886 22.1196C17.9988 22.0782 18.2167 22.0995 18.4147 22.1807C18.6127 22.2619 18.7819 22.3994 18.901 22.5758C19.0201 22.7523 19.0836 22.9597 19.0836 23.1719C19.0828 23.4562 18.9683 23.7286 18.7653 23.9296C18.5623 24.1307 18.2871 24.244 18 24.2448ZM19.0836 19.4167C19.0836 19.7013 18.9695 19.9742 18.7663 20.1754C18.563 20.3766 18.2874 20.4896 18 20.4896C17.7126 20.4896 17.437 20.3766 17.2337 20.1754C17.0305 19.9742 16.9163 19.7013 16.9163 19.4167V13.5157C16.9163 13.2312 17.0305 12.9583 17.2337 12.7571C17.437 12.5559 17.7126 12.4428 18 12.4428C18.2874 12.4428 18.563 12.5559 18.7663 12.7571C18.9695 12.9583 19.0836 13.2312 19.0836 13.5157V19.4167Z" fill="white"/>
</svg>
