<svg width="48" height="48" viewBox="0 0 48 48" fill="none" xmlns="http://www.w3.org/2000/svg">
<g clip-path="url(#clip0_402_18024)">
<path fill-rule="evenodd" clip-rule="evenodd" d="M47.631 23.7C47.7463 23.7936 47.8392 23.9118 47.903 24.046C47.9669 24.1803 48.0001 24.3272 48 24.476V48L37 48V35C37 34.4477 36.5523 34 36 34H28C27.4477 34 27 34.4477 27 35V48L16 48V24.476C16.0002 24.3273 16.0335 24.1805 16.0975 24.0463C16.1615 23.912 16.2546 23.7937 16.37 23.7L32 11L47.631 23.7ZM18.3147 4.4443C19.4135 6.08879 20 8.02219 20 10C20 12.6522 18.9464 15.1957 17.0711 17.0711C15.1957 18.9464 12.6522 20 10 20C8.02219 20 6.08879 19.4135 4.4443 18.3147C2.79981 17.2159 1.51809 15.6541 0.761209 13.8268C0.00433283 11.9996 -0.193701 9.98891 0.192152 8.0491C0.578004 6.10929 1.53041 4.32746 2.92894 2.92894C4.32746 1.53041 6.10929 0.578004 8.0491 0.192152C9.98891 -0.193701 11.9996 0.00433283 13.8268 0.761209C15.6541 1.51809 17.2159 2.79981 18.3147 4.4443ZM9.2929 3.2929C9.10536 3.48043 9 3.73479 9 4V12C9 12.2652 9.10536 12.5196 9.2929 12.7071C9.48043 12.8946 9.73479 13 10 13C10.2652 13 10.5196 12.8946 10.7071 12.7071C10.8946 12.5196 11 12.2652 11 12V4C11 3.73479 10.8946 3.48043 10.7071 3.2929C10.5196 3.10536 10.2652 3 10 3C9.73479 3 9.48043 3.10536 9.2929 3.2929ZM9.36999 16.9429C9.55647 17.0675 9.77572 17.134 10 17.134C10.3008 17.134 10.5892 17.0145 10.8019 16.8019C11.0145 16.5892 11.134 16.3008 11.134 16C11.134 15.7757 11.0675 15.5565 10.9429 15.37C10.8183 15.1835 10.6412 15.0382 10.434 14.9523C10.2268 14.8665 9.99875 14.844 9.77877 14.8878C9.5588 14.9316 9.35674 15.0396 9.19815 15.1981C9.03955 15.3567 8.93155 15.5588 8.88779 15.7788C8.84404 15.9987 8.8665 16.2268 8.95233 16.434C9.03816 16.6412 9.1835 16.8183 9.36999 16.9429Z" fill="black"/>
</g>
<defs>
<clipPath id="clip0_402_18024">
<rect width="48" height="48" fill="white"/>
</clipPath>
</defs>
</svg>
