<svg width="48" height="48" viewBox="0 0 48 48" fill="none" xmlns="http://www.w3.org/2000/svg">
<g clip-path="url(#clip0_402_18023)">
<path d="M47.903 24.046C47.8392 23.9118 47.7463 23.7936 47.631 23.7L32 11L16.37 23.7C16.2546 23.7937 16.1615 23.912 16.0975 24.0463C16.0335 24.1805 16.0002 24.3273 16 24.476V48H48V24.476C48.0001 24.3272 47.967 24.1803 47.903 24.046ZM20 10C20 8.02219 19.4135 6.08879 18.3147 4.4443C17.2159 2.79981 15.6541 1.51809 13.8268 0.761209C11.9996 0.00433284 9.98891 -0.193701 8.0491 0.192152C6.10929 0.578004 4.32746 1.53041 2.92894 2.92894C1.53041 4.32746 0.578004 6.10929 0.192152 8.0491C-0.193701 9.98891 0.00433284 11.9996 0.761209 13.8268C1.51809 15.6541 2.79981 17.2159 4.4443 18.3147C6.08879 19.4135 8.02219 20 10 20C12.6522 20 15.1957 18.9464 17.0711 17.0711C18.9464 15.1957 20 12.6522 20 10ZM9 4C9 3.73479 9.10536 3.48043 9.2929 3.2929C9.48043 3.10536 9.73479 3 10 3C10.2652 3 10.5196 3.10536 10.7071 3.2929C10.8946 3.48043 11 3.73479 11 4V12C11 12.2652 10.8946 12.5196 10.7071 12.7071C10.5196 12.8946 10.2652 13 10 13C9.73479 13 9.48043 12.8946 9.2929 12.7071C9.10536 12.5196 9 12.2652 9 12V4ZM10 17.134C9.77572 17.134 9.55647 17.0675 9.36999 16.9429C9.1835 16.8183 9.03816 16.6412 8.95233 16.434C8.8665 16.2268 8.84404 15.9987 8.88779 15.7788C8.93155 15.5588 9.03955 15.3567 9.19815 15.1981C9.35674 15.0396 9.5588 14.9316 9.77877 14.8878C9.99875 14.844 10.2268 14.8665 10.434 14.9523C10.6412 15.0382 10.8183 15.1835 10.9429 15.37C11.0675 15.5565 11.134 15.7757 11.134 16C11.134 16.3008 11.0145 16.5892 10.8019 16.8019C10.5892 17.0145 10.3008 17.134 10 17.134Z" fill="#00214D"/>
<path d="M36.3789 32.9492V35.6914H27.4727V32.9492H36.3789ZM28.5156 26V43.0625H25V26H28.5156ZM38.8867 26V43.0625H35.3828V26H38.8867Z" fill="white"/>
</g>
<defs>
<clipPath id="clip0_402_18023">
<rect width="48" height="48" fill="white"/>
</clipPath>
</defs>
</svg>
