<svg width="32" height="32" viewBox="0 0 32 32" fill="none" xmlns="http://www.w3.org/2000/svg">
<rect x="1" y="1" width="30" height="30" rx="3" fill="#6200EE" stroke="#6200EE" stroke-width="2"/>
<path d="M13.0533 18.1143C12.9038 17.9651 12.7157 17.8604 12.5101 17.812C12.3045 17.7636 12.0894 17.7734 11.8891 17.8403L4.99681 20.1413C4.8165 20.1977 4.64924 20.2895 4.50483 20.4113C4.36041 20.5331 4.24174 20.6825 4.15574 20.8507C4.06975 21.0189 4.01816 21.2026 4.004 21.391C3.98984 21.5794 4.01338 21.7687 4.07326 21.9479C4.13314 22.1271 4.22815 22.2925 4.35274 22.4345C4.47732 22.5766 4.62897 22.6923 4.79883 22.775C4.96868 22.8578 5.15332 22.9058 5.34195 22.9163C5.53058 22.9268 5.71941 22.8996 5.8974 22.8362L11.17 21.0786L6.74343 25.5484C6.47411 25.8177 6.32281 26.183 6.32281 26.5639C6.32281 26.9448 6.47411 27.3101 6.74343 27.5794C7.01274 27.8487 7.37802 28 7.75889 28C8.13976 28 8.50503 27.8487 8.77435 27.5794L15.6172 20.6783L13.0533 18.1143ZM19.6785 16.6169L26.5794 9.77389C26.8487 9.50457 27 9.13929 27 8.75841C27 8.37753 26.8487 8.01224 26.5794 7.74292C26.3101 7.4736 25.9448 7.32229 25.5639 7.32229C25.1831 7.32229 24.8178 7.4736 24.5485 7.74292L20.0788 12.1702L21.8369 6.89745C21.9003 6.71946 21.9275 6.53062 21.917 6.34198C21.9065 6.15335 21.8585 5.9687 21.7758 5.79885C21.693 5.62899 21.5773 5.47733 21.4353 5.35275C21.2932 5.22816 21.1278 5.13315 20.9486 5.07327C20.7694 5.01338 20.5801 4.98984 20.3917 5.004C20.2033 5.01816 20.0196 5.06975 19.8514 5.15575C19.6832 5.24174 19.5338 5.36042 19.412 5.50484C19.2902 5.64926 19.1984 5.81652 19.142 5.99683L16.8412 12.8893C16.7742 13.0898 16.7644 13.305 16.8128 13.5107C16.8613 13.7165 16.9662 13.9046 17.1157 14.0541L19.6785 16.6169ZM17.245 19.8725C17.2432 19.9012 17.2358 19.9293 17.2358 19.9586C17.2322 20.2253 17.2913 20.489 17.4085 20.7285C17.5256 20.9681 17.6975 21.1767 17.9102 21.3376C18.1229 21.4984 18.3704 21.607 18.6328 21.6545C18.8952 21.702 19.165 21.6871 19.4206 21.6111C19.4371 21.6396 19.4553 21.667 19.4752 21.6932L20.3597 22.5778C20.5221 22.7348 20.7397 22.8217 20.9656 22.8199C21.1915 22.818 21.4076 22.7275 21.5674 22.5678C21.7272 22.4082 21.8179 22.1921 21.82 21.9662C21.8221 21.7403 21.7353 21.5227 21.5785 21.3601L20.694 20.4756C20.6676 20.4555 20.6399 20.4371 20.6113 20.4204C20.6873 20.1648 20.7022 19.8949 20.6547 19.6326C20.6072 19.3702 20.4986 19.1226 20.3377 18.9099C20.1769 18.6973 19.9683 18.5254 19.7287 18.4082C19.4892 18.2911 19.2255 18.2319 18.9588 18.2355C18.9295 18.2355 18.9014 18.243 18.8727 18.2441L10.5997 9.97033C10.4935 9.8601 10.3664 9.77213 10.2258 9.71158C10.0853 9.65103 9.93407 9.61911 9.78103 9.61767C9.62799 9.61624 9.47621 9.64532 9.33454 9.70323C9.19287 9.76113 9.06416 9.8467 8.95595 9.95492C8.84773 10.0631 8.76216 10.1919 8.70426 10.3335C8.64636 10.4752 8.61727 10.627 8.61871 10.78C8.62014 10.9331 8.65207 11.0843 8.71262 11.2249C8.77316 11.3654 8.86112 11.4925 8.97135 11.5987L17.245 19.8725Z" fill="white"/>
</svg>
