<svg width="48" height="48" viewBox="0 0 48 48" fill="none" xmlns="http://www.w3.org/2000/svg">
<path d="M46.7563 12.8392L25.2566 0.339151C24.875 0.117022 24.4413 0 23.9997 0C23.5581 0 23.1243 0.117022 22.7427 0.339151L1.24298 12.8392C0.864985 13.0591 0.551273 13.3743 0.333163 13.7533C0.115053 14.1323 0.000176152 14.5619 0 14.9992L0 45.4993C0 46.1624 0.263388 46.7983 0.732223 47.2671C1.20106 47.7359 1.83693 47.9993 2.49996 47.9993C3.163 47.9993 3.79887 47.7359 4.26771 47.2671C4.73654 46.7983 4.99993 46.1624 4.99993 45.4993V16.4392L23.9997 5.39117L42.9994 16.4382V45.4993C42.9994 46.1624 43.2628 46.7983 43.7316 47.2671C44.2005 47.7359 44.8363 47.9993 45.4994 47.9993C46.1624 47.9993 46.7983 47.7359 47.2671 47.2671C47.7359 46.7983 47.9993 46.1624 47.9993 45.4993V14.9992C47.9991 14.5619 47.8843 14.1323 47.6662 13.7533C47.4481 13.3743 47.1343 13.0591 46.7563 12.8392V12.8392Z" fill="black"/>
<path d="M24 45C23.4067 45 22.8266 44.8294 22.3333 44.5097C21.8399 44.1901 21.4554 43.7357 21.2284 43.2042C21.0013 42.6726 20.9419 42.0877 21.0576 41.5234C21.1734 40.9591 21.4591 40.4407 21.8787 40.0339C22.2982 39.627 22.8328 39.35 23.4147 39.2377C23.9967 39.1255 24.5999 39.1831 25.148 39.4033C25.6962 39.6234 26.1648 39.9963 26.4944 40.4747C26.8241 40.9531 27 41.5155 27 42.0909C26.9976 42.8617 26.6808 43.6003 26.1187 44.1454C25.5566 44.6905 24.7949 44.9977 24 45ZM27 31.9091C27 32.6806 26.6839 33.4206 26.1213 33.9661C25.5587 34.5117 24.7956 34.8182 24 34.8182C23.2043 34.8182 22.4413 34.5117 21.8787 33.9661C21.3161 33.4206 21 32.6806 21 31.9091V15.9091C21 15.1376 21.3161 14.3976 21.8787 13.8521C22.4413 13.3065 23.2043 13 24 13C24.7956 13 25.5587 13.3065 26.1213 13.8521C26.6839 14.3976 27 15.1376 27 15.9091V31.9091Z" fill="black"/>
</svg>
