<svg width="48" height="48" viewBox="0 0 48 48" fill="none" xmlns="http://www.w3.org/2000/svg">
<g clip-path="url(#clip0_402_18022)">
<path d="M24 0C19.2533 0 14.6131 1.40758 10.6663 4.04473C6.71954 6.68188 3.6434 10.4302 1.8269 14.8156C0.0103989 19.201 -0.464881 24.0266 0.461164 28.6822C1.38721 33.3377 3.67299 37.6141 7.02945 40.9706C10.3859 44.327 14.6623 46.6128 19.3178 47.5388C23.9734 48.4649 28.799 47.9896 33.1844 46.1731C37.5698 44.3566 41.3181 41.2805 43.9553 37.3337C46.5924 33.3869 48 28.7467 48 24C48 17.6348 45.4714 11.5303 40.9706 7.02944C36.4697 2.52856 30.3652 0 24 0V0ZM24 42.5454C23.3527 42.5454 22.72 42.3535 22.1818 41.9939C21.6436 41.6343 21.2241 41.1231 20.9764 40.5251C20.7287 39.9271 20.6639 39.2691 20.7902 38.6342C20.9164 37.9994 21.2281 37.4162 21.6858 36.9586C22.1435 36.5009 22.7267 36.1892 23.3615 36.0629C23.9964 35.9366 24.6544 36.0014 25.2524 36.2491C25.8504 36.4968 26.3616 36.9163 26.7212 37.4545C27.0808 37.9927 27.2727 38.6254 27.2727 39.2727C27.2733 39.7027 27.189 40.1285 27.0248 40.5258C26.8605 40.9231 26.6195 41.2841 26.3155 41.5882C26.0114 41.8922 25.6504 42.1332 25.2531 42.2975C24.8558 42.4618 24.4299 42.546 24 42.5454ZM27.2727 28.3636C27.2727 29.2316 26.9279 30.064 26.3142 30.6778C25.7004 31.2916 24.868 31.6364 24 31.6364C23.132 31.6364 22.2996 31.2916 21.6858 30.6778C21.0721 30.064 20.7273 29.2316 20.7273 28.3636V8.72727C20.7273 7.85929 21.0721 7.02686 21.6858 6.4131C22.2996 5.79935 23.132 5.45454 24 5.45454C24.868 5.45454 25.7004 5.79935 26.3142 6.4131C26.9279 7.02686 27.2727 7.85929 27.2727 8.72727V28.3636Z" fill="#0f1218"/>
</g>
<defs>
<clipPath id="clip0_402_18022">
<rect width="48" height="48" fill="white"/>
</clipPath>
</defs>
</svg>
