<svg width="48" height="48" viewBox="0 0 48 48" fill="none" xmlns="http://www.w3.org/2000/svg">
<path d="M24 10C16.589 10 11 15.16 11 22C11 22.5304 11.2107 23.0391 11.5858 23.4142C11.9609 23.7893 12.4696 24 13 24C13.5304 24 14.0391 23.7893 14.4142 23.4142C14.7893 23.0391 15 22.5304 15 22C15.0045 20.5626 15.4112 19.1552 16.1742 17.937C16.9371 16.7188 18.0258 15.7385 19.317 15.107L16.014 33.836C15.9902 33.9792 15.9978 34.1259 16.0364 34.2658C16.075 34.4057 16.1436 34.5356 16.2374 34.6464C16.3312 34.7571 16.4481 34.8461 16.5797 34.9072C16.7114 34.9683 16.8548 34.9999 17 35H19V46C19 46.5304 19.2107 47.0391 19.5858 47.4142C19.9609 47.7893 20.4696 48 21 48C21.5304 48 22.0391 47.7893 22.4142 47.4142C22.7893 47.0391 23 46.5304 23 46V35H25V46C25 46.5304 25.2107 47.0391 25.5858 47.4142C25.9609 47.7893 26.4696 48 27 48C27.5304 48 28.0391 47.7893 28.4142 47.4142C28.7893 47.0391 29 46.5304 29 46V35H31C31.1452 34.9999 31.2886 34.9683 31.4203 34.9072C31.5519 34.8461 31.6688 34.7571 31.7626 34.6464C31.8564 34.5356 31.925 34.4057 31.9636 34.2658C32.0022 34.1259 32.0098 33.9792 31.986 33.836L28.776 15.156C30.0432 15.7958 31.1085 16.7738 31.854 17.9818C32.5996 19.1898 32.9962 20.5805 33 22C33 22.5304 33.2107 23.0391 33.5858 23.4142C33.9609 23.7893 34.4696 24 35 24C35.5304 24 36.0391 23.7893 36.4142 23.4142C36.7893 23.0391 37 22.5304 37 22C37 15.16 31.411 10 24 10Z" fill="black"/>
<path d="M24 8C26.2091 8 28 6.20914 28 4C28 1.79086 26.2091 0 24 0C21.7909 0 20 1.79086 20 4C20 6.20914 21.7909 8 24 8Z" fill="black"/>
</svg>
