<svg width="32" height="32" viewBox="0 0 32 32" fill="none" xmlns="http://www.w3.org/2000/svg">
<rect x="1" y="1" width="30" height="30" rx="3" fill="#011E41" stroke="#011E41" stroke-width="2"/>
<g clip-path="url(#clip0_2319_58330)">
<path d="M5.6921 9.13172H10.9053L9.32928 10.7077C9.26368 10.7712 9.21136 10.847 9.17538 10.9309C9.13941 11.0147 9.12049 11.1049 9.11974 11.1962C9.11899 11.2874 9.13642 11.3779 9.17102 11.4623C9.20561 11.5468 9.25668 11.6235 9.32123 11.688C9.38578 11.7525 9.46254 11.8035 9.54701 11.838C9.63148 11.8725 9.72198 11.8898 9.81323 11.889C9.90447 11.8882 9.99464 11.8692 10.0785 11.8331C10.1623 11.797 10.2381 11.7447 10.3015 11.679L13.0503 8.93014C13.179 8.80129 13.2513 8.62662 13.2513 8.44451C13.2513 8.2624 13.179 8.08773 13.0503 7.95888L10.3015 5.21003C10.2381 5.14436 10.1623 5.09197 10.0785 5.05592C9.99464 5.01986 9.90447 5.00086 9.81323 5.00003C9.72198 4.99919 9.63148 5.01654 9.54701 5.05105C9.46254 5.08557 9.38578 5.13656 9.32123 5.20105C9.25668 5.26554 9.20561 5.34225 9.17102 5.42669C9.13642 5.51113 9.11899 5.60161 9.11974 5.69286C9.12049 5.78411 9.13941 5.87429 9.17538 5.95815C9.21136 6.04201 9.26368 6.11786 9.32928 6.18129L10.9057 7.7573H5.6921C5.50984 7.7573 5.33504 7.8297 5.20616 7.95858C5.07729 8.08745 5.00488 8.26225 5.00488 8.44451C5.00488 8.62677 5.07729 8.80156 5.20616 8.93044C5.33504 9.05932 5.50984 9.13172 5.6921 9.13172V9.13172ZM26.9132 10.5061L20.1969 5.03593C20.1766 5.01818 20.1505 5.0084 20.1236 5.0084C20.0966 5.0084 20.0706 5.01818 20.0503 5.03593L13.3339 10.5061C13.309 10.528 13.2888 10.5547 13.2746 10.5846C13.2604 10.6146 13.2525 10.6471 13.2514 10.6802V18.7939C13.7842 18.8665 14.2968 19.0457 14.7587 19.3208C15.1265 19.5627 15.5604 19.6844 16.0003 19.669C16.4387 19.6837 16.8709 19.5621 17.2373 19.3208C17.8766 18.9353 18.612 18.7383 19.3585 18.7527C20.1035 18.7382 20.8374 18.9351 21.4751 19.3208C21.85 19.5485 22.2803 19.6689 22.7189 19.6689C23.1576 19.6689 23.5879 19.5485 23.9628 19.3208C24.6004 18.9351 25.3343 18.7382 26.0794 18.7527C26.3872 18.7505 26.6944 18.7812 26.9957 18.8443V10.6802C26.9946 10.6471 26.9867 10.6146 26.9725 10.5846C26.9583 10.5547 26.9382 10.528 26.9132 10.5061V10.5061ZM26.0794 24.2504C25.3343 24.2359 24.6004 24.4328 23.9628 24.8185C23.5879 25.0462 23.1576 25.1666 22.7189 25.1666C22.2803 25.1666 21.85 25.0462 21.4751 24.8185C20.8374 24.4328 20.1035 24.2359 19.3585 24.2504C18.612 24.236 17.8766 24.433 17.2373 24.8185C16.8709 25.0598 16.4387 25.1814 16.0003 25.1667C15.5604 25.1821 15.1265 25.0604 14.7587 24.8185C14.1191 24.4336 13.3839 24.2367 12.6375 24.2504C11.8925 24.2359 11.1586 24.4328 10.5209 24.8185C10.1525 25.0591 9.71911 25.1806 9.27934 25.1667C8.83958 25.1806 8.40615 25.0591 8.03778 24.8185C7.40013 24.4328 6.66622 24.2359 5.92117 24.2504C5.67815 24.2504 5.44509 24.3469 5.27326 24.5188C5.10142 24.6906 5.00488 24.9237 5.00488 25.1667C5.00488 25.4097 5.10142 25.6428 5.27326 25.8146C5.44509 25.9864 5.67815 26.083 5.92117 26.083C6.36093 26.069 6.79437 26.1905 7.16273 26.4312C7.80039 26.8168 8.53429 27.0138 9.27934 26.9992C10.0244 27.0138 10.7583 26.8168 11.396 26.4312C11.7643 26.1906 12.1978 26.069 12.6375 26.083C13.0774 26.0683 13.511 26.1899 13.8791 26.4312C14.5185 26.8167 15.2538 27.0136 16.0003 26.9992C16.7453 27.0131 17.479 26.8161 18.1169 26.4312C18.491 26.2034 18.9205 26.083 19.3585 26.083C19.7964 26.083 20.2259 26.2034 20.6 26.4312C21.2442 26.8033 21.975 26.9993 22.7189 26.9993C23.4629 26.9993 24.1937 26.8033 24.8378 26.4312C25.2059 26.1899 25.6396 26.0683 26.0794 26.083C26.3224 26.083 26.5555 25.9864 26.7273 25.8146C26.8991 25.6428 26.9957 25.4097 26.9957 25.1667C26.9957 24.9237 26.8991 24.6906 26.7273 24.5188C26.5555 24.3469 26.3224 24.2504 26.0794 24.2504ZM26.0794 20.5853C25.3334 20.5705 24.5985 20.7682 23.9605 21.1552C23.5857 21.3818 23.1562 21.5015 22.7182 21.5015C22.2803 21.5015 21.8507 21.3818 21.476 21.1552C20.8379 20.7681 20.1028 20.5704 19.3566 20.5853C18.6109 20.5705 17.8763 20.7681 17.2386 21.1552C16.8702 21.3947 16.4372 21.5156 15.998 21.5015C15.5586 21.5156 15.1255 21.3947 14.7569 21.1552C14.1189 20.7682 13.384 20.5705 12.638 20.5853C11.8921 20.5706 11.1574 20.7682 10.5195 21.1552C10.1512 21.3947 9.71842 21.5155 9.27934 21.5015C8.84047 21.5156 8.40781 21.3949 8.03961 21.1557C7.40194 20.7683 6.66715 20.5704 5.92117 20.5853C5.67815 20.5853 5.44509 20.6818 5.27326 20.8536C5.10142 21.0255 5.00488 21.2585 5.00488 21.5015C5.00488 21.7446 5.10142 21.9776 5.27326 22.1495C5.44509 22.3213 5.67815 22.4178 5.92117 22.4178C6.36025 22.4038 6.79307 22.5247 7.16136 22.7642C7.79885 23.1512 8.53327 23.3489 9.27889 23.3341C10.0248 23.3488 10.7595 23.1512 11.3973 22.7642C11.7658 22.5246 12.1988 22.4038 12.638 22.4178C13.0775 22.4037 13.5108 22.5246 13.8795 22.7642C14.5173 23.151 15.2518 23.3487 15.9975 23.3341C16.7435 23.3488 17.4782 23.151 18.116 22.7637C18.4905 22.5372 18.9198 22.4174 19.3575 22.4174C19.7952 22.4174 20.2246 22.5372 20.5991 22.7637C21.2429 23.137 21.9738 23.3336 22.718 23.3336C23.4622 23.3336 24.1931 23.137 24.8369 22.7637C25.206 22.5242 25.6396 22.4035 26.0794 22.4178C26.3224 22.4178 26.5555 22.3213 26.7273 22.1495C26.8991 21.9776 26.9957 21.7446 26.9957 21.5015C26.9957 21.2585 26.8991 21.0255 26.7273 20.8536C26.5555 20.6818 26.3224 20.5853 26.0794 20.5853Z" fill="white"/>
</g>
<defs>
<clipPath id="clip0_2319_58330">
<rect width="22" height="22" fill="white" transform="translate(5 5)"/>
</clipPath>
</defs>
</svg>
