<svg width="32" height="32" viewBox="0 0 32 32" fill="none" xmlns="http://www.w3.org/2000/svg">
<rect x="1" y="1" width="30" height="30" rx="3" fill="white" stroke="#6200EE" stroke-width="2"/>
<path d="M25.1243 23.875H25.1146L25.1146 23.875C24.4978 23.8629 23.8902 24.026 23.3622 24.3451C22.9261 24.61 22.4256 24.75 21.9153 24.75C21.4049 24.75 20.9043 24.6099 20.468 24.345C19.9401 24.0259 19.3327 23.8629 18.716 23.875L18.7063 23.8751L18.6966 23.875C18.081 23.8631 17.4745 24.0247 16.9465 24.3411C16.517 24.6213 16.0122 24.764 15.4996 24.7503C14.9855 24.7648 14.4791 24.6221 14.0481 24.3413C13.5196 24.0253 12.913 23.8637 12.2972 23.875L12.2878 23.8751L12.2783 23.875C11.664 23.863 11.0588 24.0246 10.5324 24.3413C10.1009 24.6208 9.59503 24.7634 9.0812 24.7502C8.56738 24.7634 8.06152 24.6208 7.63006 24.3413C7.10361 24.0246 6.49842 23.863 5.88408 23.875L5.87433 23.8751V23.875C5.77487 23.875 5.67949 23.9146 5.60916 23.9849L5.25561 23.6313L5.60916 23.9849C5.53884 24.0552 5.49933 24.1506 5.49933 24.25C5.49933 24.3495 5.53884 24.4449 5.60916 24.5152M25.1243 23.875L5.60916 24.5152M25.1243 23.875C25.2238 23.875 25.3192 23.9146 25.3895 23.9849C25.4598 24.0552 25.4993 24.1506 25.4993 24.25C25.4993 24.3495 25.4598 24.4449 25.3895 24.5152C25.3206 24.5841 25.2277 24.6234 25.1305 24.625C24.6162 24.61 24.1094 24.7516 23.6775 25.031C23.1411 25.3383 22.5336 25.5001 21.9153 25.5001C21.2944 25.5001 20.6845 25.337 20.1465 25.0273C19.7122 24.7642 19.2141 24.6251 18.7062 24.6251C18.1963 24.6251 17.6962 24.7653 17.2606 25.0304L17.5206 25.4575M25.1243 23.875L5.86846 24.625M5.60916 24.5152C5.67811 24.5842 5.77113 24.6235 5.86846 24.625M5.60916 24.5152L5.86846 24.625M5.86846 24.625C6.38431 24.6106 6.89238 24.7532 7.32546 25.0338C7.85193 25.3504 8.45712 25.5121 9.07147 25.5001L9.08121 25.5L9.09096 25.5001C9.70531 25.5121 10.3105 25.3504 10.837 25.0338C11.2683 24.7543 11.774 24.6118 12.2877 24.6248C12.8017 24.611 13.3079 24.7536 13.7392 25.0338C14.2673 25.3504 14.8739 25.512 15.4897 25.5001L15.4991 25.5L15.5086 25.5001C16.1258 25.5116 16.7337 25.3484 17.2622 25.0295L17.5206 25.4575M17.5206 25.4575C17.8778 25.2401 18.288 25.1251 18.7062 25.1251C19.1244 25.1251 19.5346 25.2401 19.8918 25.4575H13.4737C14.0843 25.8257 14.7865 26.0138 15.4993 26C16.2107 26.0132 16.9114 25.8252 17.5206 25.4575ZM25.1144 20.375L25.1144 20.375C24.4968 20.3627 23.8884 20.5264 23.3602 20.8468L23.3596 20.8472C22.9237 21.1107 22.424 21.25 21.9146 21.25C21.4052 21.25 20.9056 21.1107 20.4696 20.8472L20.469 20.8468C19.9407 20.5263 19.3322 20.3627 18.7144 20.3749L18.7045 20.3751L18.6945 20.3749C18.0796 20.3627 17.4738 20.5251 16.9474 20.8431C16.5159 21.1216 16.0104 21.2635 15.4971 21.2503C14.9838 21.2635 14.4782 21.1216 14.0466 20.8431C13.5198 20.5251 12.9137 20.3628 12.2984 20.375L12.2885 20.3751L12.2787 20.375C11.6635 20.3628 11.0576 20.5252 10.5309 20.8431C10.0996 21.1215 9.59438 21.2634 9.08127 21.2503C8.56827 21.2635 8.06312 21.1218 7.63182 20.8435C7.10539 20.5252 6.49943 20.3627 5.88428 20.3749L5.87433 20.3751V20.375C5.77487 20.375 5.67949 20.4146 5.60916 20.4849C5.53884 20.5552 5.49933 20.6506 5.49933 20.75C5.49933 20.8495 5.53884 20.9449 5.60916 21.0152M25.1144 20.375L5.60916 21.0152M25.1144 20.375H25.1243C25.2238 20.375 25.3192 20.4146 25.3895 20.4849C25.4598 20.5552 25.4993 20.6506 25.4993 20.75C25.4993 20.8495 25.4598 20.9449 25.3895 21.0152C25.3206 21.0841 25.2276 21.1234 25.1304 21.125C24.6164 21.1103 24.11 21.251 23.6772 21.5285C23.141 21.8371 22.5332 21.9996 21.9144 21.9996C21.2932 21.9996 20.6831 21.8359 20.1454 21.5249C19.7108 21.2631 19.2129 21.1247 18.7053 21.1247C18.1961 21.1247 17.6966 21.264 17.2609 21.5275L17.2602 21.528C16.7323 21.8486 16.1241 22.0123 15.5066 22.0001L15.4967 22L15.4869 22.0001C14.8719 22.0122 14.2661 21.8498 13.7395 21.532C13.3077 21.2534 12.802 21.1115 12.2885 21.1248C11.7752 21.1116 11.2698 21.2535 10.8383 21.532C10.3117 21.8499 9.70576 22.0123 9.09063 22.0001L9.08075 22L9.07088 22.0001C8.45606 22.0123 7.85043 21.85 7.32416 21.5321C6.89113 21.2525 6.38361 21.1106 5.86841 21.125M25.1144 20.375L5.86841 21.125M5.60916 21.0152C5.67809 21.0841 5.77109 21.1235 5.86841 21.125M5.60916 21.0152L5.86841 21.125M13.3743 10.5518L19.4368 5.61414L25.4993 10.5518V17.6379C25.3757 17.6286 25.2516 17.6243 25.1274 17.625C24.3237 17.6106 23.5322 17.8237 22.8443 18.2397L22.8435 18.2402C22.5637 18.4101 22.2426 18.5 21.9153 18.5C21.5879 18.5 21.2668 18.4101 20.987 18.2402L20.9862 18.2397C20.2992 17.8242 19.5088 17.6111 18.7062 17.625C17.9024 17.6113 17.1109 17.8242 16.4224 18.2394L16.4139 18.2445L16.4056 18.25C16.1421 18.4235 15.8314 18.5109 15.5161 18.5003L15.499 18.4998L15.4819 18.5004C15.1653 18.5114 14.8531 18.4239 14.5885 18.2498L14.5791 18.2437L14.5695 18.238C14.1971 18.0161 13.7941 17.8521 13.3743 17.7505V10.5518ZM12.8964 10.325L13.088 10.4158L12.8964 10.325ZM23.1009 20.4193C22.743 20.6357 22.3328 20.75 21.9146 20.75C21.4964 20.75 21.0862 20.6357 20.7283 20.4193C20.119 20.0496 19.417 19.8609 18.7045 19.875L23.1009 20.4193Z" fill="#6200EE" stroke="#6200EE"/>
</svg>
