<svg width="32" height="32" viewBox="0 0 32 32" fill="none" xmlns="http://www.w3.org/2000/svg">
<rect x="1" y="1" width="30" height="30" rx="3" fill="white" stroke="#E5E5E5" stroke-width="2"/>
<path d="M25.9206 10.25L19.5068 5.0263C19.4874 5.00934 19.4626 5 19.4368 5C19.4111 5 19.3862 5.00934 19.3668 5.0263L12.9531 10.25C12.9293 10.2709 12.91 10.2964 12.8964 10.325C12.8829 10.3536 12.8754 10.3847 12.8743 10.4163V18.1644C13.383 18.2337 13.8726 18.4048 14.3137 18.6675C14.6649 18.8985 15.0792 19.0147 15.4993 19C15.918 19.0141 16.3307 18.898 16.6806 18.6675C17.2911 18.2994 17.9934 18.1113 18.7062 18.125C19.4177 18.1112 20.1185 18.2993 20.7275 18.6675C21.0855 18.885 21.4964 19 21.9153 19C22.3342 19 22.745 18.885 23.1031 18.6675C23.712 18.2993 24.4128 18.1112 25.1243 18.125C25.4183 18.123 25.7116 18.1523 25.9993 18.2125V10.4163C25.9983 10.3847 25.9908 10.3536 25.9772 10.325C25.9637 10.2964 25.9444 10.2709 25.9206 10.25ZM25.1243 23.375C24.4128 23.3612 23.712 23.5493 23.1031 23.9175C22.745 24.135 22.3342 24.25 21.9153 24.25C21.4964 24.25 21.0855 24.135 20.7275 23.9175C20.1185 23.5493 19.4177 23.3612 18.7062 23.375C17.9934 23.3613 17.2911 23.5494 16.6806 23.9175C16.3307 24.148 15.918 24.2641 15.4993 24.25C15.0792 24.2647 14.6649 24.1485 14.3137 23.9175C13.7029 23.55 13.0008 23.362 12.2881 23.375C11.5766 23.3612 10.8757 23.5493 10.2668 23.9175C9.91505 24.1473 9.50115 24.2634 9.0812 24.25C8.66125 24.2634 8.24736 24.1473 7.89558 23.9175C7.28666 23.5493 6.58582 23.3612 5.87433 23.375C5.64226 23.375 5.4197 23.4672 5.25561 23.6313C5.09152 23.7954 4.99933 24.018 4.99933 24.25C4.99933 24.4821 5.09152 24.7047 5.25561 24.8688C5.4197 25.0329 5.64226 25.125 5.87433 25.125C6.29428 25.1117 6.70819 25.2278 7.05995 25.4575C7.66888 25.8258 8.36972 26.0139 9.0812 26C9.79269 26.0139 10.4935 25.8258 11.1025 25.4575C11.4542 25.2278 11.8681 25.1117 12.2881 25.125C12.7081 25.111 13.1222 25.2272 13.4737 25.4575C14.0843 25.8257 14.7865 26.0138 15.4993 26C16.2107 26.0132 16.9114 25.8252 17.5206 25.4575C17.8778 25.2401 18.288 25.1251 18.7062 25.1251C19.1244 25.1251 19.5346 25.2401 19.8918 25.4575C20.507 25.8129 21.2048 26.0001 21.9153 26.0001C22.6257 26.0001 23.3236 25.8129 23.9387 25.4575C24.2902 25.2272 24.7043 25.111 25.1243 25.125C25.3564 25.125 25.579 25.0329 25.743 24.8688C25.9071 24.7047 25.9993 24.4821 25.9993 24.25C25.9993 24.018 25.9071 23.7954 25.743 23.6313C25.579 23.4672 25.3564 23.375 25.1243 23.375ZM25.1243 19.875C24.4119 19.861 23.7101 20.0497 23.1009 20.4193C22.743 20.6357 22.3328 20.75 21.9146 20.75C21.4964 20.75 21.0862 20.6357 20.7283 20.4193C20.119 20.0496 19.417 19.8609 18.7045 19.875C17.9923 19.8609 17.2908 20.0497 16.6819 20.4193C16.3301 20.6481 15.9166 20.7635 15.4971 20.75C15.0776 20.7635 14.6639 20.648 14.312 20.4193C13.7027 20.0497 13.001 19.861 12.2885 19.875C11.5762 19.861 10.8746 20.0498 10.2655 20.4193C9.91382 20.648 9.5005 20.7634 9.0812 20.75C8.6621 20.7635 8.24893 20.6482 7.89733 20.4197C7.28838 20.0498 6.5867 19.8609 5.87433 19.875C5.64226 19.875 5.4197 19.9672 5.25561 20.1313C5.09152 20.2954 4.99933 20.518 4.99933 20.75C4.99933 20.9821 5.09152 21.2047 5.25561 21.3688C5.4197 21.5329 5.64226 21.625 5.87433 21.625C6.29363 21.6117 6.70695 21.7271 7.05864 21.9558C7.66741 22.3254 8.36874 22.5141 9.08077 22.5C9.79306 22.5141 10.4947 22.3253 11.1038 21.9558C11.4556 21.727 11.8691 21.6116 12.2885 21.625C12.7082 21.6115 13.122 21.727 13.4741 21.9558C14.0831 22.3252 14.7846 22.514 15.4967 22.5C16.2091 22.5141 16.9107 22.3252 17.5197 21.9554C17.8773 21.739 18.2874 21.6247 18.7053 21.6247C19.1233 21.6247 19.5333 21.739 19.891 21.9554C20.5057 22.3118 21.2037 22.4996 21.9144 22.4996C22.625 22.4996 23.3231 22.3118 23.9378 21.9554C24.2903 21.7267 24.7044 21.6114 25.1243 21.625C25.3564 21.625 25.579 21.5329 25.743 21.3688C25.9071 21.2047 25.9993 20.9821 25.9993 20.75C25.9993 20.518 25.9071 20.2954 25.743 20.1313C25.579 19.9672 25.3564 19.875 25.1243 19.875Z" fill="#E5E5E5"/>
</svg>
