<svg width="48" height="48" viewBox="0 0 48 48" fill="none" xmlns="http://www.w3.org/2000/svg">
<g clip-path="url(#clip0)">
<path d="M47.82 12.0001L33.16 0.0601093C33.1157 0.0213586 33.0589 0 33 0C32.9411 0 32.8843 0.0213586 32.84 0.0601093L18.18 12.0001C18.1256 12.0477 18.0815 12.1061 18.0505 12.1714C18.0196 12.2368 18.0024 12.3078 18 12.3801V30.0901C19.1628 30.2485 20.2817 30.6396 21.29 31.2401C22.0928 31.7681 23.0397 32.0337 24 32.0001C24.957 32.0323 25.9003 31.7668 26.7 31.2401C28.0956 30.3986 29.7006 29.9687 31.33 30.0001C32.9563 29.9684 34.5582 30.3983 35.95 31.2401C36.7684 31.7372 37.7075 32 38.665 32C39.6225 32 40.5616 31.7372 41.38 31.2401C42.7718 30.3983 44.3737 29.9684 46 30.0001C46.6719 29.9953 47.3424 30.0624 48 30.2001V12.3801C47.9976 12.3078 47.9804 12.2368 47.9495 12.1714C47.9185 12.1061 47.8744 12.0477 47.82 12.0001V12.0001ZM46 42.0001C44.3737 41.9684 42.7718 42.3983 41.38 43.2401C40.5616 43.7372 39.6225 44 38.665 44C37.7075 44 36.7684 43.7372 35.95 43.2401C34.5582 42.3983 32.9563 41.9684 31.33 42.0001C29.7006 41.9687 28.0956 42.3986 26.7 43.2401C25.9003 43.7668 24.957 44.0323 24 44.0001C23.0397 44.0337 22.0928 43.7681 21.29 43.2401C19.8938 42.4001 18.2892 41.9703 16.66 42.0001C15.0337 41.9684 13.4318 42.3983 12.04 43.2401C11.2359 43.7653 10.2899 44.0306 9.33 44.0001C8.37012 44.0306 7.42406 43.7653 6.62 43.2401C5.22819 42.3983 3.62626 41.9684 2 42.0001C1.46957 42.0001 0.960859 42.2108 0.585786 42.5859C0.210714 42.961 0 43.4697 0 44.0001C0 44.5305 0.210714 45.0393 0.585786 45.4143C0.960859 45.7894 1.46957 46.0001 2 46.0001C2.95989 45.9696 3.90597 46.2349 4.71 46.7601C6.10183 47.6018 7.70375 48.0318 9.33 48.0001C10.9563 48.0318 12.5582 47.6019 13.95 46.7601C14.7541 46.2349 15.7001 45.9696 16.66 46.0001C17.6201 45.9681 18.5666 46.2335 19.37 46.7601C20.7656 47.6016 22.3706 48.0315 24 48.0001C25.6261 48.0303 27.2276 47.6004 28.62 46.7601C29.4366 46.2631 30.3741 46.0002 31.33 46.0002C32.2859 46.0002 33.2235 46.2631 34.04 46.7601C35.446 47.5725 37.0412 48.0001 38.665 48.0001C40.2888 48.0001 41.884 47.5725 43.29 46.7601C44.0934 46.2335 45.0399 45.9681 46 46.0001C46.5304 46.0001 47.0391 45.7894 47.4142 45.4143C47.7893 45.0393 48 44.5305 48 44.0001C48 43.4697 47.7893 42.961 47.4142 42.5859C47.0391 42.2108 46.5304 42.0001 46 42.0001ZM46 34.0001C44.3716 33.9679 42.7676 34.3994 41.375 35.2441C40.557 35.7386 39.6194 36 38.6635 36C37.7076 36 36.77 35.7386 35.952 35.2441C34.5592 34.3992 32.9548 33.9677 31.326 34.0001C29.6982 33.9678 28.0948 34.3993 26.703 35.2441C25.8988 35.767 24.9537 36.0308 23.995 36.0001C23.036 36.0308 22.0906 35.767 21.286 35.2441C19.8934 34.3994 18.2894 33.9679 16.661 34.0001C15.0329 33.968 13.4292 34.3994 12.037 35.2441C11.2331 35.7668 10.2884 36.0306 9.33 36.0001C8.37204 36.0309 7.42766 35.7674 6.624 35.2451C5.23213 34.3995 3.62827 33.9677 2 34.0001C1.46957 34.0001 0.960859 34.2108 0.585786 34.5859C0.210714 34.961 0 35.4697 0 36.0001C0 36.5305 0.210714 37.0393 0.585786 37.4143C0.960859 37.7894 1.46957 38.0001 2 38.0001C2.95839 37.9695 3.90314 38.2334 4.707 38.7561C6.09847 39.6008 7.70152 40.0323 9.329 40.0001C10.9571 40.0322 12.5608 39.6008 13.953 38.7561C14.7572 38.2332 15.7023 37.9694 16.661 38.0001C17.6204 37.9692 18.5662 38.2331 19.371 38.7561C20.763 39.6005 22.3662 40.0319 23.994 40.0001C25.6222 40.0322 27.226 39.6004 28.618 38.7551C29.4355 38.2606 30.3726 37.9992 31.328 37.9992C32.2834 37.9992 33.2205 38.2606 34.038 38.7551C35.4432 39.5699 37.0387 39.999 38.663 39.999C40.2873 39.999 41.8828 39.5699 43.288 38.7551C44.0937 38.2324 45.0401 37.9689 46 38.0001C46.5304 38.0001 47.0391 37.7894 47.4142 37.4143C47.7893 37.0393 48 36.5305 48 36.0001C48 35.4697 47.7893 34.961 47.4142 34.5859C47.0391 34.2108 46.5304 34.0001 46 34.0001Z" fill="#00214d"/>
</g>
<defs>
<clipPath id="clip0">
<rect width="48" height="48" fill="white"/>
</clipPath>
</defs>
</svg>
