<svg width="32" height="32" viewBox="0 0 32 32" fill="none" xmlns="http://www.w3.org/2000/svg">
<rect x="1" y="1" width="30" height="30" rx="3" fill="var(--ion-color-ibf-trigger-alert-primary)" stroke="var(--ion-color-ibf-trigger-alert-primary)" stroke-width="2"/>
<path d="M9.62642 21.5086C9.5103 21.5086 9.39531 21.5315 9.28803 21.5759C9.18075 21.6204 9.08329 21.6856 9.00121 21.7677L6.26777 24.5006C6.10638 24.6674 6.01698 24.8908 6.01887 25.1229C6.02075 25.3549 6.11376 25.5769 6.27784 25.741C6.44192 25.9051 6.66392 25.9981 6.89596 26C7.128 26.0019 7.35148 25.9125 7.5182 25.7511L10.2516 23.0181C10.3753 22.8945 10.4595 22.7369 10.4936 22.5654C10.5277 22.3939 10.5102 22.2161 10.4433 22.0545C10.3763 21.893 10.263 21.7549 10.1176 21.6577C9.97223 21.5605 9.80129 21.5087 9.62642 21.5086V21.5086ZM16.1321 21.5086C16.016 21.5086 15.901 21.5315 15.7938 21.5759C15.6865 21.6204 15.589 21.6856 15.5069 21.7677L12.7735 24.5006C12.6121 24.6674 12.5227 24.8908 12.5246 25.1229C12.5265 25.3549 12.6195 25.5769 12.7836 25.741C12.9476 25.9051 13.1696 25.9981 13.4017 26C13.6337 26.0019 13.8572 25.9125 14.0239 25.7511L16.7574 23.0181C16.881 22.8945 16.9652 22.7369 16.9993 22.5654C17.0334 22.3939 17.0159 22.2161 16.949 22.0545C16.8821 21.893 16.7687 21.7549 16.6233 21.6577C16.478 21.5605 16.307 21.5087 16.1321 21.5086V21.5086ZM22.6344 21.5086C22.5182 21.5086 22.4032 21.5315 22.296 21.5759C22.1887 21.6204 22.0912 21.6856 22.0091 21.7677L19.2757 24.5006C19.1143 24.6674 19.0249 24.8908 19.0268 25.1229C19.0287 25.3549 19.1217 25.5769 19.2858 25.741C19.4499 25.9051 19.6719 25.9981 19.9039 26C20.1359 26.0019 20.3594 25.9125 20.5261 25.7511L23.2596 23.0181C23.3832 22.8945 23.4674 22.7369 23.5015 22.5654C23.5356 22.3939 23.5181 22.2161 23.4512 22.0545C23.3843 21.893 23.271 21.7549 23.1256 21.6577C22.9802 21.5605 22.8092 21.5087 22.6344 21.5086V21.5086ZM23.5067 10.5099C22.9664 10.508 22.4305 10.6064 21.9261 10.8L21.9211 10.8025C21.685 9.38555 20.9269 8.10841 19.796 7.22266C18.6652 6.3369 17.2436 5.90675 15.8114 6.01695C14.3792 6.12714 13.0402 6.76969 12.0582 7.81801C11.0761 8.86633 10.5223 10.2444 10.5057 11.6808C10.0115 11.5024 9.47907 11.4574 8.96197 11.5503C8.44487 11.6433 7.96139 11.8709 7.56024 12.2101C7.15909 12.5494 6.85443 12.9884 6.67697 13.4829C6.4995 13.9774 6.45549 14.51 6.54937 15.0269L6.54587 15.0264C6.44817 15.0121 6.3495 15.0054 6.25077 15.0064C5.65383 15.0064 5.08134 15.2435 4.65923 15.6656C4.23713 16.0877 4 16.6602 4 17.2572C4 17.8541 4.23713 18.4266 4.65923 18.8487C5.08134 19.2708 5.65383 19.5079 6.25077 19.5079H23.5067C24.548 19.5081 25.5572 19.1473 26.3624 18.4871C27.1677 17.8268 27.7192 16.9079 27.9232 15.8867C27.9794 15.5966 28.0079 15.3019 28.0082 15.0064C28.0081 14.4155 27.8915 13.8305 27.6652 13.2847C27.4388 12.7388 27.1072 12.243 26.6891 11.8254C26.2711 11.4078 25.7748 11.0767 25.2288 10.851C24.6827 10.6253 24.0975 10.5093 23.5067 10.5099V10.5099Z" fill="white"/>
</svg>
