<?xml version="1.0" encoding="UTF-8"?>
<svg xmlns="http://www.w3.org/2000/svg" viewBox="0 0 48 35.633"><path fill="#ffffff" d="M46.707 10.664l-6.243-4.862 1.307-1.308A2.632 2.632 0 1 0 38.05.77l-2.124 2.125-.364-.364a2.632 2.632 0 1 0-3.723 3.722l.364.364-1.015 1.015H5.497A5.503 5.503 0 0 0 0 13.129v9.137a2 2 0 0 0 4 0v-9.137a1.498 1.498 0 0 1 1.496-1.496H6v21a3 3 0 0 0 6 0v-6h1.794a11.474 11.474 0 0 0 17.412 0H33v6a3 3 0 0 0 6 0v-16h5.657a3.336 3.336 0 0 0 2.05-5.97z" data-name="Layer 2" style="fill: #ffffff;"/></svg>
