<svg width="32" height="32" viewBox="0 0 32 32" fill="none" xmlns="http://www.w3.org/2000/svg">
<rect x="1" y="1" width="30" height="30" rx="3" fill="white" stroke="#E5E5E5" stroke-width="2"/>
<path d="M12.0474 18.3146L12.0475 18.3146C12.1598 18.2771 12.2803 18.2716 12.3956 18.2987C12.5108 18.3259 12.6163 18.3845 12.7001 18.4682L14.9116 20.6798L8.42079 27.2258C8.42063 27.226 8.42046 27.2262 8.4203 27.2263C8.2448 27.4016 8.00692 27.5 7.75889 27.5C7.51063 27.5 7.27253 27.4014 7.09698 27.2258C6.92143 27.0503 6.82281 26.8122 6.82281 26.5639C6.82281 26.3156 6.92143 26.0775 7.09699 25.902L7.09869 25.9002L11.5253 21.4305L11.0119 20.6043L5.73928 22.3619L5.73925 22.3618L5.72975 22.3652C5.61439 22.4062 5.49201 22.4239 5.36976 22.4171C5.2475 22.4102 5.12783 22.3791 5.01774 22.3255C4.90766 22.2719 4.80937 22.1969 4.72862 22.1048C4.64788 22.0128 4.5863 21.9055 4.54749 21.7894C4.50867 21.6733 4.49341 21.5506 4.50259 21.4284C4.51177 21.3063 4.54521 21.1873 4.60094 21.0783C4.65668 20.9692 4.7336 20.8724 4.8272 20.7935C4.9208 20.7145 5.0292 20.655 5.14606 20.6185L5.14609 20.6186L5.15514 20.6155L12.0474 18.3146ZM24.9003 8.09816L24.902 8.09647C25.0776 7.92092 25.3157 7.82229 25.5639 7.82229C25.8122 7.82229 26.0503 7.92092 26.2258 8.09647C26.4014 8.27202 26.5 8.51013 26.5 8.75841C26.5 9.00641 26.4016 9.24427 26.2264 9.41976C26.2262 9.41996 26.226 9.42015 26.2258 9.42035L19.68 15.9113L17.4693 13.7006L17.4692 13.7005C17.3855 13.6168 17.3267 13.5113 17.2995 13.396C17.2723 13.2807 17.2778 13.1601 17.3154 13.0478L17.3154 13.0476L19.6163 6.15516L19.6164 6.15519L19.6193 6.14608C19.6558 6.02921 19.7153 5.9208 19.7942 5.8272C19.8732 5.7336 19.97 5.65668 20.079 5.60094C20.188 5.54521 20.3071 5.51177 20.4292 5.50259C20.5513 5.49341 20.674 5.50867 20.7901 5.54748C20.9063 5.58629 21.0135 5.64787 21.1055 5.72862C21.1976 5.80937 21.2726 5.90766 21.3262 6.01776C21.3798 6.12784 21.4109 6.24752 21.4178 6.36978L21.917 6.34198L21.4178 6.36979C21.4246 6.49205 21.4069 6.61444 21.3659 6.7298L21.3658 6.72977L21.3626 6.73929L19.6045 12.012L20.4307 12.5254L24.9003 8.09816ZM17.7441 19.9024L17.7575 19.6779L17.5985 19.5189L9.32491 11.2451L9.32497 11.2451L9.31822 11.2386C9.25585 11.1785 9.20608 11.1066 9.17182 11.027C9.13756 10.9475 9.1195 10.8619 9.11868 10.7753C9.11787 10.6887 9.13433 10.6029 9.16709 10.5227C9.19986 10.4425 9.24827 10.3697 9.3095 10.3085L8.95595 9.95492L9.3095 10.3085C9.37074 10.2472 9.44356 10.1988 9.52372 10.1661C9.60387 10.1333 9.68976 10.1168 9.77634 10.1177C9.86294 10.1185 9.9485 10.1365 10.028 10.1708L10.2258 9.71158L10.028 10.1708C10.1076 10.205 10.1795 10.2548 10.2395 10.3172L10.2395 10.3172L10.2461 10.3239L18.5191 18.5977L18.6739 18.7525L18.8927 18.7437C18.9178 18.7427 18.9391 18.7405 18.9541 18.7387C18.9634 18.7376 18.973 18.7362 18.9792 18.7354C19.1628 18.735 19.344 18.7767 19.509 18.8574C19.6781 18.9401 19.8254 19.0614 19.9389 19.2116L20.3377 18.9099L19.9389 19.2116C20.0525 19.3617 20.1291 19.5364 20.1627 19.7216C20.1962 19.9069 20.1857 20.0974 20.132 20.2778L20.0197 20.6553L20.3603 20.8529C20.3636 20.8548 20.3669 20.8568 20.3701 20.8588L21.2211 21.7098C21.2854 21.7778 21.3209 21.868 21.32 21.9616C21.3191 22.0564 21.2811 22.1471 21.214 22.2141C21.147 22.2811 21.0563 22.3191 20.9615 22.3199C20.8678 22.3206 20.7775 22.285 20.7096 22.2206L19.859 21.3699C19.857 21.3668 19.8551 21.3636 19.8532 21.3603L19.6556 21.0195L19.278 21.1319C19.0976 21.1856 18.9071 21.196 18.7219 21.1625C18.5366 21.129 18.3619 21.0523 18.2118 20.9388C18.0617 20.8252 17.9403 20.678 17.8576 20.5089C17.7771 20.3441 17.7353 20.1631 17.7356 19.9798L17.736 19.977L17.7385 19.9594C17.7403 19.9457 17.7427 19.9258 17.7441 19.9024Z" fill="#E5E5E5" stroke="#E5E5E5"/>
</svg>
