<svg width="32" height="32" viewBox="0 0 32 32" fill="none" xmlns="http://www.w3.org/2000/svg">
<rect x="1" y="1" width="30" height="30" rx="3" fill="#011E41" stroke="#011E41" stroke-width="2"/>
<path d="M13.0533 17.1143C12.9038 16.9651 12.7157 16.8604 12.5101 16.812C12.3045 16.7636 12.0894 16.7734 11.8891 16.8403L4.99681 19.1413C4.8165 19.1977 4.64924 19.2895 4.50483 19.4113C4.36041 19.5331 4.24174 19.6825 4.15574 19.8507C4.06975 20.0189 4.01816 20.2026 4.004 20.391C3.98984 20.5794 4.01338 20.7687 4.07326 20.9479C4.13314 21.1271 4.22815 21.2925 4.35274 21.4345C4.47732 21.5766 4.62897 21.6923 4.79883 21.775C4.96868 21.8578 5.15332 21.9058 5.34195 21.9163C5.53058 21.9268 5.71941 21.8996 5.8974 21.8362L11.17 20.0786L6.74343 24.5484C6.47411 24.8177 6.32281 25.183 6.32281 25.5639C6.32281 25.9448 6.47411 26.3101 6.74343 26.5794C7.01274 26.8487 7.37802 27 7.75889 27C8.13976 27 8.50503 26.8487 8.77435 26.5794L15.6172 19.6783L13.0533 17.1143ZM19.6785 15.6169L26.5794 8.77389C26.8487 8.50457 27 8.13929 27 7.75841C27 7.37753 26.8487 7.01224 26.5794 6.74292C26.3101 6.4736 25.9448 6.32229 25.5639 6.32229C25.1831 6.32229 24.8178 6.4736 24.5485 6.74292L20.0788 11.1702L21.8369 5.89745C21.9003 5.71946 21.9275 5.53062 21.917 5.34198C21.9065 5.15335 21.8585 4.9687 21.7758 4.79885C21.693 4.62899 21.5773 4.47733 21.4353 4.35275C21.2932 4.22816 21.1278 4.13315 20.9486 4.07327C20.7694 4.01338 20.5801 3.98984 20.3917 4.004C20.2033 4.01816 20.0196 4.06975 19.8514 4.15575C19.6832 4.24174 19.5338 4.36042 19.412 4.50484C19.2902 4.64926 19.1984 4.81652 19.142 4.99683L16.8412 11.8893C16.7742 12.0898 16.7644 12.305 16.8128 12.5107C16.8613 12.7165 16.9662 12.9046 17.1157 13.0541L19.6785 15.6169ZM17.245 18.8725C17.2432 18.9012 17.2358 18.9293 17.2358 18.9586C17.2322 19.2253 17.2913 19.489 17.4085 19.7285C17.5256 19.9681 17.6975 20.1767 17.9102 20.3376C18.1229 20.4984 18.3704 20.607 18.6328 20.6545C18.8952 20.702 19.165 20.6871 19.4206 20.6111C19.4371 20.6396 19.4553 20.667 19.4752 20.6932L20.3597 21.5778C20.5221 21.7348 20.7397 21.8217 20.9656 21.8199C21.1915 21.818 21.4076 21.7275 21.5674 21.5678C21.7272 21.4082 21.8179 21.1921 21.82 20.9662C21.8221 20.7403 21.7353 20.5227 21.5785 20.3601L20.694 19.4756C20.6676 19.4555 20.6399 19.4371 20.6113 19.4204C20.6873 19.1648 20.7022 18.8949 20.6547 18.6326C20.6072 18.3702 20.4986 18.1226 20.3377 17.9099C20.1769 17.6973 19.9683 17.5254 19.7287 17.4082C19.4892 17.2911 19.2255 17.2319 18.9588 17.2355C18.9295 17.2355 18.9014 17.243 18.8727 17.2441L10.5997 8.97033C10.4935 8.8601 10.3664 8.77213 10.2258 8.71158C10.0853 8.65103 9.93407 8.61911 9.78103 8.61767C9.62799 8.61624 9.47621 8.64532 9.33454 8.70323C9.19287 8.76113 9.06416 8.8467 8.95595 8.95492C8.84773 9.06314 8.76216 9.19185 8.70426 9.33352C8.64636 9.47519 8.61727 9.62699 8.61871 9.78003C8.62014 9.93307 8.65207 10.0843 8.71262 10.2249C8.77316 10.3654 8.86112 10.4925 8.97135 10.5987L17.245 18.8725Z" fill="white"/>
<path d="M28.48 29L28.471 25.22L26.617 28.334H25.96L24.115 25.301V29H22.747V22.7H23.953L26.311 26.615L28.633 22.7H29.83L29.848 29H28.48Z" fill="white"/>
</svg>
