<svg width="48" height="48" viewBox="0 0 48 48" fill="none" xmlns="http://www.w3.org/2000/svg">
<g clip-path="url(#clip0)">
<path d="M22.5673 31.0242L18.9114 27.3683C18.5994 27.0569 18.2069 26.8385 17.7778 26.7375C17.3487 26.6365 16.8999 26.657 16.4817 26.7966L2.09788 31.5984C1.72158 31.7161 1.37252 31.9076 1.07114 32.1618C0.769747 32.416 0.522075 32.7278 0.342606 33.0788C0.163138 33.4299 0.0554775 33.8132 0.025922 34.2064C-0.0036335 34.5996 0.0455097 34.9947 0.170477 35.3686C0.295444 35.7426 0.493726 36.0878 0.753724 36.3842C1.01372 36.6806 1.33022 36.9222 1.68469 37.0948C2.03917 37.2674 2.42451 37.3677 2.81817 37.3896C3.21184 37.4115 3.60592 37.3547 3.97737 37.2225L14.981 33.5546L5.74299 42.8825C5.18093 43.4446 4.86518 44.2069 4.86518 45.0018C4.86518 45.7966 5.18093 46.5589 5.74299 47.121C6.30504 47.6831 7.06735 47.9988 7.86221 47.9988C8.65707 47.9988 9.41938 47.6831 9.98144 47.121L24.2622 32.7191L22.5673 31.0242ZM30.6187 22.1242L32.7379 24.2434L47.1398 9.96266C47.7018 9.40061 48.0176 8.6383 48.0176 7.84344C48.0176 7.04857 47.7018 6.28627 47.1398 5.72421C46.5777 5.16216 45.8154 4.8464 45.0205 4.8464C44.2257 4.8464 43.4634 5.16216 42.9013 5.72421L33.5734 14.9635L37.2425 3.95979C37.3747 3.58834 37.4315 3.19426 37.4095 2.80059C37.3876 2.40693 37.2874 2.02159 37.1148 1.66711C36.9422 1.31264 36.7006 0.996144 36.4042 0.736146C36.1078 0.476148 35.7625 0.277866 35.3886 0.152899C35.0146 0.0279316 34.6195 -0.0212116 34.2264 0.00834386C33.8332 0.0378993 33.4499 0.14556 33.0988 0.325028C32.7478 0.504497 32.436 0.752169 32.1818 1.05356C31.9276 1.35495 31.7361 1.704 31.6184 2.0803L26.8166 16.4642C26.6767 16.8826 26.6562 17.3317 26.7574 17.7611C26.8586 18.1905 27.0775 18.5831 27.3895 18.895L30.6187 22.1242ZM26.8561 30.2343L27.6592 31.0374C27.6556 31.0974 27.64 31.1561 27.64 31.2172C27.6325 31.7737 27.756 32.3241 28.0005 32.824C28.245 33.3239 28.6037 33.7593 29.0475 34.0949C29.4914 34.4306 30.0079 34.6572 30.5555 34.7564C31.1031 34.8555 31.6663 34.8245 32.1997 34.6658C32.2342 34.7252 32.2722 34.7824 32.3136 34.8372L34.1595 36.6831C34.4985 37.0108 34.9526 37.1922 35.424 37.1884C35.8954 37.1845 36.3465 36.9956 36.68 36.6624C37.0135 36.3292 37.2028 35.8783 37.2071 35.4069C37.2114 34.9355 37.0304 34.4812 36.7031 34.142L34.8571 32.296C34.8021 32.2541 34.7444 32.2157 34.6845 32.181C34.8433 31.6476 34.8743 31.0843 34.7751 30.5368C34.676 29.9892 34.4494 29.4726 34.1137 29.0287C33.778 28.5849 33.3427 28.2262 32.8428 27.9817C32.3428 27.7372 31.7924 27.6137 31.236 27.6213C31.1749 27.6213 31.1161 27.6368 31.0562 27.6392L30.2531 26.8361L13.7908 10.3726C13.5692 10.1426 13.304 9.95899 13.0106 9.83263C12.7173 9.70626 12.4017 9.63964 12.0823 9.63664C11.763 9.63365 11.4462 9.69435 11.1505 9.81519C10.8549 9.93604 10.5863 10.1146 10.3604 10.3404C10.1346 10.5663 9.95601 10.8349 9.83516 11.1306C9.71432 11.4262 9.65362 11.743 9.65662 12.0624C9.65961 12.3818 9.72624 12.6973 9.8526 12.9907C9.97897 13.284 10.1625 13.5492 10.3926 13.7708L26.8561 30.2343Z" fill="#00214d"/>
</g>
<defs>
<clipPath id="clip0">
<rect width="48" height="48" fill="white"/>
</clipPath>
</defs>
</svg>
