<svg width="48" height="48" viewBox="0 0 48 48" fill="none" xmlns="http://www.w3.org/2000/svg">
<g clip-path="url(#clip0_402_18021)">
<path d="M23 11V48H48V11H23ZM37.0625 43.375C37.0625 43.7839 36.8979 44.176 36.6049 44.4651C36.3118 44.7542 35.9144 44.9167 35.5 44.9167C35.0856 44.9167 34.6882 44.7542 34.3951 44.4651C34.1021 44.176 33.9375 43.7839 33.9375 43.375V38.75C33.9387 38.3415 34.1038 37.9501 34.3965 37.6612C34.6893 37.3724 35.086 37.2096 35.5 37.2083C35.9135 37.2112 36.3093 37.3745 36.6017 37.663C36.8941 37.9515 37.0596 38.342 37.0625 38.75V43.375ZM37.0625 31.8125C37.0625 32.2214 36.8979 32.6135 36.6049 32.9026C36.3118 33.1917 35.9144 33.3542 35.5 33.3542C35.0856 33.3542 34.6882 33.1917 34.3951 32.9026C34.1021 32.6135 33.9375 32.2214 33.9375 31.8125V27.1875C33.9387 26.779 34.1038 26.3876 34.3965 26.0987C34.6893 25.8099 35.086 25.6471 35.5 25.6458C35.9135 25.6487 36.3093 25.812 36.6017 26.1005C36.8941 26.389 37.0596 26.7795 37.0625 27.1875V31.8125ZM37.0625 20.25C37.0625 20.6589 36.8979 21.051 36.6049 21.3401C36.3118 21.6292 35.9144 21.7917 35.5 21.7917C35.0856 21.7917 34.6882 21.6292 34.3951 21.3401C34.1021 21.051 33.9375 20.6589 33.9375 20.25V15.625C33.9387 15.2165 34.1038 14.8251 34.3965 14.5362C34.6893 14.2474 35.086 14.0846 35.5 14.0833C35.9135 14.0862 36.3093 14.2495 36.6017 14.538C36.8941 14.8265 37.0596 15.217 37.0625 15.625V20.25Z" fill="#0f1218"/>
<path d="M20 10C20 8.02219 19.4135 6.08879 18.3147 4.4443C17.2159 2.79981 15.6541 1.51809 13.8268 0.761209C11.9996 0.00433284 9.98891 -0.193701 8.0491 0.192152C6.10929 0.578004 4.32746 1.53041 2.92894 2.92894C1.53041 4.32746 0.578004 6.10929 0.192152 8.0491C-0.193701 9.98891 0.00433284 11.9996 0.761209 13.8268C1.51809 15.6541 2.79981 17.2159 4.4443 18.3147C6.08879 19.4135 8.02219 20 10 20C12.6518 19.9989 15.1948 18.945 17.0699 17.0699C18.945 15.1948 19.9989 12.6518 20 10ZM10 17C9.80222 17 9.60888 16.9414 9.44443 16.8315C9.27999 16.7216 9.15181 16.5654 9.07613 16.3827C9.00044 16.2 8.98063 15.9989 9.01922 15.8049C9.0578 15.6109 9.15305 15.4328 9.2929 15.2929C9.43275 15.153 9.61093 15.0578 9.80491 15.0192C9.9989 14.9806 10.2 15.0004 10.3827 15.0761C10.5654 15.1518 10.7216 15.28 10.8315 15.4444C10.9414 15.6089 11 15.8022 11 16C10.9992 16.265 10.8936 16.5189 10.7062 16.7062C10.5189 16.8936 10.265 16.9992 10 17ZM11 12C11 12.2652 10.8946 12.5196 10.7071 12.7071C10.5196 12.8946 10.2652 13 10 13C9.73479 13 9.48043 12.8946 9.2929 12.7071C9.10536 12.5196 9 12.2652 9 12V4C9 3.73479 9.10536 3.48043 9.2929 3.2929C9.48043 3.10536 9.73479 3 10 3C10.2652 3 10.5196 3.10536 10.7071 3.2929C10.8946 3.48043 11 3.73479 11 4V12Z" fill="#0f1218"/>
</g>
<defs>
<clipPath id="clip0_402_18021">
<rect width="48" height="48" fill="white"/>
</clipPath>
</defs>
</svg>
