<svg width="12" height="12" viewBox="0 0 12 12" fill="none" xmlns="http://www.w3.org/2000/svg">
<path d="M1.7998 0V12H10.2009V0H1.7998ZM6.52542 10.5C6.52542 10.6326 6.4701 10.7598 6.37163 10.8536C6.27316 10.9473 6.13961 11 6.00035 11C5.86109 11 5.72754 10.9473 5.62907 10.8536C5.5306 10.7598 5.47528 10.6326 5.47528 10.5V9C5.4757 8.86751 5.53115 8.74057 5.62953 8.64688C5.72791 8.5532 5.86122 8.5004 6.00035 8.5C6.13931 8.50092 6.27231 8.55389 6.37057 8.64746C6.46883 8.74103 6.52446 8.86767 6.52542 9V10.5ZM6.52542 6.75C6.52542 6.88261 6.4701 7.00979 6.37163 7.10355C6.27316 7.19732 6.13961 7.25 6.00035 7.25C5.86109 7.25 5.72754 7.19732 5.62907 7.10355C5.5306 7.00979 5.47528 6.88261 5.47528 6.75V5.25C5.4757 5.11751 5.53115 4.99057 5.62953 4.89688C5.72791 4.8032 5.86122 4.7504 6.00035 4.75C6.13931 4.75092 6.27231 4.80389 6.37057 4.89746C6.46883 4.99103 6.52446 5.11767 6.52542 5.25V6.75ZM6.52542 3C6.52542 3.13261 6.4701 3.25979 6.37163 3.35355C6.27316 3.44732 6.13961 3.5 6.00035 3.5C5.86109 3.5 5.72754 3.44732 5.62907 3.35355C5.5306 3.25979 5.47528 3.13261 5.47528 3V1.5C5.4757 1.36751 5.53115 1.24057 5.62953 1.14688C5.72791 1.0532 5.86122 1.0004 6.00035 1C6.13931 1.00092 6.27231 1.05389 6.37057 1.14746C6.46883 1.24103 6.52446 1.36767 6.52542 1.5V3Z" fill="#0F1218"/>
</svg>
