<svg width="48" height="48" viewBox="0 0 48 48" fill="none" xmlns="http://www.w3.org/2000/svg">
<g clip-path="url(#clip0_402_18025)">
<path d="M47.903 24.046C47.8392 23.9118 47.7463 23.7936 47.631 23.7L32 11L16.37 23.7C16.2546 23.7937 16.1615 23.912 16.0975 24.0463C16.0335 24.1805 16.0002 24.3273 16 24.476V48H48V24.476C48.0001 24.3272 47.967 24.1803 47.903 24.046ZM20 10C20 8.02219 19.4135 6.08879 18.3147 4.4443C17.2159 2.79981 15.6541 1.51809 13.8268 0.761209C11.9996 0.00433284 9.98891 -0.193701 8.0491 0.192152C6.10929 0.578004 4.32746 1.53041 2.92894 2.92894C1.53041 4.32746 0.578004 6.10929 0.192152 8.0491C-0.193701 9.98891 0.00433284 11.9996 0.761209 13.8268C1.51809 15.6541 2.79981 17.2159 4.4443 18.3147C6.08879 19.4135 8.02219 20 10 20C12.6522 20 15.1957 18.9464 17.0711 17.0711C18.9464 15.1957 20 12.6522 20 10ZM9 4C9 3.73479 9.10536 3.48043 9.2929 3.2929C9.48043 3.10536 9.73479 3 10 3C10.2652 3 10.5196 3.10536 10.7071 3.2929C10.8946 3.48043 11 3.73479 11 4V12C11 12.2652 10.8946 12.5196 10.7071 12.7071C10.5196 12.8946 10.2652 13 10 13C9.73479 13 9.48043 12.8946 9.2929 12.7071C9.10536 12.5196 9 12.2652 9 12V4ZM10 17.134C9.77572 17.134 9.55647 17.0675 9.36999 16.9429C9.1835 16.8183 9.03816 16.6412 8.95233 16.434C8.8665 16.2268 8.84404 15.9987 8.88779 15.7788C8.93155 15.5588 9.03955 15.3567 9.19815 15.1981C9.35674 15.0396 9.5588 14.9316 9.77877 14.8878C9.99875 14.844 10.2268 14.8665 10.434 14.9523C10.6412 15.0382 10.8183 15.1835 10.9429 15.37C11.0675 15.5565 11.134 15.7757 11.134 16C11.134 16.3008 11.0145 16.5892 10.8019 16.8019C10.5892 17.0145 10.3008 17.134 10 17.134Z" fill="#0f1218"/>
<path d="M34.5977 37.832C34.5977 37.5273 34.5508 37.2539 34.457 37.0117C34.3711 36.7617 34.207 36.5352 33.9648 36.332C33.7227 36.1211 33.3828 35.9141 32.9453 35.7109C32.5078 35.5078 31.9414 35.2969 31.2461 35.0781C30.4727 34.8281 29.7383 34.5469 29.043 34.2344C28.3555 33.9219 27.7461 33.5586 27.2148 33.1445C26.6914 32.7227 26.2773 32.2344 25.9727 31.6797C25.6758 31.125 25.5273 30.4805 25.5273 29.7461C25.5273 29.0352 25.6836 28.3906 25.9961 27.8125C26.3086 27.2266 26.7461 26.7266 27.3086 26.3125C27.8711 25.8906 28.5352 25.5664 29.3008 25.3398C30.0742 25.1133 30.9219 25 31.8438 25C33.1016 25 34.1992 25.2266 35.1367 25.6797C36.0742 26.1328 36.8008 26.7539 37.3164 27.543C37.8398 28.332 38.1016 29.2344 38.1016 30.25H34.6094C34.6094 29.75 34.5039 29.3125 34.293 28.9375C34.0898 28.5547 33.7773 28.2539 33.3555 28.0352C32.9414 27.8164 32.418 27.707 31.7852 27.707C31.1758 27.707 30.668 27.8008 30.2617 27.9883C29.8555 28.168 29.5508 28.4141 29.3477 28.7266C29.1445 29.0312 29.043 29.375 29.043 29.7578C29.043 30.0469 29.1133 30.3086 29.2539 30.543C29.4023 30.7773 29.6211 30.9961 29.9102 31.1992C30.1992 31.4023 30.5547 31.5938 30.9766 31.7734C31.3984 31.9531 31.8867 32.1289 32.4414 32.3008C33.3711 32.582 34.1875 32.8984 34.8906 33.25C35.6016 33.6016 36.1953 33.9961 36.6719 34.4336C37.1484 34.8711 37.5078 35.3672 37.75 35.9219C37.9922 36.4766 38.1133 37.1055 38.1133 37.8086C38.1133 38.5508 37.9688 39.2148 37.6797 39.8008C37.3906 40.3867 36.9727 40.8828 36.4258 41.2891C35.8789 41.6953 35.2266 42.0039 34.4688 42.2148C33.7109 42.4258 32.8633 42.5312 31.9258 42.5312C31.082 42.5312 30.25 42.4219 29.4297 42.2031C28.6094 41.9766 27.8633 41.6367 27.1914 41.1836C26.5273 40.7305 25.9961 40.1523 25.5977 39.4492C25.1992 38.7461 25 37.9141 25 36.9531H28.5273C28.5273 37.4844 28.6094 37.9336 28.7734 38.3008C28.9375 38.668 29.168 38.9648 29.4648 39.1914C29.7695 39.418 30.1289 39.582 30.543 39.6836C30.9648 39.7852 31.4258 39.8359 31.9258 39.8359C32.5352 39.8359 33.0352 39.75 33.4258 39.5781C33.8242 39.4062 34.1172 39.168 34.3047 38.8633C34.5 38.5586 34.5977 38.2148 34.5977 37.832Z" fill="white"/>
</g>
<defs>
<clipPath id="clip0_402_18025">
<rect width="48" height="48" fill="white"/>
</clipPath>
</defs>
</svg>
