<svg width="35" height="35" viewBox="0 0 35 35" fill="none" xmlns="http://www.w3.org/2000/svg">
<rect width="35" height="35" fill="white"/>
<rect width="35" height="35" fill="black"/>
<path d="M29.1568 5.77468C29.5584 6.18628 30.0334 6.71909 30 7.5C31.3674 8.65744 30.9975 10.2393 30.9906 10.2968C30.9784 10.3874 30.921 10.4661 30.8389 10.5054C30.801 10.5228 30.7602 10.5332 30.7196 10.5332C30.6712 10.5332 30.6227 10.5197 30.5805 10.4939C30.1348 10.2314 29.7282 10.0979 29.3725 10.0979C29.0258 10.0979 28.7216 10.2275 28.4695 10.4853C27.9775 10.9869 27.7712 11.8597 27.7857 12.5019C27.8006 13.9653 27.9888 14.8673 28.1877 15.8205L28.1889 15.8262L28.19 15.8315C28.3822 16.7531 28.5808 17.7052 28.6108 19.1794C28.6108 21.7838 27.5712 23.979 25.6046 25.5315C23.9074 26.872 21.6272 27.6505 18.9649 27.8101C18.9681 27.8358 18.9741 27.8631 18.9741 27.891V31.0921H21.7377C22.265 31.0921 22.6927 31.5196 22.6927 32.0461C22.6927 32.5736 22.265 33 21.7377 33H15.9364C15.4094 33 14.9813 32.5736 14.9813 32.0461C14.9813 31.5196 15.4094 31.0921 15.9364 31.0921H17.063V27.891C17.063 27.8654 17.0683 27.8402 17.0706 27.8145C10.5702 27.4653 8.69956 23.8591 7.50003 22C5.5 21.5 5.41636 19.0747 6.00003 18.5C4 17.5 4.86823 15.3861 5.49937 15C2.6148 13.2735 4.26201 11.0612 4.99916 10C8.23801 11.9319 17.5 19.5 20.8579 10.8074C21.7892 7.87125 22.7231 6.30257 23.0396 5.81908C22.4403 4.90444 22.5406 4.25779 22.7397 3.86928C23.1069 3.15427 24.0067 2.88715 24.4868 2.88715C24.5617 2.88715 24.6303 2.89191 24.6921 2.90301C25.1975 2.12246 25.818 2 26.1586 2C26.8177 2 27.4384 2.44701 27.6882 3.07392C27.7735 3.06881 27.8573 3.06599 27.9373 3.06599C28.9515 3.06599 29.3515 3.51706 29.5084 3.89465C29.7554 4.48897 29.537 5.25807 29.1568 5.77468Z" fill="white"/>
</svg>
