<svg width="48" height="48" viewBox="0 0 48 48" fill="none" xmlns="http://www.w3.org/2000/svg">
<g clip-path="url(#clip0_402_18020)">
<path d="M34.183 11.0427C34.24 11.0707 34.2898 11.1115 34.3288 11.162C36.3475 13.7828 46.9992 27.8967 46.9992 34.5953C47.0379 38.1103 45.6903 41.497 43.2527 44.0107C40.815 46.5244 37.4869 47.9593 34 48C30.5131 47.9593 27.185 46.5244 24.7473 44.0107C22.3097 41.497 20.9621 38.1103 21.0008 34.5953C21.0008 27.8967 31.6525 13.7828 33.6712 11.162C33.7102 11.1115 33.76 11.0707 33.817 11.0427C33.874 11.0146 33.9366 11 34 11C34.0634 11 34.126 11.0146 34.183 11.0427Z" fill="#00214D"/>
<circle cx="10" cy="10" r="13" fill="white"/>
<path d="M20 10C20 8.02219 19.4135 6.08879 18.3147 4.4443C17.2159 2.79981 15.6541 1.51809 13.8268 0.761209C11.9996 0.00433284 9.98891 -0.193701 8.0491 0.192152C6.10929 0.578004 4.32746 1.53041 2.92894 2.92894C1.53041 4.32746 0.578004 6.10929 0.192152 8.0491C-0.193701 9.98891 0.00433284 11.9996 0.761209 13.8268C1.51809 15.6541 2.79981 17.2159 4.4443 18.3147C6.08879 19.4135 8.02219 20 10 20C12.6518 19.9989 15.1948 18.945 17.0699 17.0699C18.945 15.1948 19.9989 12.6518 20 10ZM10 17C9.80222 17 9.60888 16.9414 9.44443 16.8315C9.27999 16.7216 9.15181 16.5654 9.07613 16.3827C9.00044 16.2 8.98063 15.9989 9.01922 15.8049C9.0578 15.6109 9.15305 15.4328 9.2929 15.2929C9.43275 15.153 9.61093 15.0578 9.80491 15.0192C9.9989 14.9806 10.2 15.0004 10.3827 15.0761C10.5654 15.1518 10.7216 15.28 10.8315 15.4444C10.9414 15.6089 11 15.8022 11 16C10.9992 16.265 10.8936 16.5189 10.7062 16.7062C10.5189 16.8936 10.265 16.9992 10 17ZM11 12C11 12.2652 10.8946 12.5196 10.7071 12.7071C10.5196 12.8946 10.2652 13 10 13C9.73479 13 9.48043 12.8946 9.2929 12.7071C9.10536 12.5196 9 12.2652 9 12V4C9 3.73479 9.10536 3.48043 9.2929 3.2929C9.48043 3.10536 9.73479 3 10 3C10.2652 3 10.5196 3.10536 10.7071 3.2929C10.8946 3.48043 11 3.73479 11 4V12Z" fill="#00214D"/>
</g>
<defs>
<clipPath id="clip0_402_18020">
<rect width="48" height="48" fill="white"/>
</clipPath>
</defs>
</svg>
