<svg width="12" height="12" viewBox="0 0 12 12" fill="none" xmlns="http://www.w3.org/2000/svg">
<g clip-path="url(#clip0_959_1004)">
<path d="M6.06009 0.0138217C6.07872 0.0229261 6.09503 0.0361624 6.10777 0.0525221C6.76777 0.902522 10.2503 5.48002 10.2503 7.65252C10.2629 8.79255 9.82235 9.89094 9.02537 10.7062C8.2284 11.5215 7.14028 11.9868 6.00027 12C4.86025 11.9868 3.77213 11.5215 2.97516 10.7062C2.17818 9.89094 1.7376 8.79255 1.75027 7.65252C1.75027 5.48002 5.23277 0.902522 5.89277 0.0525221C5.90551 0.0361624 5.92181 0.0229261 5.94044 0.0138217C5.95907 0.00471723 5.97953 -1.52588e-05 6.00027 -1.52588e-05C6.021 -1.52588e-05 6.04146 0.00471723 6.06009 0.0138217Z" fill="#0F1218"/>
</g>
<defs>
<clipPath id="clip0_959_1004">
<rect width="12" height="12" fill="white"/>
</clipPath>
</defs>
</svg>
