<svg width="324.787" height="328.133" viewBox="0 0 324.787 328.133" xmlns="http://www.w3.org/2000/svg" xmlns:xlink="http://www.w3.org/1999/xlink" id="svg2" overflow="hidden"><defs id="defs6"></defs><g id="g10" transform="matrix(1.33333 0 0 -1.33333 0 328.133)"><g id="g12" transform="scale(0.1 0.1)"><path d="M1057.74 1375.39 737.246 1375.39 737.246 1054.89 1057.74 1054.89 1057.74 734.43 1378.21 734.43 1378.21 1054.89 1698.67 1054.89 1698.67 1375.39 1378.21 1375.39 1378.21 1695.87 1057.74 1695.87 1057.74 1375.39" id="path14" fill="#ED1C24"/><path d="M301.848 1386.27C353.43 1381.92 377.09 1356.09 372.551 1302.27 368.008 1248.46 340.352 1226.96 288.777 1231.31L184.387 1240.12 188.289 1286.46 295.422 1277.42C318.352 1275.49 330.77 1282.97 332.688 1305.64 334.602 1328.31 323.605 1337.77 300.684 1339.71L193.555 1348.74 197.461 1395.08 301.848 1386.27" id="path16" fill="#ED1C24"/><path d="M432.273 1570.66 423.066 1542.12 403.66 1545.48C416.316 1528.54 415.598 1506.71 410.527 1491.01 393.953 1439.62 343.953 1418.98 294.719 1434.86 245.469 1450.74 216.953 1496.7 233.523 1548.09 244.883 1583.3 275.801 1614.82 319.688 1605.14L305.422 1560.89C290.449 1564.14 277.039 1552.7 271.289 1534.86 262.078 1506.31 283.762 1487.24 308.984 1479.11 334.199 1470.98 362.949 1473.79 372.156 1502.33 379.211 1524.22 373.738 1542.27 359.043 1549.63L349.07 1518.71 316.238 1529.3 339.258 1600.67 432.273 1570.66" id="path18" fill="#ED1C24"/><path d="M416.145 1679.05 436.711 1713.92 372.859 1728.66 372.605 1728.23ZM318.176 1733.35 342.168 1774.04 529.785 1740.86 505.156 1699.1 472.012 1705.88 440.391 1652.27 462.234 1626.33 437.988 1585.21 318.176 1733.35" id="path20" fill="#ED1C24"/><path d="M410.234 1875.12 442.715 1910.14 565.559 1880.79 565.898 1881.14 485.227 1955.97 514.98 1988.06 645.898 1866.64 613.418 1831.62 489.656 1861.84 489.316 1861.46 570.906 1785.79 541.145 1753.7 410.234 1875.12" id="path22" fill="#ED1C24"/><path d="M688.254 1949.13 706.418 1961.54C735.098 1982.05 738.895 2001.31 718.723 2030.82 700.391 2057.66 677.051 2060.79 650.84 2042.88L632.668 2030.46ZM571.711 2037.25 635.066 2080.55C680.281 2111.45 726.086 2102.48 757.266 2056.86 790.273 2008.56 780.598 1963.79 735.801 1933.17L672.434 1889.87 571.711 2037.25" id="path24" fill="#ED1C24"/><path d="M857.781 2075.9 895.398 2090.91 853.895 2141.63 853.438 2141.44ZM813.496 2178.8 857.383 2196.31 985.508 2055.26 940.469 2037.29 918.398 2062.94 860.574 2039.87 861.992 2005.98 817.645 1988.29 813.496 2178.8" id="path26" fill="#ED1C24"/><path d="M1128.33 2179.75 1167.26 2182.34C1181.22 2183.27 1188.21 2191.25 1187.31 2204.73 1186.44 2217.95 1175.56 2223.24 1162.59 2222.38L1125.65 2219.92ZM1076.79 2254.02 1167.6 2260.05C1199.04 2262.14 1230.93 2249.97 1233.31 2214.05 1234.59 2194.83 1226.56 2176 1208.33 2167.53L1208.37 2167.03C1227.63 2163.8 1234.52 2142.95 1237.16 2126.08 1238.15 2118.63 1240.63 2092.49 1247.3 2086.41L1201.4 2083.36C1197.01 2089.09 1195.1 2106.5 1194.27 2111.46 1191.83 2129.34 1187.61 2147.61 1165.9 2146.16L1130.72 2143.82 1135.03 2078.95 1088.62 2075.87 1076.79 2254.02" id="path28" fill="#ED1C24"/><path d="M1298.53 2260.42 1439.28 2239.86 1433.9 2203 1339.15 2216.84 1334.64 2185.91 1421.22 2173.27 1416.02 2137.65 1329.43 2150.29 1324.52 2116.66 1421.73 2102.45 1415.95 2062.87 1272.72 2083.79 1298.53 2260.42" id="path30" fill="#ED1C24"/><path d="M1503.38 2076.42 1523.96 2068.62C1557.18 2056.82 1575.15 2064.71 1587.83 2098.14 1599.35 2128.53 1588.56 2149.46 1558.88 2160.71L1538.31 2168.52ZM1509.01 2222.41 1580.78 2195.2C1631.97 2175.78 1650.8 2133.07 1631.21 2081.41 1610.47 2026.71 1568.21 2009.05 1517.48 2028.29L1445.71 2055.51 1509.01 2222.41" id="path32" fill="#ED1C24"/><path d="M1863.84 1950.97C1873.36 1966.45 1868.6 1982.69 1853.55 1995.1 1830.41 2014.19 1804.68 2001.06 1787.8 1980.62 1770.95 1960.18 1762.95 1932.41 1786.1 1913.31 1802.88 1899.48 1820.48 1901.16 1834.87 1915.86L1870.75 1886.28C1839.55 1852.37 1796.33 1853.02 1761.42 1881.81 1719.76 1916.18 1718.99 1970.28 1751.93 2010.21 1784.87 2050.14 1838.13 2059.69 1879.79 2025.32 1909.49 2000.82 1926.11 1955.35 1899.71 1921.37L1863.84 1950.97" id="path34" fill="#ED1C24"/><path d="M1953.97 1836.73 1977.9 1805.94C1986.48 1794.88 1997.01 1793.56 2007.67 1801.84 2018.13 1809.98 2016.43 1821.95 2008.45 1832.2L1985.75 1861.41ZM1986.63 1920.98 2042.45 1849.14C2061.79 1824.27 2069.55 1791.06 2041.13 1768.97 2025.94 1757.16 2005.85 1753.27 1988.62 1763.62L1988.23 1763.32C1996.34 1745.55 1982.94 1728.17 1970.43 1716.56 1964.81 1711.57 1944.56 1694.87 1943.26 1685.95L1915.04 1722.26C1917.32 1729.1 1930.68 1740.43 1934.32 1743.89 1947.76 1755.92 1960.53 1769.64 1947.18 1786.81L1925.56 1814.64 1874.25 1774.76 1845.71 1811.47 1986.63 1920.98" id="path36" fill="#ED1C24"/><path d="M2023.27 1605.84C2035.92 1578.65 2064.79 1579.41 2088.81 1590.59 2112.82 1601.77 2132 1623.38 2119.34 1650.57 2106.68 1677.77 2077.81 1677 2053.79 1665.83 2029.78 1654.64 2010.61 1633.04 2023.27 1605.84ZM2155.59 1667.45C2179.33 1616.47 2155.34 1570.29 2108.44 1548.45 2061.53 1526.61 2010.74 1537.98 1987.01 1588.96 1963.27 1639.95 1987.27 1686.13 2034.17 1707.97 2081.07 1729.8 2131.86 1718.44 2155.59 1667.45" id="path38" fill="#ED1C24"/><path d="M2101.18 1460.27C2080.91 1454.71 2077.16 1440.56 2081.46 1421.29 2084.51 1407.63 2092.55 1394.57 2105.48 1397.45 2120.85 1400.89 2118.22 1426.43 2119.69 1453.14 2121.2 1479.6 2126.59 1508.21 2158.55 1515.34 2196.6 1523.84 2220.04 1488.86 2227.35 1456.17 2235.09 1421.53 2226.04 1382.89 2186.82 1373.87L2176.68 1419.25C2192.7 1422.06 2194.5 1438.08 2191.4 1451.99 2189.22 1461.75 2183.08 1473.19 2171.61 1470.62 2158.19 1467.63 2161.37 1441.95 2159.96 1415 2158.5 1388.29 2152.45 1360.31 2120.99 1353.28 2076.83 1343.42 2054.29 1377.83 2045.73 1416.13 2036.8 1456.13 2046.46 1495.43 2091.05 1505.65L2101.18 1460.27" id="path40" fill="#ED1C24"/><path d="M2129.25 1279.77C2108.28 1278.33 2101.8 1265.2 2102.22 1245.46 2102.51 1231.46 2107.8 1217.06 2121.05 1217.34 2136.79 1217.67 2139.26 1243.23 2145.97 1269.12 2152.69 1294.76 2163.63 1321.75 2196.37 1322.43 2235.36 1323.24 2251.43 1284.32 2252.12 1250.83 2252.86 1215.34 2236.37 1179.25 2196.13 1178.16L2195.17 1224.64C2211.43 1224.23 2216.36 1239.58 2216.04 1253.83 2215.85 1263.83 2212.08 1276.25 2200.33 1276 2186.59 1275.72 2184.63 1249.92 2177.92 1223.78 2171.22 1197.88 2159.76 1171.64 2127.52 1170.97 2082.29 1170.03 2066.98 1208.21 2066.16 1247.45 2065.31 1288.44 2082.55 1325.06 2128.28 1326.26L2129.25 1279.77" id="path42" fill="#ED1C24"/><path d="M2410.79 1230.47C2410.79 1896.17 1876.75 2435.83 1217.96 2435.83 559.18 2435.83 25.1328 1896.17 25.1328 1230.47 25.1328 564.762 559.18 25.1289 1217.96 25.1289 1876.75 25.1289 2410.79 564.762 2410.79 1230.47Z" id="path44" stroke="#ED1C24" stroke-width="50.2619" fill="none"/><path d="M1970.79 1230.47C1970.79 1646.25 1633.74 1983.3 1217.96 1983.3 802.188 1983.3 465.137 1646.25 465.137 1230.47 465.137 814.699 802.188 477.648 1217.96 477.648 1633.74 477.648 1970.79 814.699 1970.79 1230.47Z" id="path46" stroke="#ED1C24" stroke-width="10" fill="none"/><path d="M653.629 424.801C641.469 407.648 647.555 394.309 663.113 382.148 674.133 373.52 688.637 368.512 696.809 378.949 706.52 391.359 688.281 409.441 672.465 431.02 656.855 452.449 642.871 478 663.047 503.801 687.102 534.52 727.41 522.328 753.805 501.691 781.758 479.801 799.285 444.18 774.672 412.32L738.047 440.98C748.652 453.32 739.883 466.852 728.656 475.641 720.777 481.801 708.77 486.762 701.531 477.5 693.047 466.672 711.793 448.828 727.813 427.09 743.621 405.5 756.699 380.031 736.824 354.621 708.938 318.969 669.668 331.289 638.746 355.488 606.449 380.762 589 417.281 616.996 453.461L653.629 424.801" id="path48" fill="#ED1C24"/><path d="M847.465 274.711C874.734 262.199 896.238 281.488 907.285 305.582 918.34 329.68 918.941 358.551 891.66 371.059 864.395 383.57 842.887 364.289 831.848 340.191 820.793 316.102 820.188 287.219 847.465 274.711ZM908.34 407.43C959.48 383.969 971.137 333.238 949.566 286.191 927.984 239.148 881.914 214.891 830.793 238.352 779.656 261.801 767.992 312.551 789.574 359.582 811.148 406.629 857.219 430.891 908.34 407.43" id="path50" fill="#ED1C24"/><path d="M1118.08 276.691C1118.8 294.852 1106.69 306.68 1087.5 310.121 1057.97 315.422 1041.96 291.371 1037.29 265.281 1032.61 239.211 1039.24 211.09 1068.76 205.789 1090.18 201.941 1104.69 212.039 1110.04 231.898L1155.81 223.691C1145.22 178.859 1107.23 158.238 1062.69 166.238 1009.53 175.781 982.367 222.57 991.516 273.5 1000.65 324.441 1042.4 358.859 1095.55 349.309 1133.44 342.52 1170.21 311.012 1163.84 268.469L1118.08 276.691" id="path52" fill="#ED1C24"/><path d="M1206.29 334.27 1252.8 334.469 1253.56 155.941 1207.05 155.73 1206.29 334.27" id="path54" fill="#ED1C24"/><path d="M1291.87 334 1431.98 358.641 1438.43 321.949 1344.12 305.371 1349.52 274.59 1435.72 289.73 1441.96 254.289 1355.77 239.129 1361.65 205.629 1458.43 222.648 1465.36 183.262 1322.78 158.18 1291.87 334" id="path56" fill="#ED1C24"/><path d="M1609.07 385.719 1559.88 365.328 1612.92 237.391 1569.96 219.59 1516.92 347.52 1467.73 327.141 1452.42 364.078 1593.74 422.672 1609.07 385.719" id="path58" fill="#ED1C24"/><path d="M1753.28 395.559 1791.44 341.121 1753.38 314.441 1715.21 368.879 1597.74 423.281 1640.94 453.539 1711.58 414.559 1699.04 494.289 1742.24 524.551 1753.28 395.559" id="path60" fill="#ED1C24"/></g></g></svg>