<svg width="48" height="48" viewBox="0 0 48 48" fill="none" xmlns="http://www.w3.org/2000/svg">
<rect x="1" y="1" width="46" height="46" rx="3" fill="#F7F8FB" stroke="#9FA9B4" stroke-width="2"/>
<path d="M8.53961 13.6976H16.3594L13.9954 16.0616C13.897 16.1567 13.8185 16.2705 13.7645 16.3963C13.7106 16.5221 13.6822 16.6574 13.6811 16.7942C13.68 16.9311 13.7061 17.0668 13.758 17.1935C13.8099 17.3202 13.8865 17.4352 13.9833 17.532C14.0801 17.6287 14.1953 17.7052 14.322 17.7569C14.4487 17.8087 14.5844 17.8347 14.7213 17.8335C14.8582 17.8322 14.9934 17.8037 15.1192 17.7496C15.2449 17.6956 15.3586 17.617 15.4537 17.5185L19.5769 13.3952C19.77 13.2019 19.8784 12.9399 19.8784 12.6668C19.8784 12.3936 19.77 12.1316 19.5769 11.9383L15.4537 7.81504C15.3586 7.71654 15.2449 7.63796 15.1192 7.58388C14.9934 7.5298 14.8582 7.5013 14.7213 7.50004C14.5844 7.49879 14.4487 7.52481 14.322 7.57658C14.1953 7.62835 14.0801 7.70484 13.9833 7.80158C13.8865 7.89832 13.8099 8.01337 13.758 8.14003C13.7061 8.26669 13.68 8.40242 13.6811 8.53929C13.6822 8.67616 13.7106 8.81144 13.7645 8.93722C13.8185 9.06301 13.897 9.1768 13.9954 9.27193L16.3601 11.6359H8.53961C8.26622 11.6359 8.00402 11.7445 7.81071 11.9379C7.61739 12.1312 7.50879 12.3934 7.50879 12.6668C7.50879 12.9402 7.61739 13.2023 7.81071 13.3957C8.00402 13.589 8.26622 13.6976 8.53961 13.6976V13.6976ZM40.3713 15.7592L30.2968 7.5539C30.2663 7.52727 30.2273 7.51259 30.1868 7.51259C30.1464 7.51259 30.1073 7.52727 30.0769 7.5539L20.0023 15.7592C19.9649 15.792 19.9346 15.832 19.9133 15.8769C19.8921 15.9219 19.8802 15.9707 19.8786 16.0204V28.1909C20.6777 28.2998 21.4467 28.5685 22.1395 28.9812C22.6912 29.344 23.342 29.5265 24.0019 29.5035C24.6595 29.5256 25.3078 29.3431 25.8574 28.9812C26.8164 28.4029 27.9194 28.1075 29.0392 28.129C30.1567 28.1072 31.2576 28.4027 32.2141 28.9812C32.7765 29.3228 33.4219 29.5034 34.0799 29.5034C34.7379 29.5034 35.3833 29.3228 35.9456 28.9812C36.9021 28.4027 38.003 28.1072 39.1206 28.129C39.5823 28.1258 40.0431 28.1718 40.495 28.2665V16.0204C40.4934 15.9707 40.4815 15.9219 40.4603 15.8769C40.439 15.832 40.4087 15.792 40.3713 15.7592V15.7592ZM39.1206 36.3756C38.003 36.3538 36.9021 36.6493 35.9456 37.2277C35.3833 37.5693 34.7379 37.75 34.0799 37.75C33.4219 37.75 32.7765 37.5693 32.2141 37.2277C31.2576 36.6493 30.1567 36.3538 29.0392 36.3756C27.9194 36.354 26.8164 36.6494 25.8574 37.2277C25.3078 37.5897 24.6595 37.7722 24.0019 37.75C23.342 37.7731 22.6912 37.5906 22.1395 37.2277C21.1801 36.6504 20.0773 36.3551 18.9578 36.3756C17.8402 36.3538 16.7393 36.6493 15.7828 37.2277C15.2303 37.5886 14.5801 37.771 13.9205 37.75C13.2608 37.771 12.6107 37.5886 12.0581 37.2277C11.1017 36.6493 10.0008 36.3538 8.88321 36.3756C8.51869 36.3756 8.1691 36.5204 7.91135 36.7782C7.65359 37.0359 7.50879 37.3855 7.50879 37.75C7.50879 38.1145 7.65359 38.4641 7.91135 38.7219C8.1691 38.9796 8.51869 39.1244 8.88321 39.1244C9.54286 39.1035 10.193 39.2858 10.7456 39.6467C11.702 40.2252 12.8029 40.5206 13.9205 40.4989C15.0381 40.5207 16.1389 40.2252 17.0954 39.6467C17.648 39.2858 18.2981 39.1035 18.9578 39.1244C19.6175 39.1024 20.268 39.2848 20.8201 39.6467C21.7792 40.225 22.8822 40.5204 24.0019 40.4989C25.1193 40.5196 26.2199 40.2242 27.1768 39.6467C27.738 39.3052 28.3822 39.1245 29.0392 39.1245C29.6961 39.1245 30.3404 39.3052 30.9015 39.6467C31.8677 40.205 32.964 40.4989 34.0799 40.4989C35.1958 40.4989 36.292 40.205 37.2582 39.6467C37.8103 39.2848 38.4608 39.1024 39.1206 39.1244C39.4851 39.1244 39.8347 38.9796 40.0924 38.7219C40.3502 38.4641 40.495 38.1145 40.495 37.75C40.495 37.3855 40.3502 37.0359 40.0924 36.7782C39.8347 36.5204 39.4851 36.3756 39.1206 36.3756ZM39.1206 30.8779C38.0015 30.8558 36.8992 31.1523 35.9422 31.7328C35.3801 32.0726 34.7357 32.2523 34.0788 32.2523C33.422 32.2523 32.7776 32.0726 32.2155 31.7328C31.2583 31.1521 30.1557 30.8556 29.0364 30.8779C27.9178 30.8557 26.8159 31.1522 25.8594 31.7328C25.3068 32.0921 24.6573 32.2734 23.9985 32.2523C23.3394 32.2734 22.6897 32.0921 22.1368 31.7328C21.1798 31.1523 20.0775 30.8558 18.9584 30.8779C17.8396 30.8558 16.7375 31.1523 15.7808 31.7328C15.2283 32.092 14.5791 32.2733 13.9205 32.2523C13.2622 32.2735 12.6132 32.0924 12.0609 31.7335C11.1044 31.1524 10.0022 30.8556 8.88321 30.8779C8.51869 30.8779 8.1691 31.0227 7.91135 31.2805C7.65359 31.5382 7.50879 31.8878 7.50879 32.2523C7.50879 32.6168 7.65359 32.9664 7.91135 33.2242C8.1691 33.4819 8.51869 33.6267 8.88321 33.6267C9.54183 33.6057 10.1911 33.787 10.7435 34.1463C11.6997 34.7268 12.8014 35.0233 13.9198 35.0012C15.0386 35.0232 16.1407 34.7267 17.0975 34.1463C17.6501 33.7869 18.2996 33.6056 18.9584 33.6267C19.6177 33.6055 20.2677 33.7868 20.8208 34.1463C21.7774 34.7266 22.8792 35.023 23.9978 35.0012C25.1167 35.0232 26.2188 34.7265 27.1754 34.1456C27.7372 33.8058 28.3812 33.6262 29.0378 33.6262C29.6943 33.6262 30.3384 33.8058 30.9001 34.1456C31.8658 34.7055 32.9622 35.0004 34.0785 35.0004C35.1947 35.0004 36.2912 34.7055 37.2568 34.1456C37.8105 33.7864 38.4609 33.6053 39.1206 33.6267C39.4851 33.6267 39.8347 33.4819 40.0924 33.2242C40.3502 32.9664 40.495 32.6168 40.495 32.2523C40.495 31.8878 40.3502 31.5382 40.0924 31.2805C39.8347 31.0227 39.4851 30.8779 39.1206 30.8779Z" fill="#9FA9B4"/>
</svg>
